<svg width="40" height="40" viewBox="0 0 40 40" fill="none" xmlns="http://www.w3.org/2000/svg">
<rect x="1" y="1" width="38" height="38" rx="19" stroke="white" stroke-width="2"/>
<path d="M27.385 21.3591L24.6069 23.8716C24.3901 24.0611 24.1408 24.1558 23.8592 24.1558C23.5775 24.1558 23.3308 24.0611 23.1189 23.8716C22.9021 23.6822 22.7937 23.4557 22.7937 23.1923C22.7937 22.9289 22.9021 22.7024 23.1189 22.5129L25.897 20.0283L23.0878 17.5436C22.8709 17.3541 22.7625 17.1323 22.7625 16.8782C22.7625 16.6241 22.8709 16.4023 23.0878 16.2128C23.2996 16.0233 23.5516 15.9286 23.8436 15.9286C24.1356 15.9286 24.3901 16.0233 24.6069 16.2128L27.385 18.6975L30.1631 16.1849C30.3749 15.9954 30.6217 15.9007 30.9033 15.9007C31.185 15.9007 31.4342 15.9954 31.651 16.1849C31.8629 16.3744 31.9688 16.6009 31.9688 16.8643C31.9688 17.1277 31.8629 17.3541 31.651 17.5436L28.873 20.0283L31.6822 22.5129C31.8941 22.7024 32 22.9242 32 23.1784C32 23.4325 31.8941 23.6543 31.6822 23.8438C31.4654 24.0332 31.2109 24.128 30.9189 24.128C30.6269 24.128 30.3749 24.0332 30.1631 23.8438L27.385 21.3591ZM13.0988 23.5123H9.0618C8.75688 23.5123 8.50369 23.4222 8.30221 23.242C8.10074 23.0618 8 22.8353 8 22.5626V17.4382C8 17.1655 8.10074 16.9379 8.30221 16.7555C8.50369 16.5731 8.75688 16.4819 9.0618 16.4819H13.0988L17.7877 12.2883C18.1233 11.9925 18.5094 11.9243 18.946 12.0837C19.3826 12.2431 19.6009 12.5331 19.6009 12.9536V27.0405C19.6009 27.4655 19.3826 27.7577 18.946 27.9171C18.5094 28.0765 18.1233 28.0061 17.7877 27.7059L13.0988 23.5123ZM17.4699 15.4638L14.0373 18.3878H10.1236V21.613H14.0373L17.4699 24.5649V15.4638Z" fill="white"/>
</svg>
