<svg width="40" height="40" viewBox="0 0 40 40" fill="none" xmlns="http://www.w3.org/2000/svg">
<rect x="1" y="1" width="38" height="38" rx="19" stroke="white" stroke-width="2"/>
<path d="M18.3373 27.9798C16.5168 27.5955 15.0055 26.6412 13.8033 25.1172C12.6011 23.5931 12 21.8272 12 19.8193C12 18.6233 12.2381 17.4908 12.7143 16.4217C13.1906 15.3526 13.866 14.4432 14.7408 13.6934C14.8831 13.5497 15.0646 13.481 15.2852 13.4876C15.5059 13.4941 15.6952 13.5802 15.8532 13.7459C16.0243 13.9255 16.1036 14.1358 16.0912 14.3769C16.0788 14.6181 15.9726 14.8326 15.7727 15.0203C15.1103 15.6076 14.5941 16.3226 14.224 17.1653C13.8539 18.008 13.6688 18.8926 13.6688 19.8193C13.6688 21.4011 14.1307 22.7791 15.0544 23.9535C15.9781 25.1278 17.151 25.8863 18.5732 26.2289C18.7723 26.2796 18.939 26.3902 19.0732 26.5608C19.2074 26.7314 19.2745 26.9211 19.2745 27.1301C19.2745 27.415 19.1791 27.6405 18.9885 27.8067C18.7979 27.9728 18.5808 28.0305 18.3373 27.9798ZM21.6872 27.9798C21.4398 28.0346 21.2207 27.9779 21.0301 27.8097C20.8395 27.6416 20.7442 27.4171 20.7442 27.1362C20.7442 26.9314 20.8112 26.7416 20.9454 26.5669C21.0796 26.3923 21.2463 26.2796 21.4454 26.2289C22.8839 25.8863 24.0568 25.1278 24.9642 23.9535C25.8716 22.7791 26.3253 21.4011 26.3253 19.8193C26.3253 17.9887 25.7244 16.4338 24.5228 15.1546C23.3211 13.8755 21.8478 13.2236 20.103 13.199H19.5956L20.5567 14.2074C20.6913 14.3527 20.7585 14.5407 20.7585 14.7717C20.7585 15.0026 20.6913 15.1907 20.5567 15.3359C20.4019 15.4983 20.2135 15.5795 19.9915 15.5795C19.7694 15.5795 19.5892 15.4983 19.4507 15.3359L17.1104 12.9062C17.0209 12.8124 16.9569 12.7155 16.9184 12.6155C16.8799 12.5155 16.8606 12.4079 16.8606 12.2928C16.8606 12.1736 16.8799 12.0651 16.9184 11.9671C16.9569 11.8692 17.0209 11.7733 17.1104 11.6794L19.4507 9.21173C19.5892 9.07058 19.7694 9 19.9915 9C20.2135 9 20.4019 9.07058 20.5567 9.21173C20.6913 9.37412 20.7585 9.57179 20.7585 9.80476C20.7585 10.0377 20.6913 10.2268 20.5567 10.3721L19.5311 11.442H20.0445C22.2639 11.442 24.1447 12.2593 25.6868 13.894C27.2289 15.5287 28 17.5038 28 19.8193C28 21.8272 27.402 23.5931 26.206 25.1172C25.01 26.6412 23.5037 27.5955 21.6872 27.9798Z" fill="white"/>
</svg>
