<svg width="40" height="40" viewBox="0 0 40 40" fill="none" xmlns="http://www.w3.org/2000/svg">
<rect x="1" y="1" width="38" height="38" rx="19" stroke="white" stroke-width="2"/>
<path d="M26.8606 32C26.5708 32 26.3305 31.8989 26.1399 31.6966C25.9492 31.4942 25.8539 31.242 25.8539 30.94V27.6739H22.7363C22.4479 27.6739 22.2072 27.5722 22.0141 27.3689C21.821 27.1655 21.7244 26.912 21.7244 26.6085C21.7244 26.3098 21.821 26.0606 22.0141 25.8608C22.2072 25.6611 22.4479 25.5612 22.7363 25.5612H25.8539V22.2877C25.8539 21.9906 25.951 21.7409 26.1451 21.5386C26.3392 21.3363 26.5811 21.2351 26.8709 21.2351C27.156 21.2351 27.3939 21.3363 27.5846 21.5386C27.7752 21.7409 27.8705 21.9906 27.8705 22.2877V25.5612H30.9952C31.2788 25.5612 31.5172 25.6629 31.7103 25.8662C31.9034 26.0696 32 26.3206 32 26.6193C32 26.9229 31.9034 27.1746 31.7103 27.3743C31.5172 27.574 31.2788 27.6739 30.9952 27.6739H27.8705V30.94C27.8705 31.242 27.7735 31.4942 27.5794 31.6966C27.3853 31.8989 27.1457 32 26.8606 32ZM11 25.5613V22.2878C11 21.9906 11.0971 21.7409 11.2912 21.5386C11.4853 21.3363 11.7272 21.2351 12.017 21.2351C12.3021 21.2351 12.54 21.3363 12.7307 21.5386C12.9213 21.7409 13.0166 21.9906 13.0166 22.2878V25.5613H16.1413C16.4249 25.5613 16.6633 25.6629 16.8564 25.8663C17.0495 26.0696 17.1461 26.3206 17.1461 26.6193C17.1461 26.9229 17.0495 27.1746 16.8564 27.3743C16.6633 27.5741 16.4249 27.6739 16.1413 27.6739H13.0166C12.4594 27.6739 11.984 27.4677 11.5904 27.0554C11.1968 26.6431 11 26.145 11 25.5613ZM12.0067 16.4388C11.7169 16.4388 11.4766 16.3376 11.286 16.1353C11.0953 15.933 11 15.6808 11 15.3788V12.1127C11 11.5289 11.1968 11.0309 11.5904 10.6185C11.984 10.2062 12.4594 10 13.0166 10H16.1413C16.4249 10 16.6633 10.1017 16.8564 10.305C17.0495 10.5084 17.1461 10.7594 17.1461 11.058C17.1461 11.3617 17.0495 11.6133 16.8564 11.8131C16.6633 12.0128 16.4249 12.1127 16.1413 12.1127H13.0166V15.3788C13.0166 15.6808 12.9196 15.933 12.7255 16.1353C12.5314 16.3376 12.2918 16.4388 12.0067 16.4388ZM26.8606 16.4388C26.5708 16.4388 26.3305 16.3376 26.1399 16.1353C25.9492 15.933 25.8539 15.6808 25.8539 15.3788V12.1127H22.7363C22.4479 12.1127 22.2072 12.011 22.0141 11.8076C21.821 11.6043 21.7244 11.3508 21.7244 11.0472C21.7244 10.7485 21.821 10.4993 22.0141 10.2996C22.2072 10.0999 22.4479 10 22.7363 10H25.8539C26.4111 10 26.8865 10.2062 27.2801 10.6185C27.6737 11.0309 27.8705 11.5289 27.8705 12.1127V15.3788C27.8705 15.6808 27.7735 15.933 27.5794 16.1353C27.3853 16.3376 27.1457 16.4388 26.8606 16.4388Z" fill="white"/>
</svg>
