<svg width="60" height="60" viewBox="0 0 60 60" fill="none" xmlns="http://www.w3.org/2000/svg">
<circle cx="30.0001" cy="30.0001" r="29.0001" fill="white" stroke="white" stroke-width="2"/>
<g filter="url(#filter0_d_516_2069)">
<path d="M38.795 41.789C38.795 45.8029 35.5411 49.0568 31.5271 49.0568C27.5132 49.0568 24.2593 45.8029 24.2593 41.789C24.2593 38.6512 28.7007 30.368 30.6395 26.9015C31.0315 26.2008 32.0228 26.2008 32.4147 26.9015C34.3536 30.368 38.795 38.6512 38.795 41.789Z" fill="white"/>
<path fill-rule="evenodd" clip-rule="evenodd" d="M31.5271 47.5823C34.9614 47.5823 37.7455 45.2233 37.7455 41.789C37.7455 41.1947 37.5222 40.232 37.0805 38.9743C36.6499 37.748 36.0499 36.3448 35.381 34.9126C34.0572 32.0781 32.4941 29.919 31.5271 28.1885C30.5602 29.919 28.9971 32.0781 27.6732 34.9126C27.0044 36.3448 26.4044 37.748 25.9738 38.9743C25.5321 40.232 25.3088 41.1947 25.3088 41.789C25.3088 45.2233 28.0928 47.5823 31.5271 47.5823ZM31.5271 49.0568C35.5411 49.0568 38.795 45.8029 38.795 41.789C38.795 38.6512 34.3536 30.368 32.4147 26.9015C32.0228 26.2008 31.0315 26.2008 30.6395 26.9015C28.7007 30.368 24.2593 38.6512 24.2593 41.789C24.2593 45.8029 27.5132 49.0568 31.5271 49.0568Z" fill="black"/>
<path d="M35.5828 41.2975C35.5828 43.5367 33.7675 45.352 31.5282 45.352C29.2889 45.352 27.4736 43.5367 27.4736 41.2975C27.4736 39.731 29.4578 35.8658 30.6501 33.6846C31.0352 32.9801 32.0212 32.9801 32.4063 33.6846C33.5986 35.8658 35.5828 39.731 35.5828 41.2975Z" fill="#CAC9C9"/>
<path fill-rule="evenodd" clip-rule="evenodd" d="M31.5282 43.8299C33.1879 43.8299 34.5333 42.9571 34.5333 41.2975C34.5333 41.0821 34.4555 40.6796 34.258 40.0844C34.0689 39.5144 33.7992 38.852 33.4845 38.1519C32.8707 36.7868 32.1135 35.34 31.5282 34.2664C30.9429 35.34 30.1857 36.7868 29.572 38.1519C29.2572 38.852 28.9875 39.5144 28.7984 40.0844C28.6009 40.6796 28.5231 41.0821 28.5231 41.2975C28.5231 42.9571 29.8686 43.8299 31.5282 43.8299ZM31.5282 45.352C33.7675 45.352 35.5828 43.5367 35.5828 41.2975C35.5828 39.731 33.5986 35.8658 32.4063 33.6846C32.0212 32.9801 31.0352 32.9801 30.6501 33.6846C29.4578 35.8658 27.4736 39.731 27.4736 41.2975C27.4736 43.5367 29.2889 45.352 31.5282 45.352Z" fill="black"/>
<path d="M34.6482 24.7878C34.6482 26.5114 33.2509 27.9086 31.5273 27.9086C29.8037 27.9086 28.4065 26.5114 28.4065 24.7878C28.4065 23.0642 29.8037 21.667 31.5273 21.667C33.2509 21.667 34.6482 23.0642 34.6482 24.7878Z" fill="white"/>
<path fill-rule="evenodd" clip-rule="evenodd" d="M30.8293 23.2086C31.053 23.0835 31.32 22.9912 31.569 22.9912C31.5949 22.9912 31.6209 22.9912 31.6469 22.9914C32.0561 22.994 31.9294 23.3617 31.5821 23.5783C30.6884 24.1356 30.5717 24.7019 30.8197 25.3191C31.0369 25.8597 30.735 26.4707 30.3906 26.0009C30.0869 25.5867 29.8362 25.1481 29.8116 24.7626C29.7868 24.3737 29.993 24.0721 30.175 23.802C30.3537 23.5367 30.5946 23.3399 30.8293 23.2086Z" fill="#CAC9C9"/>
<path fill-rule="evenodd" clip-rule="evenodd" d="M31.5293 26.6474C32.6732 26.6474 33.4147 25.9317 33.4147 24.7878C33.4147 23.6438 32.6732 22.7165 31.5293 22.7165C30.3853 22.7165 29.458 23.6438 29.458 24.7878C29.458 25.9317 30.3853 26.6474 31.5293 26.6474ZM31.5293 27.9086C33.2529 27.9086 34.6501 26.5114 34.6501 24.7878C34.6501 23.0642 33.2529 21.667 31.5293 21.667C29.8057 21.667 28.4084 23.0642 28.4084 24.7878C28.4084 26.5114 29.8057 27.9086 31.5293 27.9086Z" fill="black"/>
<path fill-rule="evenodd" clip-rule="evenodd" d="M30.7725 10.3831C31.6247 11.1564 32.1754 12.2941 32.1754 13.7465V22.0828C32.1754 22.3726 31.9404 22.6075 31.6506 22.6075C31.3608 22.6075 31.1259 22.3726 31.1259 22.0828V13.7465C31.1259 12.5787 30.6919 11.7272 30.0673 11.1604C29.4337 10.5855 28.5765 10.2796 27.7059 10.269C26.8354 10.2584 25.9836 10.5433 25.3555 11.1081C24.7365 11.6648 24.2986 12.5252 24.2986 13.7465C24.2986 13.7672 24.2974 13.7878 24.295 13.8083C24.231 14.3479 24.181 14.8648 24.1331 15.3652C24.1307 15.3908 24.1282 15.4163 24.1258 15.4418C24.0807 15.9133 24.0368 16.3722 23.9847 16.8135C23.8751 17.7428 23.7262 18.6242 23.436 19.4503C22.841 21.1439 21.6806 22.5236 19.2815 23.7232C19.0223 23.8528 18.7071 23.7477 18.5775 23.4885C18.4479 23.2293 18.5529 22.9141 18.8122 22.7845C21.0124 21.6844 21.9566 20.4952 22.4458 19.1025C22.6977 18.3854 22.8359 17.5943 22.9425 16.6906C22.9931 16.2611 23.036 15.813 23.0814 15.3379C23.0837 15.3137 23.086 15.2895 23.0884 15.2653C23.1353 14.7743 23.1854 14.2567 23.2492 13.7149C23.2568 12.2356 23.8019 11.0937 24.6537 10.3277C25.5025 9.5645 26.6071 9.04366 27.7059 9.05701C28.8045 9.07036 29.9291 9.61792 30.7725 10.3831Z" fill="black"/>
</g>
<defs>
<filter id="filter0_d_516_2069" x="17.4725" y="9.05664" width="21.3225" height="41.5742" filterUnits="userSpaceOnUse" color-interpolation-filters="sRGB">
<feFlood flood-opacity="0" result="BackgroundImageFix"/>
<feColorMatrix in="SourceAlpha" type="matrix" values="0 0 0 0 0 0 0 0 0 0 0 0 0 0 0 0 0 0 127 0" result="hardAlpha"/>
<feOffset dx="-1.0495" dy="1.57425"/>
<feComposite in2="hardAlpha" operator="out"/>
<feColorMatrix type="matrix" values="0 0 0 0 0 0 0 0 0 0 0 0 0 0 0 0 0 0 0.25 0"/>
<feBlend mode="normal" in2="BackgroundImageFix" result="effect1_dropShadow_516_2069"/>
<feBlend mode="normal" in="SourceGraphic" in2="effect1_dropShadow_516_2069" result="shape"/>
</filter>
</defs>
</svg>
