<svg width="61" height="61" viewBox="0 0 61 61" fill="none" xmlns="http://www.w3.org/2000/svg">
<circle cx="30.0002" cy="30.0001" r="29.0001" fill="white" stroke="white" stroke-width="2"/>
<path d="M48.6539 29.5619C48.839 29.8342 48.8481 30.1729 48.6767 30.4541C47.3423 32.6424 41.8923 42.0001 30.4804 42.0001C19.1095 42.0001 12.9913 33.1699 11.5399 30.9384C11.3502 30.6466 11.3593 30.2826 11.5627 30.0002C13.1486 27.7995 19.8945 18.4619 30.4804 18.4619C41.1024 18.4619 47.1851 27.4027 48.6539 29.5619Z" fill="white"/>
<path fill-rule="evenodd" clip-rule="evenodd" d="M48.0411 29.0768C47.3026 27.9986 46.0772 26.5001 42.9642 23.9999C39.7989 21.4577 35.5315 19.3846 30.5025 19.3846C25.4874 19.3846 21.1979 21.136 17.9312 23.6734C14.7181 26.1692 12.3602 29.3631 11.5638 30.4614C13.0651 32.7518 19.7321 41.0766 30.5025 41.0766C41.2945 41.0766 48.0411 30.9229 48.0411 29.0768ZM48.5026 31.3844C48.674 31.1033 50.0499 28.4259 49.8647 28.1537C48.9416 27.6922 43.4032 18 30.5025 18C19.9166 18 12.3638 27.7722 10.7779 29.973C10.5744 30.2553 10.5653 30.6194 10.7551 30.9111C12.2065 33.1426 19.1316 41.9997 30.5025 41.9997C41.9144 41.9997 47.1682 33.5728 48.5026 31.3844Z" fill="black"/>
<mask id="mask0_516_1530" style="mask-type:alpha" maskUnits="userSpaceOnUse" x="20" y="19" width="22" height="22">
<circle cx="30.9477" cy="30" r="10.0879" fill="#CAC9C9" stroke="black"/>
</mask>
<g mask="url(#mask0_516_1530)">
<rect width="8.34974" height="24.507" transform="matrix(-0.64985 -0.760062 -0.763491 0.645818 36.597 19.3965)" fill="white"/>
</g>
<circle cx="30.9477" cy="30" r="10.0879" fill="#CAC9C9" stroke="black"/>
<circle cx="30.9481" cy="30.0005" r="2.84617" fill="black"/>
<circle cx="33.0874" cy="27.9437" r="1.26111" fill="white"/>
<path fill-rule="evenodd" clip-rule="evenodd" d="M13.1564 28.4781C13.0176 28.6595 12.8837 28.8488 12.7589 29.0392C12.5282 29.391 12.3419 29.7265 12.2233 29.9935C12.1636 30.1278 12.1259 30.234 12.1066 30.3098C12.1007 30.3331 12.0975 30.3498 12.0957 30.361C12.1549 30.5279 12.3259 30.7939 12.6276 31.1628C12.7063 31.259 12.7906 31.3584 12.8794 31.4607C12.7571 30.3692 12.9218 29.3249 13.1564 28.4781ZM14.7932 25.8458C14.7932 25.8458 15.7502 24.9226 14.6118 27.2263C14.1975 28.0651 13.3711 31.3571 14.1097 33.4883C14.224 33.8179 14.01 34.0649 13.8678 34.1567C13.7264 34.2479 13.3276 33.3254 13.0761 33.0524C13.055 33.0295 13.0338 33.0065 13.0127 32.9836C12.6183 32.5556 12.2269 32.1309 11.913 31.7471C11.5962 31.3598 11.3013 30.9483 11.1965 30.5781C11.1448 30.3956 11.1804 30.2066 11.2121 30.0822C11.2487 29.9381 11.3081 29.7799 11.3797 29.6187C11.5238 29.2945 11.7368 28.9145 11.9869 28.533C12.4781 27.7838 13.1646 26.9495 13.8316 26.5205C14.0607 26.3732 14.7932 25.8458 14.7932 25.8458Z" fill="black"/>
<circle cx="30.9477" cy="30" r="10.0879" stroke="black"/>
<circle cx="50.0001" cy="50" r="9.6" fill="#CAC9C9" stroke="white" stroke-width="1.2"/>
<circle cx="50.0001" cy="50" r="8.4" fill="#87D803" stroke="black" stroke-width="1.2"/>
</svg>
