<svg width="61" height="61" viewBox="0 0 61 61" fill="none" xmlns="http://www.w3.org/2000/svg">
<circle cx="30.0001" cy="30.0001" r="29.0001" fill="white" stroke="white" stroke-width="2"/>
<path d="M48.6537 29.5619C48.8389 29.8342 48.848 30.1729 48.6766 30.4541C47.3422 32.6424 41.8921 42.0001 30.4803 42.0001C19.1093 42.0001 12.9912 33.1699 11.5398 30.9384C11.35 30.6466 11.3591 30.2826 11.5626 30.0002C13.1485 27.7995 19.8944 18.4619 30.4803 18.4619C41.1023 18.4619 47.1849 27.4027 48.6537 29.5619Z" fill="white"/>
<path fill-rule="evenodd" clip-rule="evenodd" d="M48.041 29.0768C47.3025 27.9986 46.0771 26.5001 42.9641 23.9999C39.7987 21.4577 35.5314 19.3846 30.5024 19.3846C25.4873 19.3846 21.1978 21.136 17.9311 23.6734C14.718 26.1692 12.3601 29.3631 11.5637 30.4614C13.065 32.7518 19.732 41.0766 30.5024 41.0766C41.2944 41.0766 48.041 30.9229 48.041 29.0768ZM48.5025 31.3844C48.6739 31.1033 50.0497 28.4259 49.8645 28.1537C48.9415 27.6922 43.4031 18 30.5024 18C19.9165 18 12.3637 27.7722 10.7778 29.973C10.5743 30.2553 10.5652 30.6194 10.7549 30.9111C12.2063 33.1426 19.1314 41.9997 30.5024 41.9997C41.9142 41.9997 47.1681 33.5728 48.5025 31.3844Z" fill="black"/>
<mask id="mask0_516_1560" style="mask-type:alpha" maskUnits="userSpaceOnUse" x="20" y="19" width="22" height="22">
<circle cx="30.9475" cy="30" r="10.0879" fill="#CAC9C9" stroke="black"/>
</mask>
<g mask="url(#mask0_516_1560)">
<rect width="8.34974" height="24.507" transform="matrix(-0.64985 -0.760062 -0.763491 0.645818 36.5969 19.3965)" fill="white"/>
</g>
<circle cx="30.9475" cy="30" r="10.0879" fill="#CAC9C9" stroke="black"/>
<circle cx="30.948" cy="30.0005" r="2.84617" fill="black"/>
<circle cx="33.0873" cy="27.9437" r="1.26111" fill="white"/>
<path fill-rule="evenodd" clip-rule="evenodd" d="M13.1563 28.4781C13.0175 28.6595 12.8835 28.8488 12.7588 29.0392C12.5281 29.391 12.3418 29.7265 12.2232 29.9935C12.1635 30.1278 12.1258 30.234 12.1065 30.3098C12.1006 30.3331 12.0973 30.3498 12.0956 30.361C12.1547 30.5279 12.3258 30.7939 12.6275 31.1628C12.7062 31.259 12.7905 31.3584 12.8793 31.4607C12.757 30.3692 12.9216 29.3249 13.1563 28.4781ZM14.7931 25.8458C14.7931 25.8458 15.7501 24.9226 14.6117 27.2263C14.1974 28.0651 13.3709 31.3571 14.1096 33.4883C14.2238 33.8179 14.0099 34.0649 13.8677 34.1567C13.7263 34.2479 13.3274 33.3254 13.076 33.0524C13.0548 33.0295 13.0337 33.0065 13.0126 32.9836C12.6182 32.5556 12.2267 32.1309 11.9129 31.7471C11.5961 31.3598 11.3012 30.9483 11.1964 30.5781C11.1447 30.3956 11.1803 30.2066 11.212 30.0822C11.2486 29.9381 11.308 29.7799 11.3796 29.6187C11.5236 29.2945 11.7367 28.9145 11.9868 28.533C12.478 27.7838 13.1645 26.9495 13.8315 26.5205C14.0606 26.3732 14.7931 25.8458 14.7931 25.8458Z" fill="black"/>
<circle cx="30.9475" cy="30" r="10.0879" stroke="black"/>
<circle cx="50" cy="50" r="9.6" fill="#CAC9C9" stroke="white" stroke-width="1.2"/>
<circle cx="50" cy="50" r="8.4" fill="#27AEFB" stroke="black" stroke-width="1.2"/>
</svg>
