<svg width="60" height="61" viewBox="0 0 60 61" fill="none" xmlns="http://www.w3.org/2000/svg">
<circle cx="30.0001" cy="30.6303" r="29.0001" fill="white" stroke="white" stroke-width="2"/>
<path d="M23 16.7302L37 16.7302" stroke="black" stroke-miterlimit="10" stroke-linecap="round" stroke-linejoin="round"/>
<path d="M25.1992 14.6303L23.0001 16.7303L25.1992 18.8303" stroke="black" stroke-miterlimit="10" stroke-linecap="round" stroke-linejoin="round"/>
<path d="M34.8008 14.6303L36.9999 16.7303L34.8008 18.8303" stroke="black" stroke-miterlimit="10" stroke-linecap="round" stroke-linejoin="round"/>
<circle cx="2.95469" cy="2.95469" r="2.95469" transform="matrix(-1 0 0 1 44.3652 34.0379)" fill="black"/>
<circle cx="1.31581" cy="1.31581" r="1.31581" transform="matrix(-1 0 0 1 40.4961 34.2094)" fill="white"/>
<path fill-rule="evenodd" clip-rule="evenodd" d="M35.2134 36.5411C37.8323 33.2993 43.9915 31.5961 48.7542 36.3588C49.022 36.6267 49.022 37.061 48.7542 37.3289C48.4863 37.5968 48.052 37.5968 47.7841 37.3289C45.7129 35.2578 43.2234 34.5803 40.9863 34.7522C38.756 34.9235 36.7647 35.9405 35.6866 37.275C35.5726 37.4161 35.4042 37.489 35.2367 37.5088C35.1535 37.5187 35.075 37.5148 35.0104 37.5019C34.9543 37.4907 34.9168 37.4744 34.8957 37.4612C34.8934 37.4534 34.8892 37.4356 34.8882 37.4018C34.8862 37.3377 34.8974 37.2487 34.9239 37.1446C34.9772 36.9358 35.0831 36.7024 35.2134 36.5411Z" fill="black"/>
<path d="M50.4855 28.5794C49.7727 27.2332 48.8301 26.1933 47.8319 25.2927C46.824 24.3793 45.5047 24.1649 44.2798 23.9469C42.7458 23.6725 41.1728 23.5256 39.5978 23.4777C38.7886 23.4531 37.9744 23.472 37.1561 23.5377C36.6612 23.5775 36.0551 23.548 35.5807 24.022C35.0454 24.5547 34.8807 25.548 34.6871 26.346C34.5255 27.0139 34.345 27.7078 34.4877 28.3304C34.796 29.6871 36.1594 29.6248 37.0356 29.4842C37.5271 29.4038 37.9856 29.2534 38.4207 29.1638C38.8033 29.0847 39.1839 29.0258 39.5653 28.9704C40.6335 28.8176 41.6994 28.7184 42.7601 28.6566C43.9737 28.5861 45.1834 28.5685 46.3804 28.6338C47.4616 28.6916 49.1859 28.9986 50.1475 29.344C50.5322 29.4803 50.6575 28.9046 50.4855 28.5794Z" fill="#D9D9D9" stroke="black" stroke-width="0.962896" stroke-miterlimit="10" stroke-linecap="round" stroke-linejoin="round"/>
<path fill-rule="evenodd" clip-rule="evenodd" d="M38.2763 24.5207C37.8353 24.516 37.1047 24.6692 36.6305 25.4106C36.3099 25.9119 35.7141 27.263 35.6382 28.1087L36.4605 28.2107C36.6471 27.4292 36.7759 27.0577 36.9804 26.5352C37.2359 25.882 37.6792 25.157 38.2763 24.5207Z" fill="white"/>
<path fill-rule="evenodd" clip-rule="evenodd" d="M41.2139 24.8338C40.8326 24.7669 40.1832 24.7955 39.6915 25.37C39.359 25.7584 38.6953 26.8434 38.5371 27.5648L39.238 27.7703C39.4851 27.1202 39.6372 26.8169 39.8714 26.3935C40.1641 25.8643 40.6273 25.2998 41.2139 24.8338Z" fill="white"/>
<path fill-rule="evenodd" clip-rule="evenodd" d="M44.1352 25.1494C43.8054 25.0483 43.2316 25.0015 42.7502 25.4524C42.4246 25.7574 41.7484 26.6385 41.5478 27.2556L42.147 27.514C42.4196 26.9694 42.5793 26.7194 42.8214 26.3729C43.1239 25.9397 43.5794 25.4943 44.1352 25.1494Z" fill="white"/>
<path fill-rule="evenodd" clip-rule="evenodd" d="M46.9293 25.8912C46.6397 25.7335 46.1166 25.5784 45.6043 25.9012C45.2579 26.1195 44.5012 26.8017 44.2235 27.3328L44.7383 27.6884C45.0718 27.2383 45.2568 27.0385 45.5323 26.7655C45.8767 26.4243 46.3642 26.1016 46.9293 25.8912Z" fill="white"/>
<path fill-rule="evenodd" clip-rule="evenodd" d="M48.4811 26.9799C48.3165 26.8903 48.0191 26.8021 47.7279 26.9856C47.5309 27.1097 47.1007 27.4976 46.9428 27.7995L47.2355 28.0017C47.4251 27.7458 47.5303 27.6322 47.6869 27.477C47.8827 27.283 48.1599 27.0995 48.4811 26.9799Z" fill="white"/>
<circle cx="18.5914" cy="36.9926" r="2.95469" fill="black"/>
<circle cx="20.8217" cy="35.5252" r="1.31581" fill="white"/>
<path fill-rule="evenodd" clip-rule="evenodd" d="M24.7886 36.5411C22.1696 33.2993 16.0105 31.5961 11.2478 36.3588C10.9799 36.6267 10.9799 37.061 11.2478 37.3289C11.5157 37.5968 11.95 37.5968 12.2179 37.3289C14.2891 35.2578 16.7785 34.5803 19.0156 34.7522C21.246 34.9235 23.2373 35.9405 24.3153 37.275C24.4293 37.4161 24.5977 37.489 24.7653 37.5088C24.8485 37.5187 24.9269 37.5148 24.9915 37.5019C25.0476 37.4907 25.0852 37.4744 25.1062 37.4612C25.1085 37.4534 25.1127 37.4356 25.1138 37.4018C25.1157 37.3377 25.1046 37.2487 25.078 37.1446C25.0248 36.9358 24.9189 36.7024 24.7886 36.5411Z" fill="black"/>
<path d="M9.51449 28.5794C10.2273 27.2332 11.1699 26.1933 12.1681 25.2927C13.176 24.3793 14.4953 24.1649 15.7202 23.9469C17.2542 23.6725 18.8272 23.5256 20.4022 23.4777C21.2114 23.4531 22.0256 23.472 22.8439 23.5377C23.3388 23.5775 23.9449 23.548 24.4193 24.022C24.9546 24.5547 25.1193 25.548 25.3129 26.346C25.4745 27.0139 25.655 27.7078 25.5123 28.3304C25.204 29.6871 23.8406 29.6248 22.9644 29.4842C22.4729 29.4038 22.0144 29.2534 21.5793 29.1638C21.1967 29.0847 20.8161 29.0258 20.4347 28.9704C19.3665 28.8176 18.3006 28.7184 17.2399 28.6566C16.0263 28.5861 14.8166 28.5685 13.6196 28.6338C12.5384 28.6916 10.8141 28.9986 9.85254 29.344C9.46778 29.4803 9.34248 28.9046 9.51449 28.5794Z" fill="#D9D9D9" stroke="black" stroke-width="0.962896" stroke-miterlimit="10" stroke-linecap="round" stroke-linejoin="round"/>
<path fill-rule="evenodd" clip-rule="evenodd" d="M21.7237 24.5207C22.1647 24.516 22.8953 24.6692 23.3695 25.4106C23.6901 25.9119 24.2859 27.263 24.3618 28.1087L23.5395 28.2107C23.3529 27.4292 23.2241 27.0577 23.0196 26.5352C22.7641 25.882 22.3208 25.157 21.7237 24.5207Z" fill="white"/>
<path fill-rule="evenodd" clip-rule="evenodd" d="M18.7861 24.8338C19.1674 24.7669 19.8168 24.7955 20.3085 25.37C20.641 25.7584 21.3047 26.8434 21.4629 27.5648L20.762 27.7703C20.5149 27.1202 20.3628 26.8169 20.1286 26.3935C19.8359 25.8643 19.3727 25.2998 18.7861 24.8338Z" fill="white"/>
<path fill-rule="evenodd" clip-rule="evenodd" d="M15.8648 25.1494C16.1946 25.0483 16.7684 25.0015 17.2498 25.4524C17.5754 25.7574 18.2516 26.6385 18.4522 27.2556L17.853 27.514C17.5804 26.9694 17.4207 26.7194 17.1786 26.3729C16.8761 25.9397 16.4206 25.4943 15.8648 25.1494Z" fill="white"/>
<path fill-rule="evenodd" clip-rule="evenodd" d="M13.0707 25.8912C13.3603 25.7335 13.8834 25.5784 14.3957 25.9012C14.7421 26.1195 15.4988 26.8017 15.7765 27.3328L15.2617 27.6884C14.9282 27.2383 14.7432 27.0385 14.4677 26.7655C14.1233 26.4243 13.6358 26.1016 13.0707 25.8912Z" fill="white"/>
<path fill-rule="evenodd" clip-rule="evenodd" d="M11.5189 26.9799C11.6835 26.8903 11.9809 26.8021 12.2721 26.9856C12.4691 27.1097 12.8993 27.4976 13.0572 27.7995L12.7645 28.0017C12.5749 27.7458 12.4697 27.6322 12.3131 27.477C12.1173 27.283 11.8401 27.0995 11.5189 26.9799Z" fill="white"/>
</svg>
