<svg width="60" height="61" viewBox="0 0 60 61" fill="none" xmlns="http://www.w3.org/2000/svg">
<circle cx="30.0001" cy="30.6305" r="29.0001" fill="white" stroke="white" stroke-width="2"/>
<circle cx="2.95469" cy="2.95469" r="2.95469" transform="matrix(-1 0 0 1 44.3652 34.0381)" fill="black"/>
<circle cx="1.31581" cy="1.31581" r="1.31581" transform="matrix(-1 0 0 1 40.4961 34.2096)" fill="white"/>
<path fill-rule="evenodd" clip-rule="evenodd" d="M35.2134 36.5414C37.8323 33.2995 43.9915 31.5964 48.7542 36.3591C49.022 36.627 49.022 37.0613 48.7542 37.3292C48.4863 37.5971 48.052 37.5971 47.7841 37.3292C45.7129 35.258 43.2234 34.5805 40.9863 34.7524C38.756 34.9238 36.7647 35.9407 35.6866 37.2752C35.5726 37.4163 35.4042 37.4892 35.2367 37.5091C35.1535 37.519 35.075 37.5151 35.0104 37.5022C34.9543 37.491 34.9168 37.4747 34.8957 37.4614C34.8934 37.4537 34.8892 37.4358 34.8882 37.4021C34.8862 37.338 34.8974 37.2489 34.9239 37.1449C34.9772 36.936 35.0831 36.7027 35.2134 36.5414Z" fill="black"/>
<path d="M50.4855 28.5797C49.7727 27.2334 48.8301 26.1935 47.8319 25.2929C46.824 24.3796 45.5047 24.1652 44.2798 23.9471C42.7458 23.6728 41.1728 23.5258 39.5978 23.4779C38.7886 23.4533 37.9744 23.4722 37.1561 23.5379C36.6612 23.5777 36.0551 23.5482 35.5807 24.0222C35.0454 24.5549 34.8807 25.5483 34.6871 26.3462C34.5255 27.0141 34.345 27.7081 34.4877 28.3307C34.796 29.6874 36.1594 29.625 37.0356 29.4844C37.5271 29.404 37.9856 29.2537 38.4207 29.1641C38.8033 29.0849 39.1839 29.0261 39.5653 28.9706C40.6335 28.8179 41.6994 28.7187 42.7601 28.6569C43.9737 28.5863 45.1834 28.5687 46.3804 28.634C47.4616 28.6919 49.1859 28.9989 50.1475 29.3442C50.5322 29.4806 50.6575 28.9048 50.4855 28.5797Z" fill="#D9D9D9" stroke="black" stroke-width="0.962896" stroke-miterlimit="10" stroke-linecap="round" stroke-linejoin="round"/>
<path fill-rule="evenodd" clip-rule="evenodd" d="M38.2763 24.521C37.8353 24.5162 37.1047 24.6694 36.6305 25.4108C36.3099 25.9122 35.7141 27.2633 35.6382 28.1089L36.4605 28.211C36.6471 27.4294 36.7759 27.058 36.9804 26.5354C37.2359 25.8822 37.6792 25.1573 38.2763 24.521Z" fill="white"/>
<path fill-rule="evenodd" clip-rule="evenodd" d="M41.2139 24.8341C40.8326 24.7672 40.1832 24.7958 39.6915 25.3702C39.359 25.7586 38.6953 26.8437 38.5371 27.5651L39.238 27.7706C39.4851 27.1204 39.6372 26.8172 39.8714 26.3938C40.1641 25.8646 40.6273 25.3 41.2139 24.8341Z" fill="white"/>
<path fill-rule="evenodd" clip-rule="evenodd" d="M44.1352 25.1496C43.8054 25.0485 43.2316 25.0017 42.7502 25.4527C42.4246 25.7576 41.7484 26.6387 41.5478 27.2559L42.147 27.5143C42.4196 26.9697 42.5793 26.7197 42.8214 26.3731C43.1239 25.94 43.5794 25.4946 44.1352 25.1496Z" fill="white"/>
<path fill-rule="evenodd" clip-rule="evenodd" d="M46.9293 25.8914C46.6397 25.7337 46.1166 25.5787 45.6043 25.9015C45.2579 26.1197 44.5012 26.802 44.2235 27.3331L44.7383 27.6886C45.0718 27.2386 45.2568 27.0388 45.5323 26.7658C45.8767 26.4245 46.3642 26.1018 46.9293 25.8914Z" fill="white"/>
<path fill-rule="evenodd" clip-rule="evenodd" d="M48.4811 26.9802C48.3165 26.8905 48.0191 26.8024 47.7279 26.9859C47.5309 27.11 47.1007 27.4978 46.9428 27.7998L47.2355 28.0019C47.4251 27.7461 47.5303 27.6325 47.6869 27.4773C47.8827 27.2833 48.1599 27.0998 48.4811 26.9802Z" fill="white"/>
<circle cx="18.5914" cy="36.9928" r="2.95469" fill="black"/>
<circle cx="20.8217" cy="35.5254" r="1.31581" fill="white"/>
<path fill-rule="evenodd" clip-rule="evenodd" d="M24.7886 36.5414C22.1696 33.2995 16.0105 31.5964 11.2478 36.3591C10.9799 36.627 10.9799 37.0613 11.2478 37.3292C11.5157 37.5971 11.95 37.5971 12.2179 37.3292C14.2891 35.258 16.7785 34.5805 19.0156 34.7524C21.246 34.9238 23.2373 35.9407 24.3153 37.2752C24.4293 37.4163 24.5977 37.4892 24.7653 37.5091C24.8485 37.519 24.9269 37.5151 24.9915 37.5022C25.0476 37.491 25.0852 37.4747 25.1062 37.4614C25.1085 37.4537 25.1127 37.4358 25.1138 37.4021C25.1157 37.338 25.1046 37.2489 25.078 37.1449C25.0248 36.936 24.9189 36.7027 24.7886 36.5414Z" fill="black"/>
<path d="M9.51449 28.5797C10.2273 27.2334 11.1699 26.1935 12.1681 25.2929C13.176 24.3796 14.4953 24.1652 15.7202 23.9471C17.2542 23.6728 18.8272 23.5258 20.4022 23.4779C21.2114 23.4533 22.0256 23.4722 22.8439 23.5379C23.3388 23.5777 23.9449 23.5482 24.4193 24.0222C24.9546 24.5549 25.1193 25.5483 25.3129 26.3462C25.4745 27.0141 25.655 27.7081 25.5123 28.3307C25.204 29.6874 23.8406 29.625 22.9644 29.4844C22.4729 29.404 22.0144 29.2537 21.5793 29.1641C21.1967 29.0849 20.8161 29.0261 20.4347 28.9706C19.3665 28.8179 18.3006 28.7187 17.2399 28.6569C16.0263 28.5863 14.8166 28.5687 13.6196 28.634C12.5384 28.6919 10.8141 28.9989 9.85254 29.3442C9.46778 29.4806 9.34248 28.9048 9.51449 28.5797Z" fill="#D9D9D9" stroke="black" stroke-width="0.962896" stroke-miterlimit="10" stroke-linecap="round" stroke-linejoin="round"/>
<path fill-rule="evenodd" clip-rule="evenodd" d="M21.7237 24.521C22.1647 24.5162 22.8953 24.6694 23.3695 25.4108C23.6901 25.9122 24.2859 27.2633 24.3618 28.1089L23.5395 28.211C23.3529 27.4294 23.2241 27.058 23.0196 26.5354C22.7641 25.8822 22.3208 25.1573 21.7237 24.521Z" fill="white"/>
<path fill-rule="evenodd" clip-rule="evenodd" d="M18.7861 24.8341C19.1674 24.7672 19.8168 24.7958 20.3085 25.3702C20.641 25.7586 21.3047 26.8437 21.4629 27.5651L20.762 27.7706C20.5149 27.1204 20.3628 26.8172 20.1286 26.3938C19.8359 25.8646 19.3727 25.3 18.7861 24.8341Z" fill="white"/>
<path fill-rule="evenodd" clip-rule="evenodd" d="M15.8648 25.1496C16.1946 25.0485 16.7684 25.0017 17.2498 25.4527C17.5754 25.7576 18.2516 26.6387 18.4522 27.2559L17.853 27.5143C17.5804 26.9697 17.4207 26.7197 17.1786 26.3731C16.8761 25.94 16.4206 25.4946 15.8648 25.1496Z" fill="white"/>
<path fill-rule="evenodd" clip-rule="evenodd" d="M13.0707 25.8914C13.3603 25.7337 13.8834 25.5787 14.3957 25.9015C14.7421 26.1197 15.4988 26.802 15.7765 27.3331L15.2617 27.6886C14.9282 27.2386 14.7432 27.0388 14.4677 26.7658C14.1233 26.4245 13.6358 26.1018 13.0707 25.8914Z" fill="white"/>
<path fill-rule="evenodd" clip-rule="evenodd" d="M11.5189 26.9802C11.6835 26.8905 11.9809 26.8024 12.2721 26.9859C12.4691 27.11 12.8993 27.4978 13.0572 27.7998L12.7645 28.0019C12.5749 27.7461 12.4697 27.6325 12.3131 27.4773C12.1173 27.2833 11.8401 27.0998 11.5189 26.9802Z" fill="white"/>
<path d="M17.7594 16.0031V16.0031C14.1198 15.5211 10.5295 17.1862 8.54636 20.2759L8.2803 20.6904" stroke="black" stroke-miterlimit="10" stroke-linecap="round" stroke-linejoin="round"/>
<path d="M7.24049 18.5852L7.6653 21.3622L10.4551 21.6927" stroke="black" stroke-miterlimit="10" stroke-linecap="round" stroke-linejoin="round"/>
<path d="M16.3687 13.9926L18.3547 15.9796L16.9688 18.4232" stroke="black" stroke-miterlimit="10" stroke-linecap="round" stroke-linejoin="round"/>
<path d="M42.2406 16.0031V16.0031C45.8802 15.5211 49.4705 17.1862 51.4536 20.2759L51.7197 20.6904" stroke="black" stroke-miterlimit="10" stroke-linecap="round" stroke-linejoin="round"/>
<path d="M52.7595 18.5852L52.3347 21.3622L49.5449 21.6927" stroke="black" stroke-miterlimit="10" stroke-linecap="round" stroke-linejoin="round"/>
<path d="M43.6313 13.9926L41.6453 15.9796L43.0312 18.4232" stroke="black" stroke-miterlimit="10" stroke-linecap="round" stroke-linejoin="round"/>
</svg>
