<svg width="60" height="61" viewBox="0 0 60 61" fill="none" xmlns="http://www.w3.org/2000/svg">
<circle cx="30.0001" cy="30.6304" r="29.0001" fill="white" stroke="white" stroke-width="2"/>
<path d="M30 19.2216L30 33.2216" stroke="black" stroke-miterlimit="10" stroke-linecap="round" stroke-linejoin="round"/>
<path d="M32.1004 21.4207L30.0004 19.2215L27.9004 21.4207" stroke="black" stroke-miterlimit="10" stroke-linecap="round" stroke-linejoin="round"/>
<path d="M32.1004 31.0225L30.0004 33.2216L27.9004 31.0225" stroke="black" stroke-miterlimit="10" stroke-linecap="round" stroke-linejoin="round"/>
<circle cx="2.95469" cy="2.95469" r="2.95469" transform="matrix(-1 0 0 1 44.3652 34.038)" fill="black"/>
<circle cx="1.31581" cy="1.31581" r="1.31581" transform="matrix(-1 0 0 1 40.4961 34.2095)" fill="white"/>
<path fill-rule="evenodd" clip-rule="evenodd" d="M35.2134 36.5412C37.8323 33.2994 43.9915 31.5962 48.7542 36.359C49.022 36.6268 49.022 37.0612 48.7542 37.3291C48.4863 37.5969 48.052 37.5969 47.7841 37.3291C45.7129 35.2579 43.2234 34.5804 40.9863 34.7523C38.756 34.9237 36.7647 35.9406 35.6866 37.2751C35.5726 37.4162 35.4042 37.4891 35.2367 37.509C35.1535 37.5188 35.075 37.515 35.0104 37.5021C34.9543 37.4909 34.9168 37.4745 34.8957 37.4613C34.8934 37.4535 34.8892 37.4357 34.8882 37.4019C34.8862 37.3378 34.8974 37.2488 34.9239 37.1447C34.9772 36.9359 35.0831 36.7025 35.2134 36.5412Z" fill="black"/>
<path d="M50.4855 28.5796C49.7727 27.2333 48.8301 26.1934 47.8319 25.2928C46.824 24.3794 45.5047 24.1651 44.2798 23.947C42.7458 23.6726 41.1728 23.5257 39.5978 23.4778C38.7886 23.4532 37.9744 23.4721 37.1561 23.5378C36.6612 23.5776 36.0551 23.5481 35.5807 24.0221C35.0454 24.5548 34.8807 25.5482 34.6871 26.3461C34.5255 27.014 34.345 27.708 34.4877 28.3306C34.796 29.6872 36.1594 29.6249 37.0356 29.4843C37.5271 29.4039 37.9856 29.2535 38.4207 29.164C38.8033 29.0848 39.1839 29.026 39.5653 28.9705C40.6335 28.8177 41.6994 28.7186 42.7601 28.6568C43.9737 28.5862 45.1834 28.5686 46.3804 28.6339C47.4616 28.6917 49.1859 28.9987 50.1475 29.3441C50.5322 29.4804 50.6575 28.9047 50.4855 28.5796Z" fill="#D9D9D9" stroke="black" stroke-width="0.962896" stroke-miterlimit="10" stroke-linecap="round" stroke-linejoin="round"/>
<path fill-rule="evenodd" clip-rule="evenodd" d="M38.2763 24.5208C37.8353 24.5161 37.1047 24.6693 36.6305 25.4107C36.3099 25.9121 35.7141 27.2631 35.6382 28.1088L36.4605 28.2109C36.6471 27.4293 36.7759 27.0579 36.9804 26.5353C37.2359 25.8821 37.6792 25.1572 38.2763 24.5208Z" fill="white"/>
<path fill-rule="evenodd" clip-rule="evenodd" d="M41.2139 24.834C40.8326 24.7671 40.1832 24.7956 39.6915 25.3701C39.359 25.7585 38.6953 26.8435 38.5371 27.565L39.238 27.7705C39.4851 27.1203 39.6372 26.817 39.8714 26.3937C40.1641 25.8645 40.6273 25.2999 41.2139 24.834Z" fill="white"/>
<path fill-rule="evenodd" clip-rule="evenodd" d="M44.1352 25.1495C43.8054 25.0484 43.2316 25.0016 42.7502 25.4526C42.4246 25.7575 41.7484 26.6386 41.5478 27.2558L42.147 27.5142C42.4196 26.9695 42.5793 26.7196 42.8214 26.373C43.1239 25.9398 43.5794 25.4944 44.1352 25.1495Z" fill="white"/>
<path fill-rule="evenodd" clip-rule="evenodd" d="M46.9293 25.8913C46.6397 25.7336 46.1166 25.5786 45.6043 25.9013C45.2579 26.1196 44.5012 26.8018 44.2235 27.333L44.7383 27.6885C45.0718 27.2385 45.2568 27.0386 45.5323 26.7656C45.8767 26.4244 46.3642 26.1017 46.9293 25.8913Z" fill="white"/>
<path fill-rule="evenodd" clip-rule="evenodd" d="M48.4811 26.9801C48.3165 26.8904 48.0191 26.8023 47.7279 26.9858C47.5309 27.1099 47.1007 27.4977 46.9428 27.7997L47.2355 28.0018C47.4251 27.7459 47.5303 27.6323 47.6869 27.4771C47.8827 27.2831 48.1599 27.0997 48.4811 26.9801Z" fill="white"/>
<circle cx="18.5914" cy="36.9927" r="2.95469" fill="black"/>
<circle cx="20.8217" cy="35.5253" r="1.31581" fill="white"/>
<path fill-rule="evenodd" clip-rule="evenodd" d="M24.7886 36.5412C22.1696 33.2994 16.0105 31.5962 11.2478 36.359C10.9799 36.6268 10.9799 37.0612 11.2478 37.3291C11.5157 37.5969 11.95 37.5969 12.2179 37.3291C14.2891 35.2579 16.7785 34.5804 19.0156 34.7523C21.246 34.9237 23.2373 35.9406 24.3153 37.2751C24.4293 37.4162 24.5977 37.4891 24.7653 37.509C24.8485 37.5188 24.9269 37.515 24.9915 37.5021C25.0476 37.4909 25.0852 37.4745 25.1062 37.4613C25.1085 37.4535 25.1127 37.4357 25.1138 37.4019C25.1157 37.3378 25.1046 37.2488 25.078 37.1447C25.0248 36.9359 24.9189 36.7025 24.7886 36.5412Z" fill="black"/>
<path d="M9.51449 28.5796C10.2273 27.2333 11.1699 26.1934 12.1681 25.2928C13.176 24.3794 14.4953 24.1651 15.7202 23.947C17.2542 23.6726 18.8272 23.5257 20.4022 23.4778C21.2114 23.4532 22.0256 23.4721 22.8439 23.5378C23.3388 23.5776 23.9449 23.5481 24.4193 24.0221C24.9546 24.5548 25.1193 25.5482 25.3129 26.3461C25.4745 27.014 25.655 27.708 25.5123 28.3306C25.204 29.6872 23.8406 29.6249 22.9644 29.4843C22.4729 29.4039 22.0144 29.2535 21.5793 29.164C21.1967 29.0848 20.8161 29.026 20.4347 28.9705C19.3665 28.8177 18.3006 28.7186 17.2399 28.6568C16.0263 28.5862 14.8166 28.5686 13.6196 28.6339C12.5384 28.6917 10.8141 28.9987 9.85254 29.3441C9.46778 29.4804 9.34248 28.9047 9.51449 28.5796Z" fill="#D9D9D9" stroke="black" stroke-width="0.962896" stroke-miterlimit="10" stroke-linecap="round" stroke-linejoin="round"/>
<path fill-rule="evenodd" clip-rule="evenodd" d="M21.7237 24.5208C22.1647 24.5161 22.8953 24.6693 23.3695 25.4107C23.6901 25.9121 24.2859 27.2631 24.3618 28.1088L23.5395 28.2109C23.3529 27.4293 23.2241 27.0579 23.0196 26.5353C22.7641 25.8821 22.3208 25.1572 21.7237 24.5208Z" fill="white"/>
<path fill-rule="evenodd" clip-rule="evenodd" d="M18.7861 24.834C19.1674 24.7671 19.8168 24.7956 20.3085 25.3701C20.641 25.7585 21.3047 26.8435 21.4629 27.565L20.762 27.7705C20.5149 27.1203 20.3628 26.817 20.1286 26.3937C19.8359 25.8645 19.3727 25.2999 18.7861 24.834Z" fill="white"/>
<path fill-rule="evenodd" clip-rule="evenodd" d="M15.8648 25.1495C16.1946 25.0484 16.7684 25.0016 17.2498 25.4526C17.5754 25.7575 18.2516 26.6386 18.4522 27.2558L17.853 27.5142C17.5804 26.9695 17.4207 26.7196 17.1786 26.373C16.8761 25.9398 16.4206 25.4944 15.8648 25.1495Z" fill="white"/>
<path fill-rule="evenodd" clip-rule="evenodd" d="M13.0707 25.8913C13.3603 25.7336 13.8834 25.5786 14.3957 25.9013C14.7421 26.1196 15.4988 26.8018 15.7765 27.333L15.2617 27.6885C14.9282 27.2385 14.7432 27.0386 14.4677 26.7656C14.1233 26.4244 13.6358 26.1017 13.0707 25.8913Z" fill="white"/>
<path fill-rule="evenodd" clip-rule="evenodd" d="M11.5189 26.9801C11.6835 26.8904 11.9809 26.8023 12.2721 26.9858C12.4691 27.1099 12.8993 27.4977 13.0572 27.7997L12.7645 28.0018C12.5749 27.7459 12.4697 27.6323 12.3131 27.4771C12.1173 27.2831 11.8401 27.0997 11.5189 26.9801Z" fill="white"/>
</svg>
