<svg width="60" height="61" viewBox="0 0 60 61" fill="none" xmlns="http://www.w3.org/2000/svg">
<circle cx="30.0001" cy="30.6313" r="29.0001" fill="white" stroke="white" stroke-width="2"/>
<path d="M46.9736 29.5269C47.1416 29.7738 47.1499 30.0811 46.9944 30.336C45.7841 32.3209 40.8408 40.8083 30.4903 40.8083C20.1767 40.8083 14.6275 32.7993 13.3111 30.7753C13.139 30.5107 13.1473 30.1805 13.3318 29.9244C14.7702 27.9284 20.8888 19.4591 30.4903 19.4591C40.1244 19.4591 45.6414 27.5684 46.9736 29.5269Z" fill="white"/>
<path fill-rule="evenodd" clip-rule="evenodd" d="M46.4168 29.0871C45.747 28.1092 44.6356 26.75 41.8121 24.4824C38.9411 22.1765 35.0706 20.2962 30.5093 20.2962C25.9606 20.2962 22.0699 21.8847 19.107 24.1862C16.1927 26.4499 14.0541 29.3468 13.3318 30.3429C14.6934 32.4204 20.7405 39.971 30.5093 39.971C40.2977 39.971 46.4168 30.7615 46.4168 29.0871ZM46.8354 31.1802C46.9909 30.9252 48.2388 28.4968 48.0708 28.2499C47.2336 27.8313 42.2102 19.0404 30.5093 19.0404C20.9078 19.0404 14.0574 27.9039 12.6189 29.8999C12.4344 30.156 12.4261 30.4862 12.5982 30.7509C13.9146 32.7748 20.1957 40.8082 30.5093 40.8082C40.8599 40.8082 45.6251 33.165 46.8354 31.1802Z" fill="black"/>
<mask id="mask0_1676_5528" style="mask-type:alpha" maskUnits="userSpaceOnUse" x="21" y="20" width="20" height="20">
<circle cx="30.9135" cy="29.9246" r="9.1498" fill="#CAC9C9" stroke="black" stroke-width="0.907005"/>
</mask>
<g mask="url(#mask0_1676_5528)">
<rect width="7.57326" height="22.228" transform="matrix(-0.64985 -0.760062 -0.763491 0.645818 36.0371 20.3076)" fill="white"/>
</g>
<circle cx="30.9135" cy="29.9246" r="9.1498" fill="#CAC9C9" stroke="black" stroke-width="0.907005"/>
<circle cx="30.9135" cy="29.9245" r="2.58149" fill="black"/>
<circle cx="32.8528" cy="28.0605" r="1.14383" fill="white"/>
<path fill-rule="evenodd" clip-rule="evenodd" d="M14.7765 28.5458C14.6506 28.7103 14.5291 28.882 14.4159 29.0546C14.2067 29.3737 14.0377 29.6781 13.9301 29.9202C13.876 30.042 13.8418 30.1384 13.8243 30.2071C13.8189 30.2282 13.816 30.2434 13.8144 30.2535C13.8681 30.405 14.0232 30.6462 14.2968 30.9807C14.3682 31.0681 14.4447 31.1582 14.5253 31.251C14.4143 30.261 14.5636 29.3137 14.7765 28.5458ZM16.261 26.1582C16.261 26.1582 17.1291 25.3208 16.0965 27.4103C15.7207 28.1712 14.9711 31.157 15.6411 33.09C15.7447 33.389 15.5507 33.613 15.4217 33.6962C15.2934 33.779 14.9317 32.9422 14.7036 32.6947C14.6845 32.6738 14.6653 32.653 14.6461 32.6322C14.2884 32.2441 13.9333 31.8588 13.6487 31.5108C13.3614 31.1594 13.0939 30.7862 12.9988 30.4504C12.952 30.2849 12.9842 30.1135 13.0129 30.0006C13.0462 29.8699 13.1 29.7265 13.165 29.5803C13.2956 29.2862 13.4889 28.9415 13.7157 28.5956C14.1613 27.916 14.7839 27.1593 15.3889 26.7702C15.5966 26.6366 16.261 26.1582 16.261 26.1582Z" fill="black"/>
<circle cx="30.9135" cy="29.9246" r="9.1498" stroke="black" stroke-width="0.907005"/>
<path d="M17.8319 33.6241C16.5787 33.3581 15.4976 33.1015 14.6474 32.8881C15.4341 33.7392 16.5513 34.8285 17.9619 35.904C20.9638 38.1927 25.25 40.3868 30.4887 40.1536C34.4597 39.9768 38.4375 38.123 41.4659 35.743C42.9761 34.5561 44.2304 33.2534 45.1181 31.9919C45.6294 31.2653 46.0068 30.5699 46.2474 29.9313C45.1272 30.6755 43.3962 31.7309 41.2813 32.709C38.0921 34.1838 33.9755 35.5083 29.7391 35.2767C25.2937 35.0336 21.0046 34.2974 17.8319 33.6241Z" fill="white" stroke="black" stroke-width="1.34491" stroke-linejoin="round"/>
<path d="M30.1289 44.351L30.1289 52.1957" stroke="black" stroke-miterlimit="10" stroke-linecap="round" stroke-linejoin="round"/>
<path d="M32.1395 46.1741L30.0395 43.9749L27.9395 46.1741" stroke="black" stroke-miterlimit="10" stroke-linecap="round" stroke-linejoin="round"/>
<path d="M32.1395 51.0961L30.0395 53.2952L27.9395 51.0961" stroke="black" stroke-miterlimit="10" stroke-linecap="round" stroke-linejoin="round"/>
</svg>
