<svg width="60" height="61" viewBox="0 0 60 61" fill="none" xmlns="http://www.w3.org/2000/svg">
<circle cx="30.0001" cy="30.631" r="29.0001" fill="white" stroke="white" stroke-width="2"/>
<circle cx="2.95469" cy="2.95469" r="2.95469" transform="matrix(-1 0 0 1 44.3652 27.9915)" fill="black"/>
<circle cx="1.31581" cy="1.31581" r="1.31581" transform="matrix(-1 0 0 1 40.4961 28.163)" fill="white"/>
<path fill-rule="evenodd" clip-rule="evenodd" d="M35.2134 30.4947C37.8323 27.2529 43.9915 25.5497 48.7542 30.3125C49.022 30.5803 49.022 31.0147 48.7542 31.2825C48.4863 31.5504 48.052 31.5504 47.7841 31.2825C45.7129 29.2114 43.2234 28.5339 40.9863 28.7058C38.756 28.8772 36.7647 29.8941 35.6866 31.2286C35.5726 31.3697 35.4042 31.4426 35.2367 31.4625C35.1535 31.4723 35.075 31.4684 35.0104 31.4555C34.9543 31.4443 34.9168 31.428 34.8957 31.4148C34.8934 31.407 34.8892 31.3892 34.8882 31.3554C34.8862 31.2913 34.8974 31.2023 34.9239 31.0982C34.9772 30.8894 35.0831 30.656 35.2134 30.4947Z" fill="black"/>
<circle cx="18.5914" cy="30.9461" r="2.95469" fill="black"/>
<circle cx="20.8217" cy="29.4788" r="1.31581" fill="white"/>
<path fill-rule="evenodd" clip-rule="evenodd" d="M24.7886 30.4947C22.1696 27.2529 16.0105 25.5497 11.2478 30.3125C10.9799 30.5803 10.9799 31.0147 11.2478 31.2825C11.5157 31.5504 11.95 31.5504 12.2179 31.2825C14.2891 29.2114 16.7785 28.5339 19.0156 28.7058C21.246 28.8772 23.2373 29.8941 24.3153 31.2286C24.4293 31.3697 24.5977 31.4426 24.7653 31.4625C24.8485 31.4723 24.9269 31.4684 24.9915 31.4555C25.0476 31.4443 25.0852 31.428 25.1062 31.4148C25.1085 31.407 25.1127 31.3892 25.1138 31.3554C25.1157 31.2913 25.1046 31.2023 25.078 31.0982C25.0248 30.8894 24.9189 30.656 24.7886 30.4947Z" fill="black"/>
<path d="M23 21.5255L37 21.5255" stroke="black" stroke-miterlimit="10" stroke-linecap="round" stroke-linejoin="round"/>
<path d="M25.1992 19.4255L23.0001 21.5255L25.1992 23.6255" stroke="black" stroke-miterlimit="10" stroke-linecap="round" stroke-linejoin="round"/>
<path d="M34.8008 19.4255L36.9999 21.5255L34.8008 23.6255" stroke="black" stroke-miterlimit="10" stroke-linecap="round" stroke-linejoin="round"/>
</svg>
