<svg width="61" height="61" viewBox="0 0 61 61" fill="none" xmlns="http://www.w3.org/2000/svg">
<circle cx="30.0313" cy="30.6308" r="29.0001" fill="white" stroke="white" stroke-width="2"/>
<path d="M46.6463 30.241C46.8108 30.4827 46.8188 30.7836 46.6666 31.0332C45.4816 32.9766 40.6417 41.2866 30.5075 41.2866C20.4095 41.2866 14.9763 33.445 13.6874 31.4634C13.5189 31.2043 13.527 30.881 13.7077 30.6302C15.1161 28.6759 21.1067 20.3837 30.5075 20.3837C39.9403 20.3837 45.342 28.3235 46.6463 30.241Z" fill="white"/>
<path fill-rule="evenodd" clip-rule="evenodd" d="M46.1058 29.8107C45.45 28.8532 44.3617 27.5225 41.5973 25.3022C38.7863 23.0446 34.9967 21.2036 30.5307 21.2036C26.0771 21.2036 22.2678 22.7589 19.3668 25.0122C16.5134 27.2286 14.4195 30.0649 13.7123 31.0403C15.0455 33.0743 20.9661 40.4671 30.5307 40.4671C40.1145 40.4671 46.1058 31.4501 46.1058 29.8107ZM46.5156 31.86C46.6678 31.6104 47.8896 29.2327 47.7252 28.991C46.9055 28.5811 41.9871 19.974 30.5307 19.974C21.13 19.974 14.4227 28.6522 13.0144 30.6065C12.8337 30.8573 12.8256 31.1806 12.9941 31.4397C14.283 33.4213 20.4328 41.2868 30.5307 41.2868C40.665 41.2868 45.3306 33.8034 46.5156 31.86Z" fill="black"/>
<mask id="mask0_1676_5360" style="mask-type:alpha" maskUnits="userSpaceOnUse" x="21" y="21" width="20" height="20">
<circle cx="30.9253" cy="30.6308" r="8.95854" fill="#CAC9C9" stroke="black" stroke-width="0.888046"/>
</mask>
<g mask="url(#mask0_1676_5360)">
<rect width="7.41496" height="21.7633" transform="matrix(-0.64985 -0.760062 -0.763491 0.645818 35.9414 21.2151)" fill="white"/>
</g>
<circle cx="30.9234" cy="30.6304" r="8.95854" fill="#CAC9C9" stroke="black" stroke-width="0.888046"/>
<circle cx="30.926" cy="30.6307" r="2.52753" fill="black"/>
<circle cx="32.825" cy="28.8055" r="1.11992" fill="white"/>
<path fill-rule="evenodd" clip-rule="evenodd" d="M15.126 29.281C15.0027 29.4421 14.8837 29.6102 14.7729 29.7792C14.5681 30.0916 14.4026 30.3896 14.2973 30.6266C14.2443 30.7459 14.2108 30.8403 14.1937 30.9076C14.1884 30.9282 14.1855 30.9431 14.184 30.953C14.2365 31.1013 14.3884 31.3375 14.6563 31.665C14.7262 31.7505 14.8011 31.8388 14.88 31.9296C14.7713 30.9603 14.9176 30.0329 15.126 29.281ZM16.5795 26.9433C16.5795 26.9433 17.4294 26.1234 16.4184 28.1693C16.0505 28.9142 15.3166 31.8376 15.9725 33.7302C16.074 34.0229 15.884 34.2423 15.7577 34.3238C15.6321 34.4048 15.2779 33.5855 15.0546 33.3431C15.0359 33.3228 15.0171 33.3024 14.9983 33.282C14.6481 32.902 14.3004 32.5247 14.0218 32.184C13.7404 31.84 13.4786 31.4746 13.3855 31.1458C13.3396 30.9837 13.3711 30.8159 13.3993 30.7054C13.4318 30.5774 13.4846 30.437 13.5482 30.2938C13.6761 30.006 13.8653 29.6685 14.0874 29.3297C14.5236 28.6644 15.1332 27.9235 15.7255 27.5425C15.929 27.4117 16.5795 26.9433 16.5795 26.9433Z" fill="black"/>
<circle cx="30.9234" cy="30.6304" r="8.95854" stroke="black" stroke-width="0.888046"/>
<path d="M20.2715 19.2941L15.3281 13.0042" stroke="black" stroke-miterlimit="10" stroke-linecap="round" stroke-linejoin="round"/>
<path d="M14.5628 15.6583L15.2692 12.9393L18.0781 12.8955" stroke="black" stroke-miterlimit="10" stroke-linecap="round" stroke-linejoin="round"/>
<path d="M41.5801 19.2937L46.5235 13.0038" stroke="black" stroke-miterlimit="10" stroke-linecap="round" stroke-linejoin="round"/>
<path d="M47.2888 15.6579L46.5824 12.9389L43.7734 12.8951" stroke="black" stroke-miterlimit="10" stroke-linecap="round" stroke-linejoin="round"/>
<path d="M20.2695 41.9675L15.3261 48.2574" stroke="black" stroke-miterlimit="10" stroke-linecap="round" stroke-linejoin="round"/>
<path d="M14.5608 45.6033L15.2672 48.3223L18.0762 48.3661" stroke="black" stroke-miterlimit="10" stroke-linecap="round" stroke-linejoin="round"/>
<path d="M41.5781 41.9672L46.5215 48.2571" stroke="black" stroke-miterlimit="10" stroke-linecap="round" stroke-linejoin="round"/>
<path d="M47.2868 45.6029L46.5804 48.322L43.7715 48.3657" stroke="black" stroke-miterlimit="10" stroke-linecap="round" stroke-linejoin="round"/>
</svg>
