<svg width="60" height="61" viewBox="0 0 60 61" fill="none" xmlns="http://www.w3.org/2000/svg">
<circle cx="30.0001" cy="30.6312" r="29.0001" fill="white" stroke="white" stroke-width="2"/>
<path d="M46.9717 29.5267C47.1397 29.7736 47.1479 30.0809 46.9924 30.3359C45.7821 32.3207 40.8389 40.8081 30.4883 40.8081C20.1748 40.8081 14.6256 32.7991 13.3092 30.7752C13.1371 30.5105 13.1453 30.1803 13.3299 29.9242C14.7683 27.9282 20.8868 19.4589 30.4883 19.4589C40.1225 19.4589 45.6395 27.5683 46.9717 29.5267Z" fill="white"/>
<path fill-rule="evenodd" clip-rule="evenodd" d="M46.4149 29.0869C45.7451 28.109 44.6336 26.7498 41.8101 24.4822C38.9392 22.1764 35.0686 20.2961 30.5073 20.2961C25.9586 20.2961 22.068 21.8846 19.1051 24.186C16.1908 26.4497 14.0522 29.3466 13.3298 30.3428C14.6915 32.4202 20.7385 39.9708 30.5073 39.9708C40.2957 39.9708 46.4149 30.7614 46.4149 29.0869ZM46.8335 31.18C46.989 30.925 48.2368 28.4966 48.0689 28.2497C47.2317 27.8311 42.2083 19.0402 30.5073 19.0402C20.9058 19.0402 14.0554 27.9037 12.617 29.8998C12.4324 30.1559 12.4242 30.4861 12.5963 30.7507C13.9127 32.7747 20.1938 40.8081 30.5073 40.8081C40.8579 40.8081 45.6232 33.1648 46.8335 31.18Z" fill="black"/>
<mask id="mask0_1676_5527" style="mask-type:alpha" maskUnits="userSpaceOnUse" x="21" y="20" width="20" height="20">
<circle cx="30.9115" cy="29.9244" r="9.1498" fill="#CAC9C9" stroke="black" stroke-width="0.907005"/>
</mask>
<g mask="url(#mask0_1676_5527)">
<rect width="7.57326" height="22.228" transform="matrix(-0.64985 -0.760062 -0.763491 0.645818 36.0352 20.3074)" fill="white"/>
</g>
<circle cx="30.9115" cy="29.9244" r="9.1498" fill="#CAC9C9" stroke="black" stroke-width="0.907005"/>
<circle cx="30.9116" cy="29.9243" r="2.58149" fill="black"/>
<circle cx="32.8509" cy="28.0603" r="1.14383" fill="white"/>
<path fill-rule="evenodd" clip-rule="evenodd" d="M14.7745 28.5456C14.6486 28.7101 14.5271 28.8818 14.414 29.0544C14.2047 29.3735 14.0357 29.6779 13.9282 29.92C13.8741 30.0418 13.8398 30.1382 13.8223 30.2069C13.817 30.228 13.814 30.2432 13.8124 30.2533C13.8661 30.4048 14.0213 30.646 14.2949 30.9806C14.3663 31.0679 14.4427 31.158 14.5233 31.2508C14.4123 30.2608 14.5617 29.3136 14.7745 28.5456ZM16.2591 26.158C16.2591 26.158 17.1271 25.3206 16.0946 27.4102C15.7188 28.171 14.9692 31.1568 15.6392 33.0899C15.7428 33.3888 15.5488 33.6128 15.4198 33.696C15.2915 33.7788 14.9297 32.942 14.7017 32.6945C14.6825 32.6737 14.6633 32.6529 14.6442 32.6321C14.2864 32.2439 13.9314 31.8586 13.6468 31.5106C13.3594 31.1592 13.092 30.7861 12.9969 30.4502C12.95 30.2847 12.9823 30.1133 13.011 30.0004C13.0442 29.8697 13.0981 29.7263 13.1631 29.5801C13.2937 29.2861 13.487 28.9413 13.7138 28.5954C14.1593 27.9158 14.7819 27.1591 15.3869 26.77C15.5947 26.6364 16.2591 26.158 16.2591 26.158Z" fill="black"/>
<circle cx="30.9115" cy="29.9244" r="9.1498" stroke="black" stroke-width="0.907005"/>
<path d="M30.3948 19.6522C23.8244 19.905 17.7575 24.2662 14.4213 28.9058C17.4673 27.4775 23.3281 25.2306 29.8423 25.3671C34.4703 25.4641 39.0056 26.0285 42.3788 26.5671C43.9503 26.818 45.2723 27.0637 46.2374 27.2549C46.2207 27.2346 46.2038 27.2142 46.1867 27.1935C45.4578 26.3143 44.3697 25.1447 42.9375 23.989C40.0729 21.6774 35.8601 19.4419 30.3948 19.6522Z" fill="#D9D9D9" stroke="black" stroke-width="1.34491" stroke-linejoin="round"/>
<path d="M17.8299 34.3709C16.5767 34.105 15.4956 33.8483 14.6455 33.635C15.4321 34.486 16.5493 35.5753 17.96 36.6508C20.9618 38.9396 25.2481 41.1336 30.4868 40.9004C34.4578 40.7236 38.4356 38.8698 41.4639 36.4898C42.9742 35.3029 44.2285 34.0003 45.1162 32.7387C45.6275 32.0121 46.0049 31.3167 46.2455 30.6781C45.1253 31.4224 43.3942 32.4778 41.2793 33.4558C38.0902 34.9306 33.9736 36.2551 29.7372 36.0235C25.2917 35.7804 21.0026 35.0443 17.8299 34.3709Z" fill="#D9D9D9" stroke="black" stroke-width="1.34491" stroke-linejoin="round"/>
</svg>
