<svg width="60" height="61" viewBox="0 0 60 61" fill="none" xmlns="http://www.w3.org/2000/svg">
<circle cx="30.0001" cy="30.6309" r="29.0001" fill="white" stroke="white" stroke-width="2"/>
<path d="M30 23.631L30 37.631" stroke="black" stroke-miterlimit="10" stroke-linecap="round" stroke-linejoin="round"/>
<path d="M32.1004 25.8301L30.0004 23.6309L27.9004 25.8301" stroke="black" stroke-miterlimit="10" stroke-linecap="round" stroke-linejoin="round"/>
<path d="M32.1004 35.4319L30.0004 37.631L27.9004 35.4319" stroke="black" stroke-miterlimit="10" stroke-linecap="round" stroke-linejoin="round"/>
<circle cx="2.95469" cy="2.95469" r="2.95469" transform="matrix(-1 0 0 1 44.3652 27.9913)" fill="black"/>
<circle cx="1.31581" cy="1.31581" r="1.31581" transform="matrix(-1 0 0 1 40.4961 28.1628)" fill="white"/>
<path fill-rule="evenodd" clip-rule="evenodd" d="M35.2134 30.4946C37.8323 27.2528 43.9915 25.5496 48.7542 30.3123C49.022 30.5802 49.022 31.0145 48.7542 31.2824C48.4863 31.5503 48.052 31.5503 47.7841 31.2824C45.7129 29.2113 43.2234 28.5338 40.9863 28.7057C38.756 28.877 36.7647 29.894 35.6866 31.2284C35.5726 31.3695 35.4042 31.4424 35.2367 31.4623C35.1535 31.4722 35.075 31.4683 35.0104 31.4554C34.9543 31.4442 34.9168 31.4279 34.8957 31.4147C34.8934 31.4069 34.8892 31.3891 34.8882 31.3553C34.8862 31.2912 34.8974 31.2022 34.9239 31.0981C34.9772 30.8893 35.0831 30.6559 35.2134 30.4946Z" fill="black"/>
<circle cx="18.5914" cy="30.946" r="2.95469" fill="black"/>
<circle cx="20.8217" cy="29.4787" r="1.31581" fill="white"/>
<path fill-rule="evenodd" clip-rule="evenodd" d="M24.7886 30.4946C22.1696 27.2528 16.0105 25.5496 11.2478 30.3123C10.9799 30.5802 10.9799 31.0145 11.2478 31.2824C11.5157 31.5503 11.95 31.5503 12.2179 31.2824C14.2891 29.2113 16.7785 28.5338 19.0156 28.7057C21.246 28.877 23.2373 29.894 24.3153 31.2284C24.4293 31.3695 24.5977 31.4424 24.7653 31.4623C24.8485 31.4722 24.9269 31.4683 24.9915 31.4554C25.0476 31.4442 25.0852 31.4279 25.1062 31.4147C25.1085 31.4069 25.1127 31.3891 25.1138 31.3553C25.1157 31.2912 25.1046 31.2022 25.078 31.0981C25.0248 30.8893 24.9189 30.6559 24.7886 30.4946Z" fill="black"/>
</svg>
