<svg width="60" height="60" viewBox="0 0 60 60" fill="none" xmlns="http://www.w3.org/2000/svg">
<circle cx="30.0001" cy="30.0001" r="29.0001" fill="white" stroke="white" stroke-width="2"/>
<path d="M48.4053 32.4386C48.5904 32.1664 48.5995 31.8276 48.4281 31.5465C47.0937 29.3581 41.6437 20.0005 30.2318 20.0005C18.8609 20.0005 12.7427 28.8307 11.2913 31.0622C11.1016 31.3539 11.1107 31.718 11.3141 32.0003C12.9001 34.201 19.6459 43.5386 30.2318 43.5386C40.8538 43.5386 46.9365 34.5978 48.4053 32.4386Z" fill="white"/>
<path fill-rule="evenodd" clip-rule="evenodd" d="M47.7924 32.9237C47.0539 34.0019 45.8285 35.5004 42.7156 38.0006C39.5502 40.5428 35.2828 42.6159 30.2539 42.6159C25.2388 42.6159 20.9492 40.8645 17.6826 38.3271C14.4694 35.8313 12.1116 32.6374 11.3152 31.5391C12.8164 29.2486 19.4835 20.9239 30.2539 20.9239C41.0458 20.9239 47.7924 31.0776 47.7924 32.9237ZM48.2539 30.616C48.3863 30.8331 49.2365 32.4784 49.532 33.3425C49.6426 33.6658 49.4642 33.9457 49.2362 34.2002C47.5984 36.0282 41.954 44.0005 30.2539 44.0005C19.668 44.0005 12.1151 34.2282 10.5292 32.0275C10.3258 31.7452 10.3167 31.3811 10.5064 31.0894C11.9578 28.8579 18.8829 20.0008 30.2539 20.0008C41.6657 20.0008 46.9196 28.4277 48.2539 30.616Z" fill="black"/>
<mask id="mask0_2561_5506" style="mask-type:alpha" maskUnits="userSpaceOnUse" x="20" y="21" width="22" height="22">
<circle cx="10.0879" cy="10.0879" r="10.0879" transform="matrix(1 0 0 -1 20.6111 42.0887)" fill="#CAC9C9" stroke="black"/>
</mask>
<g mask="url(#mask0_2561_5506)">
<rect width="8.34974" height="24.507" transform="matrix(-0.64985 0.760062 -0.763491 -0.645818 36.3484 42.6047)" fill="white"/>
</g>
<circle cx="10.0879" cy="10.0879" r="10.0879" transform="matrix(1 0 0 -1 20.6111 42.0887)" fill="#CAC9C9" stroke="black"/>
<circle cx="2.84617" cy="2.84617" r="2.84617" transform="matrix(1 0 0 -1 27.8533 34.8466)" fill="black"/>
<circle cx="1.26111" cy="1.26111" r="1.26111" transform="matrix(1 0 0 -1 31.5776 31.5227)" fill="white"/>
<path fill-rule="evenodd" clip-rule="evenodd" d="M12.9077 33.5219C12.7689 33.3405 12.6349 33.1512 12.5101 32.9609C12.2795 32.6091 12.0932 32.2735 11.9746 32.0066C11.9149 31.8723 11.8772 31.766 11.8579 31.6902C11.852 31.667 11.8487 31.6502 11.8469 31.639C11.9061 31.4721 12.0772 31.2061 12.3788 30.8372C12.4576 30.741 12.5418 30.6416 12.6307 30.5393C12.5084 31.6308 12.673 32.6752 12.9077 33.5219ZM14.5445 36.1542C14.5445 36.1542 15.5015 37.0775 14.3631 34.7737C13.9488 33.9349 13.1223 30.6429 13.861 28.5117C13.9752 28.1821 13.7613 27.9351 13.6191 27.8434C13.4776 27.7521 13.0788 28.6747 12.8274 28.9476C12.8062 28.9705 12.7851 28.9935 12.764 29.0164C12.3696 29.4444 11.9781 29.8692 11.6643 30.2529C11.3475 30.6402 11.0526 31.0517 10.9478 31.422C10.8961 31.6044 10.9317 31.7934 10.9633 31.9179C11 32.062 11.0594 32.2201 11.131 32.3813C11.275 32.7055 11.4881 33.0855 11.7382 33.467C12.2294 34.2162 12.9158 35.0505 13.5829 35.4795C13.8119 35.6268 14.5445 36.1542 14.5445 36.1542Z" fill="black"/>
<circle cx="10.0879" cy="10.0879" r="10.0879" transform="matrix(1 0 0 -1 20.6111 42.0887)" stroke="black"/>
<path d="M12.0665 30.0455C11.9375 30.0863 11.8148 30.1256 11.6987 30.1631C11.8941 29.8023 12.1323 29.3776 12.4122 28.9044C13.3202 27.3687 14.6622 25.3292 16.3993 23.3082C19.8911 19.2456 24.8799 15.369 31.072 15.6064C42.7147 16.0527 48.4023 25.3335 48.9429 32.2994C46.9469 30.3787 41.876 26.8501 31.0949 26.8501C25.7967 26.8501 20.5971 27.7995 16.7313 28.7443C14.7961 29.2172 13.1901 29.6903 12.0665 30.0455Z" fill="white" stroke="black" stroke-width="1.19196" stroke-linejoin="round"/>
<path d="M30.9473 24.9106L30.9473 17.8501" stroke="black" stroke-width="1.00989" stroke-miterlimit="10" stroke-linecap="round" stroke-linejoin="round"/>
<path d="M28.712 19.1699L30.9476 17.4685L33.1831 19.1699" stroke="black" stroke-miterlimit="10" stroke-linecap="round" stroke-linejoin="round"/>
<path d="M33.1837 23.2991L30.9482 25.0005L28.7126 23.2991" stroke="black" stroke-miterlimit="10" stroke-linecap="round" stroke-linejoin="round"/>
</svg>
