<svg width="60" height="61" viewBox="0 0 60 61" fill="none" xmlns="http://www.w3.org/2000/svg">
<circle cx="30.0001" cy="30.6307" r="29.0001" fill="white" stroke="white" stroke-width="2"/>
<path d="M6.26758 30.6246L14.2676 30.6246" stroke="black" stroke-miterlimit="10" stroke-linecap="round" stroke-linejoin="round"/>
<path d="M12.6543 32.8662L14.3556 30.6307L12.6543 28.3951" stroke="black" stroke-miterlimit="10" stroke-linecap="round" stroke-linejoin="round"/>
<path d="M54.6895 30.6185L46.6895 30.6185" stroke="black" stroke-miterlimit="10" stroke-linecap="round" stroke-linejoin="round"/>
<path d="M48.3027 32.8601L46.6014 30.6246L48.3027 28.389" stroke="black" stroke-miterlimit="10" stroke-linecap="round" stroke-linejoin="round"/>
<path fill-rule="evenodd" clip-rule="evenodd" d="M42.015 29.8229C41.5309 28.8812 41.0585 27.2872 39.0179 25.1035C36.943 22.8831 33.8148 20.9269 30.5183 20.9269C27.2309 20.9269 24.4191 22.8873 22.2777 25.1035C20.1715 27.2833 18.9065 29.9431 18.3844 30.9024C19.3685 32.9029 23.4582 40.3036 30.5183 40.3036C39.0179 40.3036 42.015 31.4353 42.015 29.8229ZM42.3718 32.895C42.4841 32.6495 43.585 29.571 43.4636 29.3332C42.8585 28.9301 38.9748 19.7889 30.5183 19.7889C23.5792 19.7889 18.6283 28.6835 17.5887 30.6056C17.4553 30.8522 17.4493 31.1702 17.5737 31.425C18.5251 33.374 23.0646 41.2865 30.5183 41.2865C37.9989 41.2865 41.4971 34.8063 42.3718 32.895Z" fill="black"/>
<mask id="mask0_1676_5359" style="mask-type:alpha" maskUnits="userSpaceOnUse" x="21" y="21" width="20" height="19">
<circle cx="30.889" cy="30.6295" r="8.81086" fill="#CAC9C9" stroke="black" stroke-width="0.873407"/>
</mask>
<g mask="url(#mask0_1676_5359)">
<rect width="7.29272" height="21.4046" transform="matrix(-0.64985 -0.760062 -0.763491 0.645818 35.8223 21.369)" fill="white"/>
</g>
<circle cx="30.887" cy="30.6291" r="8.81086" fill="#CAC9C9" stroke="black" stroke-width="0.873407"/>
<circle cx="30.8921" cy="30.6293" r="2.48586" fill="black"/>
<circle cx="32.7597" cy="28.8342" r="1.10146" fill="white"/>
<path fill-rule="evenodd" clip-rule="evenodd" d="M19.148 29.3016C19.057 29.4601 18.9692 29.6254 18.8874 29.7916C18.7362 30.0989 18.6141 30.392 18.5363 30.6251C18.4972 30.7424 18.4725 30.8353 18.4598 30.9014C18.456 30.9217 18.4538 30.9364 18.4527 30.9461C18.4915 31.092 18.6036 31.3243 18.8013 31.6464C18.8529 31.7305 18.9082 31.8173 18.9664 31.9067C18.8862 30.9533 18.9942 30.0412 19.148 29.3016ZM20.2209 27.0025C20.2209 27.0025 20.8482 26.1962 20.102 28.2083C19.8304 28.9409 19.2887 31.8161 19.7729 33.6776C19.8478 33.9654 19.7075 34.1812 19.6143 34.2613C19.5216 34.341 19.2602 33.5352 19.0953 33.2968C19.0815 33.2768 19.0676 33.2568 19.0538 33.2367C18.7952 32.8629 18.5386 32.492 18.3329 32.1568C18.1253 31.8185 17.932 31.4591 17.8632 31.1357C17.8294 30.9763 17.8527 30.8113 17.8735 30.7026C17.8975 30.5768 17.9364 30.4386 17.9834 30.2978C18.0778 30.0147 18.2174 29.6827 18.3814 29.3496C18.7034 28.6952 19.1533 27.9665 19.5906 27.5919C19.7407 27.4632 20.2209 27.0025 20.2209 27.0025Z" fill="black"/>
<circle cx="30.887" cy="30.6291" r="8.81086" stroke="black" stroke-width="0.873407"/>
</svg>
