<svg width="60" height="60" viewBox="0 0 60 60" fill="none" xmlns="http://www.w3.org/2000/svg">
<circle cx="30" cy="30" r="28.9952" fill="white" stroke="white" stroke-width="2.00954"/>
<path d="M45.058 25.3197L45.6022 24.9709C47.0914 24.0165 48.8901 25.6327 48.1 27.2151L44.4322 34.5602C43.6576 36.1115 41.339 35.7012 41.1437 33.9783L41.1044 33.6311C40.7307 30.3336 42.2639 27.1104 45.058 25.3197Z" fill="#D9D9D9"/>
<path d="M15.1121 26.1114L14.5482 25.7953C13.0054 24.9303 11.305 26.6496 12.1871 28.1827L16.2813 35.299C17.1459 36.8019 19.4363 36.2557 19.5297 34.5244L19.5485 34.1754C19.7273 30.8616 18.0068 27.7344 15.1121 26.1114Z" fill="#D9D9D9"/>
<path d="M29.985 27.8063C29.5258 27.5838 31.3117 24.842 33.0369 25.6328C33.6797 25.9274 31.6716 26.2156 29.985 27.8063Z" fill="black"/>
<path d="M29.1346 27.8063C29.6004 27.5838 27.7887 24.842 26.0385 25.6328C25.2637 25.9374 27.4236 26.2156 29.1346 27.8063Z" fill="black"/>
<path fill-rule="evenodd" clip-rule="evenodd" d="M24.1443 33.8614C23.6975 33.3892 25.9642 32.2451 26.6576 32.0358C26.8817 31.9681 27.2174 31.8811 27.5373 31.9018C28.4396 31.9602 29.0786 32.651 29.916 32.8792C30.1943 32.8012 30.4521 32.6468 30.7229 32.5069C31.2744 32.2218 31.8674 31.8997 32.5048 31.8997C32.813 31.8997 33.1177 31.9828 33.3495 32.061C34.1 32.3141 35.6518 33.2571 35.443 33.7523C35.2342 34.2476 33.2108 33.3038 32.5047 33.0657C32.3952 33.0288 32.3349 33.0171 32.3147 33.0133C32.2952 33.0178 32.2268 33.0334 32.0932 33.0885C31.3202 33.4068 30.5954 33.9963 29.7263 33.9963C28.788 33.9963 28.0733 33.3005 27.2235 33.0171C26.9654 33.0702 26.7156 33.1753 26.4751 33.2796C25.7721 33.5846 24.5911 34.3336 24.1443 33.8614Z" fill="black"/>
<path fill-rule="evenodd" clip-rule="evenodd" d="M33.8872 35.4013C34.2054 35.8676 34.0854 36.0497 33.6191 36.3679C32.4394 37.1729 31.009 37.4324 29.7296 37.3812C28.4599 37.3304 27.1993 36.9681 26.3232 36.366C25.8579 36.0463 25.7346 35.8662 26.0543 35.401C26.3179 35.0171 26.8407 36.3764 29.7296 36.4918C32.6185 36.6071 33.6757 35.0914 33.8872 35.4013Z" fill="black"/>
<path d="M9.03442 20.4712C9.03442 36.0289 21.2121 47.6973 29.9937 47.6973C38.7752 47.6973 50.5977 35.8098 50.9529 20.4712" stroke="black" stroke-width="1.1" stroke-linecap="round"/>
<path d="M57.1052 34.2349H50.7029" stroke="black" stroke-width="1.1" stroke-miterlimit="10" stroke-linecap="round" stroke-linejoin="round"/>
<path d="M52.2354 37.0788L50.0694 34.2327L52.2354 31.3867" stroke="black" stroke-width="1.1" stroke-miterlimit="10" stroke-linecap="round" stroke-linejoin="round"/>
<path d="M3.01929 34.235H9.42165" stroke="black" stroke-width="1.1" stroke-miterlimit="10" stroke-linecap="round" stroke-linejoin="round"/>
<path d="M7.88916 37.0789L10.0551 34.2329L7.88916 31.3868" stroke="black" stroke-width="1.1" stroke-miterlimit="10" stroke-linecap="round" stroke-linejoin="round"/>
</svg>
