<svg width="60" height="60" viewBox="0 0 60 60" fill="none" xmlns="http://www.w3.org/2000/svg">
<circle cx="30" cy="30" r="28.9952" fill="white" stroke="white" stroke-width="2.00954"/>
<path d="M44.0269 26.586L44.5811 26.2532C46.0976 25.3428 47.8482 27.011 47.0121 28.5696L43.1309 35.8042C42.3112 37.3321 40.0056 36.8541 39.8609 35.1263L39.8317 34.7781C39.5547 31.4711 41.1816 28.2941 44.0269 26.586Z" fill="#D9D9D9"/>
<path d="M15.9731 26.586L15.4189 26.2532C13.9024 25.3428 12.1518 27.011 12.9879 28.5696L16.8691 35.8042C17.6888 37.3321 19.9944 36.8541 20.1391 35.1263L20.1683 34.7781C20.4453 31.4711 18.8184 28.2941 15.9731 26.586Z" fill="#D9D9D9"/>
<path d="M30.0314 26.7712C29.5722 26.5488 31.3581 23.807 33.0833 24.5978C33.7261 24.8924 31.7179 25.1806 30.0314 26.7712Z" fill="black"/>
<path d="M29.181 26.7712C29.6468 26.5488 27.8351 23.807 26.0849 24.5978C25.31 24.9024 27.47 25.1806 29.181 26.7712Z" fill="black"/>
<path fill-rule="evenodd" clip-rule="evenodd" d="M24.1906 32.8264C23.7439 32.3542 26.0106 31.2101 26.704 31.0007C26.928 30.9331 27.2638 30.8461 27.5837 30.8668C28.486 30.9251 29.125 31.616 29.9624 31.8442C30.2407 31.7662 30.4985 31.6118 30.7693 31.4718C31.3208 31.1868 31.9137 30.8646 32.5511 30.8646C32.8594 30.8646 33.1641 30.9477 33.3959 31.0259C34.1464 31.279 35.6981 32.2221 35.4894 32.7173C35.2806 33.2125 33.2572 32.2688 32.5511 32.0307C32.4416 31.9938 32.3813 31.982 32.3611 31.9783C32.3416 31.9827 32.2732 31.9984 32.1396 32.0534C31.3666 32.3718 30.6418 32.9613 29.7727 32.9613C28.8344 32.9613 28.1197 32.2654 27.2699 31.9821C27.0118 32.0351 26.762 32.1402 26.5215 32.2446C25.8184 32.5496 24.6374 33.2986 24.1906 32.8264Z" fill="black"/>
<path fill-rule="evenodd" clip-rule="evenodd" d="M33.9336 34.3662C34.2518 34.8325 34.1317 35.0146 33.6654 35.3328C32.4858 36.1378 31.0554 36.3973 29.776 36.3461C28.5063 36.2953 27.2457 35.933 26.3695 35.3309C25.9043 35.0112 25.781 34.8312 26.1007 34.3659C26.3643 33.9821 26.8871 35.3413 29.776 35.4567C32.6649 35.572 33.7221 34.0563 33.9336 34.3662Z" fill="black"/>
<path d="M29.9478 44.4567C28.2005 44.4567 24.3927 42.2692 21.834 40.6643C21.3524 40.3622 21.689 39.5942 22.2454 39.7112C24.397 40.1635 27.3722 40.6539 29.9478 40.5933C32.5661 40.5317 35.3911 40.0387 37.3688 39.6171C37.9118 39.5014 38.2474 40.2255 37.789 40.5387C35.4271 42.1525 31.7409 44.4567 29.9478 44.4567Z" fill="#D9D9D9"/>
<path d="M10 20C10 37.5577 22.5263 47.226 30 47.226C37.4737 47.226 49.6253 37.3386 50 20" stroke="black" stroke-width="1.1" stroke-linecap="round"/>
<path d="M57 33.5022L50.6303 33.5022" stroke="black" stroke-width="1.1" stroke-miterlimit="10" stroke-linecap="round" stroke-linejoin="round"/>
<path d="M52.1548 36.5L49.9999 33.5L52.1548 30.5" stroke="black" stroke-width="1.1" stroke-miterlimit="10" stroke-linecap="round" stroke-linejoin="round"/>
<path d="M3 33.5022L9.36969 33.5022" stroke="black" stroke-width="1.1" stroke-miterlimit="10" stroke-linecap="round" stroke-linejoin="round"/>
<path d="M7.84521 36.5L10.0001 33.5L7.84521 30.5" stroke="black" stroke-width="1.1" stroke-miterlimit="10" stroke-linecap="round" stroke-linejoin="round"/>
<path d="M29.9978 57L29.9978 50.6303" stroke="black" stroke-width="1.1" stroke-miterlimit="10" stroke-linecap="round" stroke-linejoin="round"/>
<path d="M27 52.1549L30 50L33 52.1549" stroke="black" stroke-width="1.1" stroke-miterlimit="10" stroke-linecap="round" stroke-linejoin="round"/>
</svg>
