<svg width="61" height="61" viewBox="0 0 61 61" fill="none" xmlns="http://www.w3.org/2000/svg">
<circle cx="30.0312" cy="30.6321" r="28.9952" fill="white" stroke="white" stroke-width="2.00954"/>
<path d="M30.0243 24.6297C29.5651 24.4073 31.351 21.6655 33.0762 22.4562C33.719 22.7509 31.7109 23.0391 30.0243 24.6297Z" fill="black"/>
<path d="M29.1739 24.6297C29.6397 24.4073 27.828 21.6655 26.0778 22.4562C25.303 22.7609 27.4629 23.0391 29.1739 24.6297Z" fill="black"/>
<path fill-rule="evenodd" clip-rule="evenodd" d="M24.1828 30.6849C23.736 30.2127 26.0028 29.0686 26.6962 28.8592C26.9202 28.7916 27.256 28.7046 27.5759 28.7253C28.4782 28.7836 29.1172 29.4745 29.9546 29.7027C30.2328 29.6247 30.4907 29.4703 30.7615 29.3304C31.3129 29.0453 31.9059 28.7231 32.5433 28.7231C32.8516 28.7231 33.1562 28.8063 33.3881 28.8844C34.1386 29.1376 35.6903 30.0806 35.4815 30.5758C35.2728 31.0711 33.2494 30.1273 32.5433 29.8892C32.4338 29.8523 32.3734 29.8405 32.3533 29.8368C32.3337 29.8413 32.2654 29.8569 32.1318 29.9119C31.3587 30.2303 30.634 30.8198 29.7649 30.8198C28.8266 30.8198 28.1119 30.1239 27.2621 29.8406C27.004 29.8936 26.7542 29.9987 26.5137 30.1031C25.8106 30.4081 24.6296 31.1571 24.1828 30.6849Z" fill="black"/>
<path fill-rule="evenodd" clip-rule="evenodd" d="M33.9251 32.2247C34.2433 32.691 34.1232 32.8731 33.6569 33.1913C32.4772 33.9962 31.0468 34.2557 29.7674 34.2045C28.4978 34.1537 27.2371 33.7914 26.361 33.1894C25.8957 32.8697 25.7725 32.6896 26.0922 32.2243C26.3557 31.8405 26.8786 33.1998 29.7674 33.3151C32.6563 33.4305 33.7136 31.9147 33.9251 32.2247Z" fill="black"/>
<path d="M9.07227 17.2942C9.07227 32.852 18.6187 47.9701 30.1521 47.9701C41.6856 47.9701 50.6355 32.6328 50.9907 17.2942" stroke="black" stroke-width="1.1" stroke-linecap="round"/>
<path d="M30.0332 44.3816L30.0332 37.9792" stroke="black" stroke-width="1.1" stroke-miterlimit="10" stroke-linecap="round" stroke-linejoin="round"/>
<path d="M32.8776 39.5115L30.0316 37.3455L27.1855 39.5115" stroke="black" stroke-width="1.1" stroke-miterlimit="10" stroke-linecap="round" stroke-linejoin="round"/>
</svg>
