<svg width="61" height="61" viewBox="0 0 61 61" fill="none" xmlns="http://www.w3.org/2000/svg">
<circle cx="30.0312" cy="30.6321" r="28.9952" fill="white" stroke="white" stroke-width="2.00954"/>
<path d="M30.0223 27.3219C29.5632 27.0994 31.349 24.3576 33.0742 25.1484C33.7171 25.443 31.7089 25.7312 30.0223 27.3219Z" fill="black"/>
<path d="M29.1719 27.3219C29.6377 27.0994 27.826 24.3576 26.0758 25.1484C25.301 25.453 27.4609 25.7312 29.1719 27.3219Z" fill="black"/>
<path fill-rule="evenodd" clip-rule="evenodd" d="M24.1809 33.377C23.7341 32.9048 26.0008 31.7607 26.6942 31.5514C26.9183 31.4838 27.254 31.3967 27.5739 31.4174C28.4763 31.4758 29.1152 32.1666 29.9526 32.3949C30.2309 32.3168 30.4887 32.1625 30.7595 32.0225C31.311 31.7374 31.904 31.4153 32.5414 31.4153C32.8496 31.4153 33.1543 31.4984 33.3861 31.5766C34.1366 31.8297 35.6884 32.7727 35.4796 33.268C35.2708 33.7632 33.2474 32.8195 32.5413 32.5813C32.4318 32.5444 32.3715 32.5327 32.3513 32.529C32.3318 32.5334 32.2634 32.5491 32.1299 32.6041C31.3568 32.9225 30.632 33.5119 29.763 33.5119C28.8246 33.5119 28.1099 32.8161 27.2601 32.5327C27.0021 32.5858 26.7523 32.6909 26.5118 32.7952C25.8087 33.1002 24.6277 33.8492 24.1809 33.377Z" fill="black"/>
<path fill-rule="evenodd" clip-rule="evenodd" d="M33.9231 34.9168C34.2413 35.3831 34.1212 35.5652 33.6549 35.8834C32.4753 36.6884 31.0449 36.9479 29.7655 36.8967C28.4958 36.8459 27.2352 36.4836 26.359 35.8815C25.8938 35.5618 25.7705 35.3817 26.0902 34.9165C26.3538 34.5326 26.8766 35.8919 29.7655 36.0073C32.6544 36.1226 33.7116 34.6069 33.9231 34.9168Z" fill="black"/>
<path d="M29.9387 44.412C28.1915 44.412 24.3837 42.2246 21.825 40.6196C21.3434 40.3175 21.6799 39.5495 22.2364 39.6665C24.3879 40.1188 27.3631 40.6092 29.9387 40.5486C32.5571 40.487 35.3821 39.994 37.3598 39.5724C37.9028 39.4567 38.2384 40.1808 37.78 40.494C35.4181 42.1078 31.7319 44.412 29.9387 44.412Z" fill="#D9D9D9"/>
<path d="M9.07227 19.9868C9.07227 35.5445 26.0746 47.1501 30.0315 47.2128C33.9884 47.2754 50.6355 35.3254 50.9907 19.9868" stroke="black" stroke-width="1.1" stroke-linecap="round"/>
<path d="M48.4922 44.6843H42.0898" stroke="black" stroke-width="1.1" stroke-miterlimit="10" stroke-linecap="round" stroke-linejoin="round"/>
<path d="M43.623 47.5282L41.4571 44.6822L43.623 41.8362" stroke="black" stroke-width="1.1" stroke-miterlimit="10" stroke-linecap="round" stroke-linejoin="round"/>
<path d="M11.1289 44.6863H17.5313" stroke="black" stroke-width="1.1" stroke-miterlimit="10" stroke-linecap="round" stroke-linejoin="round"/>
<path d="M15.998 47.5302L18.164 44.6842L15.998 41.8381" stroke="black" stroke-width="1.1" stroke-miterlimit="10" stroke-linecap="round" stroke-linejoin="round"/>
</svg>
