<svg width="61" height="61" viewBox="0 0 61 61" fill="none" xmlns="http://www.w3.org/2000/svg">
<circle cx="30.0312" cy="30.6321" r="28.9952" fill="white" stroke="white" stroke-width="2.00954"/>
<path d="M43.6116 37.3421L43.3249 37.4597C43.2925 37.473 43.2611 37.4885 43.2286 37.5017C42.9394 37.6195 41.4273 38.0055 41.3598 33.2357C41.2912 28.3821 43.4266 29.4168 43.7685 29.6133L43.7698 29.6141C43.8013 29.6322 43.8315 29.6495 43.8641 29.6655C47.1259 31.2623 46.9713 35.963 43.6116 37.3421Z" fill="#D9D9D9"/>
<path d="M16.9429 29.619L17.2314 29.5061C17.2641 29.4933 17.2957 29.4784 17.3285 29.4657C17.6196 29.3526 19.1378 28.9916 19.1267 33.7618C19.1154 38.6159 16.9974 37.5462 16.6587 37.3441L16.6574 37.3433C16.6262 37.3247 16.5964 37.3069 16.564 37.2903C13.3289 35.64 13.5609 30.9425 16.9429 29.619Z" fill="#D9D9D9"/>
<path d="M29.7658 44.5456C20.6179 44.1752 18.6186 41.0993 18.191 39.9645C18.1274 39.7958 18.2969 39.6703 18.4566 39.7539C19.7328 40.4221 24.1115 42.4677 29.7658 42.3947C35.4443 42.3215 40.8313 40.3579 42.4032 39.7342C42.5807 39.6638 42.7425 39.8249 42.6487 39.9912C41.9192 41.2836 39.0319 44.9208 29.7658 44.5456Z" fill="#D9D9D9"/>
<path d="M30.1063 27.9454C29.6472 27.7229 31.433 24.9812 33.1582 25.7719C33.8011 26.0666 31.7929 26.3548 30.1063 27.9454Z" fill="black"/>
<path d="M29.2559 27.9454C29.7217 27.7229 27.91 24.9812 26.1598 25.7719C25.385 26.0766 27.5449 26.3548 29.2559 27.9454Z" fill="black"/>
<path fill-rule="evenodd" clip-rule="evenodd" d="M24.2649 34.0006C23.8181 33.5284 26.0848 32.3843 26.7782 32.1749C27.0023 32.1073 27.338 32.0203 27.6579 32.0409C28.5602 32.0993 29.1992 32.7902 30.0366 33.0184C30.3149 32.9404 30.5727 32.786 30.8435 32.646C31.395 32.361 31.988 32.0388 32.6254 32.0388C32.9336 32.0388 33.2383 32.1219 33.4701 32.2001C34.2206 32.4532 35.7724 33.3963 35.5636 33.8915C35.3548 34.3867 33.3314 33.443 32.6253 33.2049C32.5158 33.168 32.4555 33.1562 32.4353 33.1525C32.4158 33.1569 32.3474 33.1726 32.2139 33.2276C31.4408 33.546 30.716 34.1355 29.8469 34.1355C28.9086 34.1355 28.1939 33.4396 27.3441 33.1563C27.086 33.2093 26.8362 33.3144 26.5957 33.4188C25.8927 33.7238 24.7117 34.4728 24.2649 34.0006Z" fill="black"/>
<path fill-rule="evenodd" clip-rule="evenodd" d="M34.0071 35.5406C34.3253 36.0069 34.2052 36.189 33.7389 36.5072C32.5593 37.3122 31.1288 37.5717 29.8495 37.5205C28.5798 37.4697 27.3192 37.1073 26.443 36.5053C25.9778 36.1856 25.8545 36.0055 26.1742 35.5402C26.4378 35.1564 26.9606 36.5157 29.8495 36.631C32.7383 36.7464 33.7956 35.2307 34.0071 35.5406Z" fill="black"/>
<path d="M13.43 27.5149C8.25021 43.5185 24.0569 46.2097 29.5745 46.307C35.0922 46.4043 52.3547 44.3817 46.4494 27.515" stroke="black" stroke-width="1.1" stroke-linecap="round"/>
<path d="M55.5391 40.4324H49.1367" stroke="black" stroke-width="1.1" stroke-miterlimit="10" stroke-linecap="round" stroke-linejoin="round"/>
<path d="M50.6699 43.2761L48.504 40.43L50.6699 37.584" stroke="black" stroke-width="1.1" stroke-miterlimit="10" stroke-linecap="round" stroke-linejoin="round"/>
<path d="M57.4043 31.7371H51.0019" stroke="black" stroke-width="1.1" stroke-miterlimit="10" stroke-linecap="round" stroke-linejoin="round"/>
<path d="M52.5352 34.5807L50.3692 31.7347L52.5352 28.8887" stroke="black" stroke-width="1.1" stroke-miterlimit="10" stroke-linecap="round" stroke-linejoin="round"/>
<path d="M4.52539 40.4324H10.9278" stroke="black" stroke-width="1.1" stroke-miterlimit="10" stroke-linecap="round" stroke-linejoin="round"/>
<path d="M9.39453 43.2763L11.5604 40.4303L9.39453 37.5842" stroke="black" stroke-width="1.1" stroke-miterlimit="10" stroke-linecap="round" stroke-linejoin="round"/>
<path d="M2.66016 31.7371H9.06252" stroke="black" stroke-width="1.1" stroke-miterlimit="10" stroke-linecap="round" stroke-linejoin="round"/>
<path d="M7.5293 34.581L9.69521 31.735L7.5293 28.8889" stroke="black" stroke-width="1.1" stroke-miterlimit="10" stroke-linecap="round" stroke-linejoin="round"/>
<path d="M13.3242 27.9455C14.0828 25.1281 14.423 22.5401 14.423 20.0791" stroke="black" stroke-width="1.1" stroke-linecap="round"/>
<path d="M46.5527 27.9455C45.7942 25.1281 45.454 23.0754 45.454 20.0791" stroke="black" stroke-width="1.1" stroke-linecap="round"/>
</svg>
