<svg width="61" height="61" viewBox="0 0 61 61" fill="none" xmlns="http://www.w3.org/2000/svg">
<circle cx="30.0312" cy="30.6321" r="28.9952" fill="white" stroke="white" stroke-width="2.00954"/>
<path d="M45.5367 25.5928L46.081 25.244C47.5701 24.2896 49.3689 25.9057 48.5787 27.4881L44.9109 34.8333C44.1363 36.3846 41.8177 35.9743 41.6225 34.2514L41.5832 33.9042C41.2095 30.6067 42.7427 27.3835 45.5367 25.5928Z" fill="#D9D9D9"/>
<path d="M15.5906 26.3844L15.0267 26.0683C13.4839 25.2033 11.7835 26.9226 12.6656 28.4557L16.7598 35.572C17.6245 37.0749 19.9148 36.5287 20.0082 34.7974L20.027 34.4484C20.2058 31.1346 18.4853 28.0074 15.5906 26.3844Z" fill="#D9D9D9"/>
<path d="M30.4657 28.079C30.0065 27.8565 31.7924 25.1147 33.5176 25.9055C34.1604 26.2001 32.1523 26.4883 30.4657 28.079Z" fill="black"/>
<path d="M29.6153 28.079C30.0811 27.8565 28.2694 25.1147 26.5192 25.9055C25.7444 26.2101 27.9043 26.4883 29.6153 28.079Z" fill="black"/>
<path fill-rule="evenodd" clip-rule="evenodd" d="M24.6242 34.1341C24.1774 33.6619 26.4442 32.5178 27.1376 32.3085C27.3616 32.2408 27.6974 32.1538 28.0173 32.1745C28.9196 32.2329 29.5586 32.9237 30.396 33.152C30.6742 33.0739 30.9321 32.9196 31.2029 32.7796C31.7543 32.4945 32.3473 32.1724 32.9847 32.1724C33.293 32.1724 33.5977 32.2555 33.8295 32.3337C34.58 32.5868 36.1317 33.5298 35.923 34.025C35.7142 34.5203 33.6908 33.5765 32.9847 33.3384C32.8752 33.3015 32.8148 33.2898 32.7947 33.286C32.7752 33.2905 32.7068 33.3062 32.5732 33.3612C31.8002 33.6795 31.0754 34.269 30.2063 34.269C29.268 34.269 28.5533 33.5732 27.7035 33.2898C27.4454 33.3429 27.1956 33.448 26.9551 33.5523C26.252 33.8573 25.071 34.6063 24.6242 34.1341Z" fill="black"/>
<path fill-rule="evenodd" clip-rule="evenodd" d="M34.3665 35.6739C34.6847 36.1402 34.5646 36.3223 34.0983 36.6405C32.9186 37.4455 31.4882 37.705 30.2088 37.6538C28.9392 37.603 27.6785 37.2406 26.8024 36.6386C26.3371 36.3189 26.2139 36.1388 26.5336 35.6735C26.7971 35.2897 27.32 36.649 30.2088 36.7643C33.0977 36.8797 34.155 35.364 34.3665 35.6739Z" fill="black"/>
<path d="M9.51367 20.7441C9.51367 36.3019 21.6914 47.9702 30.4729 47.9702C39.2544 47.9702 51.0769 36.0828 51.4321 20.7441" stroke="black" stroke-width="1.1" stroke-linecap="round"/>
<path d="M57.584 33.4077H51.1816" stroke="black" stroke-width="1.1" stroke-miterlimit="10" stroke-linecap="round" stroke-linejoin="round"/>
<path d="M52.7148 36.2514L50.5489 33.4054L52.7148 30.5593" stroke="black" stroke-width="1.1" stroke-miterlimit="10" stroke-linecap="round" stroke-linejoin="round"/>
<path d="M2.47852 33.4077H8.88088" stroke="black" stroke-width="1.1" stroke-miterlimit="10" stroke-linecap="round" stroke-linejoin="round"/>
<path d="M7.34766 36.2516L9.51357 33.4056L7.34766 30.5596" stroke="black" stroke-width="1.1" stroke-miterlimit="10" stroke-linecap="round" stroke-linejoin="round"/>
<path d="M47.1484 24.8679L42.9763 28.0648C42.048 28.7761 41.4977 29.8741 41.4834 31.0435L41.4357 34.9432" stroke="black" stroke-width="0.762243" stroke-linecap="round"/>
<path d="M14.3027 25.6128L18.4749 28.8097C19.4032 29.521 19.9535 30.619 19.9678 31.7883L20.0154 35.6881" stroke="black" stroke-width="0.762243" stroke-linecap="round"/>
</svg>
