<svg width="60" height="60" viewBox="0 0 60 60" fill="none" xmlns="http://www.w3.org/2000/svg">
<circle cx="30" cy="30" r="28.9952" fill="white" stroke="white" stroke-width="2.00954"/>
<path d="M30.0314 28.8065C29.5722 28.584 31.3581 25.8422 33.0833 26.633C33.7261 26.9276 31.7179 27.2159 30.0314 28.8065Z" fill="black"/>
<path d="M29.181 28.8065C29.6468 28.584 27.8351 25.8422 26.0849 26.633C25.31 26.9376 27.47 27.2159 29.181 28.8065Z" fill="black"/>
<path fill-rule="evenodd" clip-rule="evenodd" d="M24.1906 34.8616C23.7439 34.3894 26.0106 33.2453 26.704 33.036C26.928 32.9684 27.2638 32.8813 27.5837 32.902C28.486 32.9604 29.125 33.6512 29.9624 33.8795C30.2407 33.8015 30.4985 33.6471 30.7693 33.5071C31.3208 33.222 31.9137 32.8999 32.5511 32.8999C32.8594 32.8999 33.1641 32.983 33.3959 33.0612C34.1464 33.3143 35.6981 34.2574 35.4894 34.7526C35.2806 35.2478 33.2572 34.3041 32.5511 34.0659C32.4416 34.029 32.3813 34.0173 32.3611 34.0136C32.3416 34.018 32.2732 34.0337 32.1396 34.0887C31.3666 34.4071 30.6418 34.9965 29.7727 34.9965C28.8344 34.9965 28.1197 34.3007 27.2699 34.0173C27.0118 34.0704 26.762 34.1755 26.5215 34.2798C25.8184 34.5848 24.6374 35.3338 24.1906 34.8616Z" fill="black"/>
<path fill-rule="evenodd" clip-rule="evenodd" d="M33.9336 36.4015C34.2518 36.8678 34.1317 37.0499 33.6654 37.3681C32.4858 38.1731 31.0554 38.4326 29.776 38.3814C28.5063 38.3306 27.2457 37.9683 26.3695 37.3662C25.9043 37.0465 25.781 36.8664 26.1007 36.4012C26.3643 36.0173 26.8871 37.3766 29.776 37.492C32.6649 37.6073 33.7221 36.0916 33.9336 36.4015Z" fill="black"/>
<path d="M10 21.4717C10 36.458 20.7364 47.6978 30 47.6978C39.2636 47.6978 49.6253 36.2469 50 21.4717" stroke="black" stroke-width="1.1" stroke-linecap="round"/>
<path d="M58 30.0023L52.6303 30.0023" stroke="black" stroke-width="1.1" stroke-miterlimit="10" stroke-linecap="round" stroke-linejoin="round"/>
<path d="M54.155 33L52.0002 30L54.155 27" stroke="black" stroke-width="1.1" stroke-miterlimit="10" stroke-linecap="round" stroke-linejoin="round"/>
<path d="M2 30.0019L7.36969 30.0019" stroke="black" stroke-width="1.1" stroke-miterlimit="10" stroke-linecap="round" stroke-linejoin="round"/>
<path d="M5.84497 33L7.99983 30L5.84497 27" stroke="black" stroke-width="1.1" stroke-miterlimit="10" stroke-linecap="round" stroke-linejoin="round"/>
<path d="M18.8798 30.4554L13.6619 26.4805L17.143 30.7014C17.4662 31.0932 17.7191 31.5381 17.8905 32.0162L19.4992 36.5037L18.8798 30.4554Z" fill="#D9D9D9" stroke="#D9D9D9" stroke-width="0.762243" stroke-linecap="round" stroke-linejoin="round"/>
<path d="M40.7625 30.4554L45.9805 26.4805L42.4993 30.7014C42.1761 31.0932 41.9233 31.5381 41.7519 32.0162L40.1432 36.5037L40.7625 30.4554Z" fill="#D9D9D9" stroke="#D9D9D9" stroke-width="0.762243" stroke-linecap="round" stroke-linejoin="round"/>
<path d="M13.8699 26.3411L18.0421 29.538C18.9703 30.2493 19.5206 31.3474 19.5349 32.5167L19.5826 36.4164" stroke="black" stroke-width="0.762243" stroke-linecap="round"/>
<path d="M45.772 26.3411L41.5998 29.538C40.6715 30.2493 40.1212 31.3474 40.1069 32.5167L40.0593 36.4164" stroke="black" stroke-width="0.762243" stroke-linecap="round"/>
</svg>
