<svg width="60" height="60" viewBox="0 0 60 60" fill="none" xmlns="http://www.w3.org/2000/svg">
<circle cx="30" cy="30" r="28.9952" fill="white" stroke="white" stroke-width="2.00954"/>
<path d="M45.0814 25.2849L45.6257 24.9361C47.1148 23.9817 48.9135 25.5979 48.1234 27.1803L44.4555 34.5254C43.6809 36.0766 41.3624 35.6663 41.1672 33.9434L41.1278 33.5963C40.7541 30.2988 42.2874 27.0756 45.0814 25.2849Z" fill="#D9D9D9"/>
<path d="M15.1355 26.0768L14.5716 25.7607C13.0288 24.8957 11.3285 26.6151 12.2105 28.1481L16.3048 35.2643C17.1695 36.7672 19.4598 36.221 19.5532 34.4896L19.572 34.1408C19.7507 30.827 18.0302 27.6997 15.1355 26.0768Z" fill="#D9D9D9"/>
<path d="M30.0084 27.7718C29.5493 27.5494 31.3351 24.8077 33.0603 25.5984C33.7032 25.893 31.695 26.1812 30.0084 27.7718Z" fill="black"/>
<path d="M29.158 27.7718C29.6238 27.5494 27.8121 24.8077 26.0619 25.5984C25.2871 25.903 27.447 26.1812 29.158 27.7718Z" fill="black"/>
<path fill-rule="evenodd" clip-rule="evenodd" d="M24.1677 33.8268C23.7209 33.3547 25.9877 32.2106 26.6811 32.0012C26.9051 31.9336 27.2408 31.8466 27.5608 31.8673C28.4631 31.9256 29.1021 32.6165 29.9394 32.8447C30.2177 32.7667 30.4756 32.6123 30.7464 32.4723C31.2978 32.1873 31.8908 31.8651 32.5282 31.8651C32.8365 31.8651 33.1411 31.9482 33.373 32.0264C34.1235 32.2795 35.6752 33.2226 35.4665 33.7178C35.2577 34.213 33.2343 33.2693 32.5282 33.0312C32.4187 32.9942 32.3583 32.9825 32.3382 32.9788C32.3186 32.9832 32.2503 32.9989 32.1167 33.0539C31.3436 33.3723 30.6189 33.9617 29.7498 33.9617C28.8115 33.9617 28.0967 33.2659 27.247 32.9826C26.9889 33.0356 26.7391 33.1407 26.4986 33.245C25.7955 33.5501 24.6145 34.299 24.1677 33.8268Z" fill="black"/>
<path fill-rule="evenodd" clip-rule="evenodd" d="M33.9107 35.3667C34.2289 35.833 34.1088 36.0151 33.6425 36.3332C32.4628 37.1382 31.0324 37.3977 29.753 37.3465C28.4834 37.2957 27.2227 36.9334 26.3466 36.3314C25.8813 36.0117 25.7581 35.8316 26.0778 35.3663C26.3413 34.9825 26.8642 36.3418 29.753 36.4571C32.6419 36.5724 33.6992 35.0568 33.9107 35.3667Z" fill="black"/>
<path d="M9 19.4365C9 34.9939 19.9575 46.6619 30 46.6619C40.0425 46.6619 50.6441 34.7748 51 19.4365" stroke="black" stroke-width="1.09999" stroke-linecap="round"/>
<path d="M53.8271 42.0755L49.323 37.5715" stroke="black" stroke-width="1.09999" stroke-miterlimit="10" stroke-linecap="round" stroke-linejoin="round"/>
<path d="M48.281 40.7696L48.8786 37.1246L52.5237 36.527" stroke="black" stroke-width="1.09999" stroke-miterlimit="10" stroke-linecap="round" stroke-linejoin="round"/>
<path d="M5.43896 41.1L10.9553 37.9152" stroke="black" stroke-width="1.09999" stroke-miterlimit="10" stroke-linecap="round" stroke-linejoin="round"/>
<path d="M11.1338 41.2735L11.5 37.598L8.13379 36.0774" stroke="black" stroke-width="1.09999" stroke-miterlimit="10" stroke-linecap="round" stroke-linejoin="round"/>
</svg>
