<svg width="61" height="61" viewBox="0 0 61 61" fill="none" xmlns="http://www.w3.org/2000/svg">
<circle cx="30.8281" cy="30.9078" r="29.0001" fill="white" stroke="white" stroke-width="2"/>
<g clip-path="url(#clip0_1588_5441)">
<g filter="url(#filter0_d_1588_5441)">
<path d="M41.9736 23.0143C36.4441 22.9285 35.6725 24.2144 34.6438 25.6289C33.6152 27.0435 33.2467 31.5187 34.0011 34.3305C34.9441 37.8454 40.5162 41.7457 46.7314 41.9601C52.9467 42.1744 54.8755 38.5738 55.4328 36.6449C55.99 34.7161 55.9473 28.2865 54.7042 25.6289C53.4612 22.9714 47.503 23.1 41.9736 23.0143Z" fill="#696969"/>
<path d="M20.9326 23.0143C26.4621 22.9285 27.2337 24.2144 28.2624 25.6289C29.291 27.0435 29.6595 31.5187 28.9051 34.3305C27.9621 37.8454 22.39 41.7457 16.1748 41.9601C9.95954 42.1744 8.03075 38.5738 7.47345 36.6449C6.91625 34.7161 6.95895 28.2865 8.20205 25.6289C9.44505 22.9714 15.4032 23.1 20.9326 23.0143Z" fill="#696969"/>
<g style="mix-blend-mode:multiply">
<path fill-rule="evenodd" clip-rule="evenodd" d="M38.6378 23.0882L33.5766 31.8677C33.5488 31.9158 33.5424 31.9732 33.5586 32.0262L34.6804 35.6805C34.7274 35.8335 34.926 35.8721 35.0269 35.7479L45.186 23.2349C45.2275 23.1837 45.2917 23.1563 45.3574 23.1616L47.0733 23.3007C47.2356 23.3139 47.315 23.505 47.2098 23.6293L36.07 36.7884C36.0135 36.8551 36.0069 36.9508 36.0538 37.0247L36.6021 37.8894C36.6696 37.9958 36.8176 38.014 36.9089 37.9271L51.8862 23.6646C52.0151 23.5418 51.9314 23.3244 51.7534 23.3198L38.8162 22.9881C38.7428 22.9862 38.6744 23.0246 38.6378 23.0882ZM11.7452 23.1477L6.56887 28.8413C6.53003 28.884 6.51155 28.9414 6.51817 28.9988L7.2932 35.712C7.31314 35.8846 7.52864 35.9515 7.64274 35.8204L18.4334 23.4227C18.4714 23.3791 18.5264 23.354 18.5842 23.354H19.6876C19.856 23.354 19.949 23.5494 19.8429 23.6801L8.07458 38.1749C8.02731 38.2331 8.01658 38.3129 8.04679 38.3815L9.01655 40.5847C9.07454 40.7164 9.24851 40.7456 9.34632 40.64L25.3001 23.4182C25.4187 23.2902 25.3279 23.0823 25.1534 23.0823H11.8932C11.8368 23.0823 11.7831 23.1061 11.7452 23.1477ZM19.1477 41.2806L28.3784 31.2578C28.5019 31.1238 28.7256 31.2111 28.7256 31.3933V33.1019C28.7256 33.1509 28.7076 33.1982 28.675 33.2348L21.8742 40.8861C21.8484 40.9151 21.8148 40.936 21.7774 40.9462L19.3475 41.609C19.1538 41.6618 19.0117 41.4283 19.1477 41.2806ZM55.8345 32.0129L46.6038 42.0357C46.4678 42.1834 46.6098 42.417 46.8035 42.3641L49.2334 41.7013C49.2708 41.6911 49.3045 41.6702 49.3303 41.6412L56.1311 33.9899C56.1636 33.9533 56.1816 33.906 56.1816 33.857V32.1484C56.1816 31.9662 55.9579 31.8789 55.8345 32.0129Z" fill="#CAC9C9"/>
</g>
<path fill-rule="evenodd" clip-rule="evenodd" d="M23.616 23.5823H20.1572V23.5283H12.7403C9.64231 23.5283 7.48242 25.7921 7.48242 28.8902L7.13086 34.2853C7.13086 38.2959 10.3821 41.5472 14.3927 41.5472H16.9918C23.547 41.5472 28.7287 35.693 28.7287 29.1378C28.7287 26.0498 26.5621 23.9399 23.616 23.5823ZM8.04761 24.4834C9.24517 23.276 10.9054 22.5283 12.7403 22.5283H22.7115C23.0104 22.5283 23.305 22.5467 23.5942 22.5823H38.9362C39.2254 22.5467 39.52 22.5283 39.8189 22.5283H49.7901C51.625 22.5283 53.2853 23.276 54.4828 24.4834H56.3994C56.6755 24.4834 56.8994 24.7073 56.8994 24.9834C56.8994 25.2595 56.6755 25.4834 56.3994 25.4834H55.2983C55.9941 26.5302 56.3996 27.7866 56.3996 29.1378V34.2853C56.3996 38.8482 52.7006 42.5472 48.1377 42.5472H45.5386C38.4311 42.5472 32.6693 36.7854 32.6693 29.6779C32.6693 29.2039 32.7154 28.7406 32.8035 28.2924C32.3517 28.0331 31.8053 27.9139 31.2591 27.9282C30.6548 27.9441 30.1114 28.1213 29.7447 28.3864C29.8212 28.8053 29.8611 29.2369 29.8611 29.6779C29.8611 36.7854 24.0993 42.5472 16.9918 42.5472H14.3927C9.82981 42.5472 6.13086 38.8482 6.13086 34.2853V29.1378C6.13086 27.7866 6.53631 26.5302 7.23217 25.4834H5.82812C5.55198 25.4834 5.32812 25.2595 5.32812 24.9834C5.32812 24.7073 5.55198 24.4834 5.82812 24.4834H8.04761ZM29.472 27.3456C29.9993 27.0126 30.638 26.7835 31.2591 26.7671C31.873 26.751 32.5098 26.9402 33.0854 27.2688C33.6375 25.7256 34.7051 24.4277 36.0807 23.5823H26.4497C27.8481 24.4417 28.9281 25.7687 29.472 27.3456ZM44.7256 23.5823H39.0044C36.0215 23.9824 33.8626 26.559 33.8626 29.6779C33.8626 36.2331 38.9834 41.5472 45.5386 41.5472H48.1377C52.1483 41.5472 55.3996 38.2959 55.3996 34.2853L55.0674 28.6856C55.0674 25.5876 52.1369 23.5283 49.0389 23.5283H44.7256V23.5823Z" fill="black"/>
</g>
</g>
<defs>
<filter id="filter0_d_1588_5441" x="4.32812" y="22.5283" width="52.5713" height="21.5189" filterUnits="userSpaceOnUse" color-interpolation-filters="sRGB">
<feFlood flood-opacity="0" result="BackgroundImageFix"/>
<feColorMatrix in="SourceAlpha" type="matrix" values="0 0 0 0 0 0 0 0 0 0 0 0 0 0 0 0 0 0 127 0" result="hardAlpha"/>
<feOffset dx="-1" dy="1.5"/>
<feComposite in2="hardAlpha" operator="out"/>
<feColorMatrix type="matrix" values="0 0 0 0 0 0 0 0 0 0 0 0 0 0 0 0 0 0 0.25 0"/>
<feBlend mode="normal" in2="BackgroundImageFix" result="effect1_dropShadow_1588_5441"/>
<feBlend mode="normal" in="SourceGraphic" in2="effect1_dropShadow_1588_5441" result="shape"/>
</filter>
<clipPath id="clip0_1588_5441">
<rect width="54" height="22" fill="white" transform="translate(3.82812 22.5283)"/>
</clipPath>
</defs>
</svg>
