<svg width="61" height="61" viewBox="0 0 61 61" fill="none" xmlns="http://www.w3.org/2000/svg">
<circle cx="30.0313" cy="30.6319" r="29.0001" fill="white" stroke="white" stroke-width="2"/>
<path d="M23.1149 21.1318C17.879 21.1319 18.4559 25.1304 9.03125 28.9993C21.8897 27.0695 23.9003 31.9092 29.9216 31.9092C35.9429 31.9092 36.1089 27.9418 51.0312 29.3236C41.3448 26.0074 42.4878 21.1319 36.9901 21.1318C33.4235 21.1318 30.7943 23.6189 29.9216 25.0006C29.2235 23.8032 26.8906 21.1318 23.1149 21.1318Z" fill="white"/>
<path fill-rule="evenodd" clip-rule="evenodd" d="M29.3093 24.1399C28.2342 22.8427 26.1366 21.1318 23.1149 21.1318C20.4696 21.1319 19.308 22.1525 17.5908 23.6614C16.3028 24.7931 14.7024 26.1993 11.9291 27.6557C11.081 28.101 10.1233 28.551 9.03125 28.9993C10.1699 28.8284 11.2234 28.7106 12.2022 28.6378C18.2114 28.191 21.4035 29.441 24.1658 30.5226C26.0347 31.2544 27.7069 31.9092 29.9216 31.9092C32.1024 31.9092 33.5152 31.3887 35.1391 30.7905C37.6492 29.8658 40.664 28.7552 47.7999 29.0935C48.7938 29.1406 49.8677 29.2158 51.0312 29.3236C49.8962 28.935 48.9098 28.525 48.0441 28.1039C45.0722 26.6585 43.5212 25.0829 42.2543 23.7957C40.7405 22.2579 39.6322 21.1319 36.9901 21.1318C34.0693 21.1318 31.7772 22.7998 30.5636 24.1626C30.2952 24.464 30.0796 24.7504 29.9216 25.0006C29.7822 24.7615 29.5776 24.4636 29.3093 24.1399ZM45.8357 28.034C43.9529 26.8831 42.7438 25.7059 41.743 24.692C41.6882 24.6364 41.6345 24.5819 41.5817 24.5284C40.827 23.7626 40.2753 23.2027 39.6253 22.7981C38.9782 22.3952 38.2009 22.1322 36.9901 22.1322C33.8618 22.1322 31.5063 24.3459 30.752 25.5403L29.888 26.9082L29.0728 25.5099C28.4721 24.4795 26.4091 22.1322 23.1149 22.1322C21.9444 22.1322 21.1572 22.3523 20.4839 22.7056C19.7762 23.077 19.15 23.615 18.2895 24.371L18.244 24.4109C17.2178 25.3125 15.9815 26.3988 14.1277 27.5483C17.7134 27.4914 20.2441 28.0682 22.3524 28.7816C23.092 29.0319 23.7734 29.2967 24.4111 29.5463C24.4459 29.5599 24.4805 29.5735 24.515 29.587C25.1191 29.8235 25.6791 30.0428 26.2411 30.2354C27.4137 30.6372 28.5576 30.9088 29.9216 30.9088C31.9192 30.9088 33.1242 30.4646 34.6816 29.8904C35.3197 29.6552 36.0169 29.3982 36.852 29.141C38.9164 28.5051 41.5727 27.9865 45.8357 28.034Z" fill="black" stroke="black" stroke-width="0.3"/>
<path fill-rule="evenodd" clip-rule="evenodd" d="M17.3035 34.6995C19.989 37.0731 23.4688 39.284 29.9743 39.284C36.4924 39.284 40.0874 37.1943 42.8482 34.9215C43.5448 34.348 44.1883 33.7627 44.8183 33.1887L44.8475 33.1621C45.4643 32.6002 46.0709 32.0475 46.689 31.5435C47.9455 30.519 49.2897 29.661 50.9786 29.2833C48.1232 29.9219 45.7222 33.7293 43.5302 35.5338C40.6354 37.9169 36.8077 40.1318 29.9743 40.1318C23.1284 40.1318 19.4088 37.7762 16.5966 35.2905C14.5788 33.507 11.7982 29.466 9.13102 28.9888C10.8979 29.3049 12.2719 30.1568 13.5297 31.2032C14.1577 31.7257 14.7659 32.3046 15.3809 32.8963C15.4408 32.954 15.5008 33.0118 15.561 33.0697C16.1211 33.6092 16.691 34.1581 17.3035 34.6995Z" fill="black" stroke="black" stroke-width="0.3"/>
<path d="M21.2832 34.4501C23.1158 35.6712 24.7389 36.697 27.0427 36.8924M36.2054 24.9253C37.7762 24.9255 38.8234 25.414 39.8706 26.6349" stroke="black" stroke-linecap="round" stroke-linejoin="round"/>
<path d="M30.0293 19.1196L30.0293 13.2257" stroke="black" stroke-miterlimit="10" stroke-linecap="round" stroke-linejoin="round"/>
<path d="M30.0312 43.4384L30.0313 49.3323" stroke="black" stroke-miterlimit="10" stroke-linecap="round" stroke-linejoin="round"/>
<path d="M27.7945 14.0767L30.0301 12.3753L32.2656 14.0767" stroke="black" stroke-miterlimit="10" stroke-linecap="round" stroke-linejoin="round"/>
<path d="M27.7965 48.4813L30.032 50.1826L32.2676 48.4813" stroke="black" stroke-miterlimit="10" stroke-linecap="round" stroke-linejoin="round"/>
</svg>
