<svg width="61" height="61" viewBox="0 0 61 61" fill="none" xmlns="http://www.w3.org/2000/svg">
<circle cx="30.0313" cy="30.632" r="29.0001" fill="white" stroke="white" stroke-width="2"/>
<path d="M9.31836 29.9945C10.4104 29.5462 10.6823 29.1435 13.1823 28.6435C15.6823 28.1435 20.5312 29.0633 22.6395 29.7768C23.3791 30.027 24.0605 30.2919 24.6982 30.5415L24.8022 30.5822C25.4062 30.8187 25.9662 31.038 26.5282 31.2305C27.7008 31.6323 28.8447 31.904 30.2087 31.904C32.2063 31.904 33.4113 31.4597 34.9687 30.8856L34.9688 30.8856C35.6069 30.6504 36.3041 30.3933 37.1391 30.1361C39.2035 29.5003 44.0333 28.6879 46.6823 29.1434C49.3312 29.599 50.1833 29.9301 51.3184 30.3187C50.1548 30.211 49.0809 30.1358 48.087 30.0886C40.9511 29.7504 37.9363 30.861 35.4262 31.7857C33.8023 32.3839 32.3895 32.9043 30.2087 32.9043C27.994 32.9043 26.3218 32.2496 24.4529 31.5177C21.6906 30.4361 18.4985 29.1862 12.4893 29.633C11.5105 29.7058 10.457 29.8236 9.31836 29.9945Z" fill="black" stroke="black" stroke-width="0.3"/>
<path d="M21.5703 35.4453C23.4029 36.6665 25.026 37.6922 27.3298 37.8876M36.4926 25.9205C38.0633 25.9208 39.1105 26.4092 40.1577 27.6301" stroke="black" stroke-linecap="round" stroke-linejoin="round"/>
<path d="M9.18262 28.6937C11.466 27.8256 15.3161 24.8381 15.3161 24.8381C15.3161 24.8381 19.3192 20.5838 22.5027 20.5838C25.6862 20.5838 27.5128 22.1682 30.0769 22.1682" stroke="black" stroke-miterlimit="10" stroke-linecap="round" stroke-linejoin="round" stroke-dasharray="2 2"/>
<path d="M51.0771 28.6937C48.7938 27.8256 44.9436 24.8381 44.9436 24.8381C44.9436 24.8381 40.9405 20.5838 37.757 20.5838C34.5735 20.5838 32.7469 22.1682 30.1829 22.1682" stroke="black" stroke-miterlimit="10" stroke-linecap="round" stroke-linejoin="round" stroke-dasharray="2 2"/>
<path d="M8.74388 31.0972C10.7542 32.0126 15.3725 36.8158 18.1238 39.0995C20.8752 41.3833 22.1812 42.5947 30.6812 42.5947" stroke="black" stroke-miterlimit="10" stroke-linecap="round" stroke-linejoin="round" stroke-dasharray="2 2"/>
<path d="M50.3139 31.0973C48.3037 32.0127 43.6854 36.8159 40.934 39.0997C38.1826 41.3834 35.6807 42.5947 30.6807 42.5947" stroke="black" stroke-miterlimit="10" stroke-linecap="round" stroke-linejoin="round" stroke-dasharray="2 2"/>
</svg>
