<svg width="60" height="60" viewBox="0 0 60 60" fill="none" xmlns="http://www.w3.org/2000/svg">
<circle cx="30.0001" cy="30.0001" r="29.0001" fill="white" stroke="white" stroke-width="2"/>
<path d="M40.2249 19.3433L43.8669 14.7092" stroke="black" stroke-miterlimit="10" stroke-linecap="round" stroke-linejoin="round"/>
<path d="M45.0983 16.7597L44.392 14.0407L41.583 13.9969" stroke="black" stroke-miterlimit="10" stroke-linecap="round" stroke-linejoin="round"/>
<path d="M21.5308 40.9167L17.6771 45.3763" stroke="black" stroke-miterlimit="10" stroke-linecap="round" stroke-linejoin="round"/>
<path d="M16.5423 43.2707L17.1214 46.0197L19.9253 46.194" stroke="black" stroke-miterlimit="10" stroke-linecap="round" stroke-linejoin="round"/>
<path d="M21.3547 19.3433L17.7127 14.7092" stroke="black" stroke-miterlimit="10" stroke-linecap="round" stroke-linejoin="round"/>
<path d="M16.4812 16.7597L17.1876 14.0407L19.9966 13.9969" stroke="black" stroke-miterlimit="10" stroke-linecap="round" stroke-linejoin="round"/>
<path d="M40.0488 40.9167L43.9025 45.3763" stroke="black" stroke-miterlimit="10" stroke-linecap="round" stroke-linejoin="round"/>
<path d="M45.0373 43.2707L44.4582 46.0197L41.6543 46.194" stroke="black" stroke-miterlimit="10" stroke-linecap="round" stroke-linejoin="round"/>
<path d="M23.413 21.6084C18.4265 21.6084 18.9758 25.607 10 29.4759C22.2461 27.5461 24.161 32.3857 29.8956 32.3857C35.6301 32.3857 35.7883 28.4183 50 29.8001C40.7748 26.4839 41.8634 21.6084 36.6275 21.6084C33.2307 21.6084 30.7267 24.0955 29.8956 25.4772C29.2307 24.2797 27.0089 21.6084 23.413 21.6084Z" fill="white"/>
<path fill-rule="evenodd" clip-rule="evenodd" d="M29.3124 24.6165C28.2885 23.3193 26.2908 21.6084 23.413 21.6084C20.8937 21.6084 19.7874 22.6291 18.1519 24.138C16.9253 25.2696 15.4011 26.6759 12.7598 28.1322C11.9522 28.5776 11.04 29.0276 10 29.4759C11.0844 29.305 12.0878 29.1872 13.02 29.1144C18.743 28.6676 21.7831 29.9175 24.4138 30.9991C26.1938 31.731 27.7863 32.3857 29.8956 32.3857C31.9725 32.3857 33.318 31.8653 34.8646 31.2671C37.2552 30.3424 40.1264 29.2318 46.9225 29.57C47.8691 29.6172 48.8918 29.6924 50 29.8001C48.919 29.4115 47.9796 29.0015 47.1551 28.5805C44.3247 27.1351 42.8476 25.5595 41.641 24.2723C40.1993 22.7345 39.1437 21.6084 36.6275 21.6084C33.8458 21.6084 31.6628 23.2763 30.507 24.6392C30.2514 24.9406 30.0461 25.227 29.8956 25.4772C29.7628 25.2381 29.5679 24.9401 29.3124 24.6165ZM45.0519 28.5106C43.2587 27.3597 42.1072 26.1824 41.1541 25.1685C41.1019 25.113 41.0507 25.0585 41.0005 25.005C40.2817 24.2391 39.7562 23.6793 39.1372 23.2746C38.5209 22.8717 37.7806 22.6088 36.6274 22.6088C33.6481 22.6088 31.4048 24.8225 30.6864 26.0169L29.8636 27.3848L29.0872 25.9864C28.5151 24.956 26.5503 22.6088 23.413 22.6088C22.2983 22.6088 21.5485 22.8288 20.9073 23.1822C20.2333 23.5536 19.6369 24.0915 18.8173 24.8475L18.7741 24.8874C17.7967 25.7891 16.6193 26.8753 14.8538 28.0249C18.2687 27.968 20.6789 28.5447 22.6868 29.2582C23.3912 29.5084 24.0401 29.7733 24.6475 30.0229C24.6806 30.0365 24.7136 30.0501 24.7465 30.0636C25.3217 30.3001 25.8551 30.5194 26.3903 30.7119C27.5071 31.1137 28.5965 31.3854 29.8956 31.3854C31.798 31.3854 32.9457 30.9411 34.4289 30.367C35.0366 30.1318 35.7007 29.8747 36.496 29.6175C38.462 28.9817 40.9919 28.463 45.0519 28.5106Z" fill="black" stroke="black" stroke-width="0.3"/>
<path fill-rule="evenodd" clip-rule="evenodd" d="M17.8787 35.176C20.4363 37.5497 23.7504 39.7606 29.9461 39.7606C36.1538 39.7606 39.5776 37.6709 42.2069 35.3981C42.8704 34.8246 43.4833 34.2392 44.0832 33.6653L44.1111 33.6387C44.6985 33.0768 45.2762 32.5241 45.8649 32.0201C47.0615 30.9956 48.3418 30.1375 49.9502 29.7598C47.2308 30.3985 44.9441 34.2059 42.8565 36.0104C40.0995 38.3935 36.4541 40.6084 29.9461 40.6084C23.4262 40.6084 19.8837 38.2527 17.2054 35.7671C15.2837 33.9836 12.6356 29.9426 10.0954 29.4653C11.7781 29.7815 13.0867 30.6334 14.2846 31.6798C14.8827 32.2023 15.4619 32.7811 16.0476 33.3728C16.1047 33.4305 16.1619 33.4883 16.2191 33.5462C16.7526 34.0857 17.2954 34.6346 17.8787 35.176Z" fill="black" stroke="black" stroke-width="0.3"/>
<path d="M21.6677 34.9267C23.413 36.1478 24.9588 37.1735 27.1529 37.3689M35.8794 25.4019C37.3753 25.4021 38.3727 25.8905 39.37 27.1114" stroke="black" stroke-linecap="round" stroke-linejoin="round"/>
</svg>
