<svg width="60" height="60" viewBox="0 0 60 60" fill="none" xmlns="http://www.w3.org/2000/svg">
<circle cx="30.0001" cy="30.0001" r="29.0001" fill="white" stroke="white" stroke-width="2"/>
<path d="M47.9978 36.2773L47.9978 23.6265" stroke="black" stroke-miterlimit="10" stroke-linecap="round" stroke-linejoin="round"/>
<path d="M45 25.1416L48 23L51 25.1416" stroke="black" stroke-miterlimit="10" stroke-linecap="round" stroke-linejoin="round"/>
<path d="M45 34.8585L48 37.0001L51 34.8585" stroke="black" stroke-miterlimit="10" stroke-linecap="round" stroke-linejoin="round"/>
<path d="M20.0717 21C15.5838 21 16.0782 24.9986 8 28.8675C19.0215 26.9377 20.7449 31.7773 25.906 31.7773C31.0671 31.7773 31.2094 27.8099 44 29.1917C35.6974 25.8755 36.677 21 31.9647 21C28.9076 21 26.654 23.4871 25.906 24.8688C25.3076 23.6713 23.308 21 20.0717 21Z" fill="white"/>
<path fill-rule="evenodd" clip-rule="evenodd" d="M25.3812 24.0081C24.4597 22.7109 22.6617 21 20.0717 21C17.8043 21 16.8087 22.0207 15.3367 23.5296C14.2328 24.6612 12.861 26.0675 10.4839 27.5238C9.75694 27.9692 8.93602 28.4192 8 28.8675C8.97595 28.6966 9.87899 28.5788 10.718 28.506C15.8687 28.0592 18.6048 29.3091 20.9724 30.3907C22.5744 31.1226 24.0077 31.7773 25.906 31.7773C27.7753 31.7773 28.9862 31.2569 30.3782 30.6587C32.5297 29.734 35.1138 28.6234 41.2302 28.9616C42.0822 29.0088 43.0026 29.084 44 29.1917C43.0271 28.8031 42.1816 28.3931 41.4396 27.9721C38.8922 26.5267 37.5629 24.9511 36.4769 23.6639C35.1794 22.1261 34.2293 21 31.9647 21C29.4612 21 27.4965 22.6679 26.4563 24.0308C26.2263 24.3322 26.0415 24.6186 25.906 24.8688C25.7865 24.6297 25.6111 24.3317 25.3812 24.0081ZM39.5467 27.9022C37.9328 26.7513 36.8965 25.574 36.0387 24.5601C35.9917 24.5046 35.9456 24.4501 35.9004 24.3966C35.2535 23.6308 34.7806 23.0709 34.2235 22.6662C33.6689 22.2633 33.0025 22.0004 31.9647 22.0004C29.2833 22.0004 27.2643 24.2141 26.6178 25.4085L25.8772 26.7764L25.1785 25.378C24.6636 24.3476 22.8953 22.0004 20.0717 22.0004C19.0684 22.0004 18.3937 22.2204 17.8166 22.5738C17.21 22.9452 16.6732 23.4831 15.9356 24.2391L15.8967 24.279C15.017 25.1807 13.9574 26.267 12.3684 27.4165C15.4419 27.3596 17.611 27.9363 19.4181 28.6498C20.0521 28.9 20.6361 29.1649 21.1827 29.4145C21.2125 29.4281 21.2422 29.4417 21.2718 29.4552C21.7895 29.6917 22.2696 29.911 22.7513 30.1035C23.7564 30.5053 24.7369 30.777 25.906 30.777C27.6182 30.777 28.6511 30.3327 29.986 29.7586C30.533 29.5234 31.1306 29.2663 31.8464 29.0091C33.6158 28.3733 35.8927 27.8546 39.5467 27.9022Z" fill="black" stroke="black" stroke-width="0.3"/>
<path fill-rule="evenodd" clip-rule="evenodd" d="M15.0908 34.5676C17.3927 36.9413 20.3753 39.1522 25.9515 39.1522C31.5384 39.1522 34.6199 37.0625 36.9862 34.7897C37.5833 34.2162 38.1349 33.6308 38.6749 33.0569L38.6999 33.0303C39.2286 32.4684 39.7486 31.9157 40.2784 31.4117C41.3554 30.3872 42.5076 29.5291 43.9552 29.1514C41.5077 29.7901 39.4497 33.5975 37.5709 35.402C35.0896 37.7851 31.8087 40 25.9515 40C20.0836 40 16.8953 37.6444 14.4849 35.1587C12.7554 33.3752 10.372 29.3342 8.08583 28.8569C9.60032 29.1731 10.778 30.025 11.8561 31.0714C12.3944 31.5939 12.9157 32.1727 13.4429 32.7644C13.4942 32.8221 13.5457 32.8799 13.5972 32.9378C14.0773 33.4773 14.5658 34.0262 15.0908 34.5676Z" fill="black" stroke="black" stroke-width="0.3"/>
<path d="M18.501 34.3183C20.0717 35.5394 21.463 36.5651 23.4377 36.7605M31.2915 24.7935C32.6378 24.7937 33.5354 25.2821 34.433 26.503" stroke="black" stroke-linecap="round" stroke-linejoin="round"/>
</svg>
