<svg width="61" height="61" viewBox="0 0 61 61" fill="none" xmlns="http://www.w3.org/2000/svg">
<circle cx="30.0313" cy="30.632" r="29.0001" fill="white" stroke="white" stroke-width="2"/>
<path d="M23.1149 21.1312C17.879 21.1313 20.6366 23.943 9.79688 28.9312C17.3751 33.4397 19.6294 40.6692 29.9216 40.6692C41.5488 40.1896 46.6807 31.761 50.0861 29.3149C40.7812 24.5185 40.925 21.1312 36.9901 21.1312C33.0551 21.1312 30.7942 23.7134 29.9216 26.1493C29.2235 24.0382 26.8906 21.1312 23.1149 21.1312Z" fill="#CAC9C9"/>
<path fill-rule="evenodd" clip-rule="evenodd" d="M29.3093 24.14C28.2342 22.8429 26.1366 21.1319 23.1149 21.132C20.4696 21.132 19.308 22.1526 17.5908 23.6615C16.3028 24.7932 14.7024 26.1995 11.9291 27.6558C11.081 28.1011 10.1233 28.5511 9.03125 28.9994C10.1699 28.8285 11.2298 29.1664 12.2086 29.0936C21.2795 31.6218 24.1536 35.0011 29.6417 35.0011C35.4471 35.225 40.2734 29.7016 47.7999 29.0936C48.7938 29.1407 49.8677 29.2159 51.0312 29.3237C49.8962 28.9351 48.9098 28.5251 48.0441 28.104C45.0722 26.6587 43.5212 25.083 42.2543 23.7959C40.7405 22.258 39.6322 21.132 36.9901 21.132C34.0693 21.1319 31.7772 22.7999 30.5636 24.1628C30.2952 24.4641 30.0796 24.7506 29.9216 25.0008C29.7822 24.7616 29.5776 24.4637 29.3093 24.14ZM46.8011 28.5026C44.9183 27.3517 42.7438 25.706 41.743 24.6921C41.6882 24.6366 41.6345 24.582 41.5817 24.5285C40.827 23.7627 40.2753 23.2029 39.6253 22.7982C38.9782 22.3953 38.2009 22.1324 36.9901 22.1323C33.8618 22.1323 31.5063 24.346 30.752 25.5404L29.888 26.9084L29.0728 25.51C28.4721 24.4796 26.4091 22.1323 23.1149 22.1323C21.9444 22.1324 21.1572 22.3524 20.4839 22.7057C19.7762 23.0772 19.15 23.6151 18.2895 24.3711L18.244 24.411C17.2178 25.3127 14.7285 27.3531 12.8747 28.5026C18.2503 28.4173 24.227 28.104 29.6417 28.104C35.0283 28.104 41.1535 28.4396 46.8011 28.5026Z" fill="black" stroke="black" stroke-width="0.3"/>
<path d="M43.223 29.2591C43.223 29.2591 40.6479 30.2609 37.5246 31.3512C34.8943 32.2694 33.2761 33.7115 29.6784 33.7115C27.2182 33.7115 24.1884 32.3766 21.5089 31.3512C18.4026 30.1625 15.8105 29.2591 15.8105 29.2591C15.8105 29.2591 24.366 28.9894 29.6784 28.9894C34.9907 28.9894 43.223 29.2591 43.223 29.2591Z" fill="white"/>
<path fill-rule="evenodd" clip-rule="evenodd" d="M17.3034 34.6996C19.9889 37.0732 23.1567 40.7114 29.6623 40.7114C36.1804 40.7114 40.0873 37.1944 42.8481 34.9216C43.5447 34.3482 44.1883 33.7628 44.8182 33.1889L44.8475 33.1622C45.4642 32.6003 46.0709 32.0477 46.689 31.5437C47.9455 30.5192 49.2897 29.6611 50.9786 29.2834C48.1232 29.922 45.7222 33.7294 43.5302 35.5339C40.6354 37.9171 36.4957 41.5592 29.6623 41.5592C22.8163 41.5592 19.4087 37.7763 16.5965 35.2907C14.5787 33.5072 11.7981 29.4662 9.13086 28.9889C10.8978 29.3051 12.2717 30.157 13.5295 31.2034C14.1576 31.7259 14.7658 32.3047 15.3807 32.8964C15.4407 32.9541 15.5007 33.0119 15.5608 33.0698C16.121 33.6093 16.6909 34.1582 17.3034 34.6996Z" fill="black" stroke="black" stroke-width="0.3"/>
<path d="M20.5371 34.6682C22.3697 35.8893 23.9928 36.9151 26.2966 37.1105M36.6055 24.1287C38.1762 24.1289 39.2234 24.6174 40.2706 25.8382" stroke="black" stroke-linecap="round" stroke-linejoin="round"/>
</svg>
