<svg width="60" height="60" viewBox="0 0 60 60" fill="none" xmlns="http://www.w3.org/2000/svg">
<circle cx="30.0001" cy="30.0001" r="29.0001" fill="white" stroke="white" stroke-width="2"/>
<path d="M23.413 19C18.4265 19 18.9758 22.9986 10 26.8675C22.2461 24.9377 24.161 29.7773 29.8956 29.7773C35.6301 29.7773 35.7883 25.8099 50 27.1917C40.7748 23.8755 41.8634 19 36.6275 19C33.2307 19 30.7267 21.4871 29.8956 22.8688C29.2307 21.6713 27.0089 19 23.413 19Z" fill="white"/>
<path fill-rule="evenodd" clip-rule="evenodd" d="M29.3124 22.0081C28.2885 20.7109 26.2908 19 23.413 19C20.8937 19 19.7874 20.0207 18.1519 21.5296C16.9253 22.6612 15.4011 24.0675 12.7598 25.5238C11.9522 25.9692 11.04 26.4192 10 26.8675C11.0844 26.6966 12.0878 26.5788 13.02 26.506C18.743 26.0592 21.7831 27.3091 24.4138 28.3907C26.1938 29.1226 27.7863 29.7773 29.8956 29.7773C31.9725 29.7773 33.318 29.2569 34.8646 28.6587C37.2552 27.734 40.1264 26.6234 46.9225 26.9616C47.8691 27.0088 48.8918 27.084 50 27.1917C48.919 26.8031 47.9796 26.3931 47.1551 25.9721C44.3247 24.5267 42.8476 22.9511 41.641 21.6639C40.1993 20.1261 39.1437 19 36.6275 19C33.8458 19 31.6628 20.6679 30.507 22.0308C30.2514 22.3322 30.0461 22.6186 29.8956 22.8688C29.7628 22.6297 29.5679 22.3317 29.3124 22.0081ZM45.0519 25.9022C43.2587 24.7513 42.1072 23.574 41.1541 22.5601C41.1019 22.5046 41.0507 22.4501 41.0005 22.3966C40.2817 21.6308 39.7562 21.0709 39.1372 20.6662C38.5209 20.2633 37.7806 20.0004 36.6274 20.0004C33.6481 20.0004 31.4048 22.2141 30.6864 23.4085L29.8636 24.7764L29.0872 23.378C28.5151 22.3476 26.5503 20.0004 23.413 20.0004C22.2983 20.0004 21.5485 20.2204 20.9073 20.5738C20.2333 20.9452 19.6369 21.4831 18.8173 22.2391L18.7741 22.279C17.7967 23.1807 16.6193 24.267 14.8538 25.4165C18.2687 25.3596 20.6789 25.9363 22.6868 26.6498C23.3912 26.9 24.0401 27.1649 24.6475 27.4145C24.6806 27.4281 24.7136 27.4417 24.7465 27.4552C25.3217 27.6917 25.8551 27.911 26.3903 28.1035C27.5071 28.5053 28.5965 28.777 29.8956 28.777C31.798 28.777 32.9457 28.3327 34.4289 27.7586C35.0366 27.5234 35.7007 27.2663 36.496 27.0091C38.462 26.3733 40.9919 25.8546 45.0519 25.9022Z" fill="black" stroke="black" stroke-width="0.3"/>
<path fill-rule="evenodd" clip-rule="evenodd" d="M17.8787 32.5676C20.4363 34.9413 23.7504 37.1522 29.9461 37.1522C36.1538 37.1522 39.5776 35.0625 42.2069 32.7897C42.8704 32.2162 43.4833 31.6308 44.0832 31.0569L44.1111 31.0303C44.6985 30.4684 45.2762 29.9157 45.8649 29.4117C47.0615 28.3872 48.3418 27.5291 49.9502 27.1514C47.2308 27.7901 44.9441 31.5975 42.8565 33.402C40.0995 35.7851 36.4541 38 29.9461 38C23.4262 38 19.8837 35.6444 17.2054 33.1587C15.2837 31.3752 12.6356 27.3342 10.0954 26.8569C11.7781 27.1731 13.0867 28.025 14.2846 29.0714C14.8827 29.5939 15.4619 30.1727 16.0476 30.7644C16.1047 30.8221 16.1619 30.8799 16.2191 30.9378C16.7526 31.4773 17.2954 32.0262 17.8787 32.5676Z" fill="black" stroke="black" stroke-width="0.3"/>
<path d="M21.6677 32.3183C23.413 33.5394 24.9588 34.5651 27.1529 34.7605M35.8794 22.7935C37.3753 22.7937 38.3727 23.2821 39.37 24.503" stroke="black" stroke-linecap="round" stroke-linejoin="round"/>
<path d="M36.2773 44.0023L23.6265 44.0023" stroke="black" stroke-miterlimit="10" stroke-linecap="round" stroke-linejoin="round"/>
<path d="M25.1416 47L23 44L25.1416 41" stroke="black" stroke-miterlimit="10" stroke-linecap="round" stroke-linejoin="round"/>
<path d="M34.8584 47L37 44L34.8584 41" stroke="black" stroke-miterlimit="10" stroke-linecap="round" stroke-linejoin="round"/>
</svg>
