<svg width="60" height="60" viewBox="0 0 60 60" fill="none" xmlns="http://www.w3.org/2000/svg">
<circle cx="30.0002" cy="30.0001" r="29.0001" fill="white" stroke="white" stroke-width="2"/>
<g filter="url(#filter0_d_516_2081)">
<path d="M44.9992 16.6333C44.9992 18.5637 43.4755 20.4363 40.7297 21.856C38.0093 23.2626 34.2162 24.1475 29.9992 24.1475C25.7822 24.1475 21.9891 23.2626 19.2687 21.856C16.5229 20.4363 14.9992 18.5637 14.9992 16.6333C14.9992 14.7029 16.5229 12.8303 19.2687 11.4106C21.9891 10.004 25.7822 9.11914 29.9992 9.11914C34.2162 9.11914 38.0093 10.004 40.7297 11.4106C43.4755 12.8303 44.9992 14.7029 44.9992 16.6333Z" stroke="black"/>
<path d="M23.467 45.8315V30.2992L30.4107 25.609L37.6818 30.3058V45.8189L30.2634 50.6742L23.467 45.8315Z" fill="white" stroke="black"/>
<path d="M30.5012 25.7715V50.3931" stroke="black"/>
<path d="M26.6711 42.6466V33.8766L30.4822 31.3023L34.4777 33.8832V42.634L30.3995 45.3032L26.6711 42.6466Z" fill="white" stroke="black"/>
<circle cx="30.4992" cy="23.625" r="1.5" fill="#CAC9C9" stroke="black"/>
<path d="M24.536 30.7467L28.9717 27.8684C29.1047 27.7821 29.2805 27.8776 29.2805 28.0362V29.6151C29.2805 29.6878 29.2411 29.7548 29.1775 29.79L25.316 31.9315C25.2589 31.9632 25.2209 32.0193 25.214 32.0843C25.1418 32.7651 24.7209 36.6165 24.4505 36.5544C24.1769 36.4915 24.4078 31.6546 24.4455 30.9006C24.4487 30.8366 24.4823 30.7816 24.536 30.7467Z" fill="#CAC9C9"/>
<path d="M27.8234 34.5452L29.5484 33.2517C29.6803 33.1528 29.8684 33.2469 29.8684 33.4117V43.0455C29.8684 43.2165 29.6678 43.3086 29.5381 43.1972L27.8131 41.7154C27.7689 41.6774 27.7434 41.622 27.7434 41.5637V34.7052C27.7434 34.6423 27.7731 34.583 27.8234 34.5452Z" fill="#CAC9C9"/>
</g>
<defs>
<filter id="filter0_d_516_2081" x="13.4992" y="8.61914" width="32" height="44.1602" filterUnits="userSpaceOnUse" color-interpolation-filters="sRGB">
<feFlood flood-opacity="0" result="BackgroundImageFix"/>
<feColorMatrix in="SourceAlpha" type="matrix" values="0 0 0 0 0 0 0 0 0 0 0 0 0 0 0 0 0 0 127 0" result="hardAlpha"/>
<feOffset dx="-1" dy="1.5"/>
<feComposite in2="hardAlpha" operator="out"/>
<feColorMatrix type="matrix" values="0 0 0 0 0 0 0 0 0 0 0 0 0 0 0 0 0 0 0.25 0"/>
<feBlend mode="normal" in2="BackgroundImageFix" result="effect1_dropShadow_516_2081"/>
<feBlend mode="normal" in="SourceGraphic" in2="effect1_dropShadow_516_2081" result="shape"/>
</filter>
</defs>
</svg>
