<svg width="61" height="61" viewBox="0 0 61 61" fill="none" xmlns="http://www.w3.org/2000/svg">
<circle cx="30.796" cy="30.3028" r="29.0001" fill="white" stroke="white" stroke-width="2"/>
<path d="M15.0275 36.9626C14.3239 33.5525 20.6805 29.8157 24.1747 15.4645C27.9783 12.98 35.9686 13.7737 37.3935 15.4654C40.352 28.6682 47.9085 33.7208 46.0098 39.169C44.1112 44.6172 39.4885 42.9177 38.1677 42.9177C36.847 42.9177 37.0121 42.471 37.0121 40.6549C36.0215 42.8837 33.7799 45.1313 30.3954 45.0488C27.6878 44.9828 25.953 42.9593 25.4498 41.9136C24.9686 42.2225 22.5697 42.7734 19.5384 42.9177C15.7494 43.0982 15.2136 37.8646 15.0275 36.9626Z" fill="white"/>
<path fill-rule="evenodd" clip-rule="evenodd" d="M25.0831 15.0609C25.0211 15.4032 24.8879 15.7406 24.7888 16.0553C21.1296 29.6132 16.5365 35.5363 17.9043 33.7408C15.5012 36.7913 16.5676 38.8164 17.9043 40.6332C20.4636 42.5817 24.0189 39.5455 24.535 40.8008C24.6608 41.1066 25.9893 42.0835 25.6692 42.2036C21.0233 43.9478 17.8391 43.2103 16.0663 40.8008C14.3174 38.4237 14.6399 34.823 17.238 31.5188C20.5919 26.881 22.6407 20.5924 24.1771 15.7119C24.2762 15.3973 25.145 14.7185 25.0831 15.0609Z" fill="#D9D9D9"/>
<path fill-rule="evenodd" clip-rule="evenodd" d="M24.3843 15.2538C24.6594 15.3365 24.6235 15.4473 24.5469 15.6841L24.5469 15.6841C24.5359 15.7182 24.524 15.7548 24.5121 15.7944L24.448 16.0075C22.9801 20.8887 20.8376 28.0133 17.5603 32.7512L17.5535 32.761L17.5463 32.7706C15.2501 35.8211 15.3111 38.6686 16.5884 40.4854C17.8377 42.2625 20.4734 43.3628 24.5924 41.7673C24.5354 41.6921 24.4793 41.618 24.4241 41.5451C24.3214 41.4093 24.222 41.2779 24.1259 41.1527C23.6691 40.5581 23.2994 40.1238 22.9505 39.8779C22.1517 39.1122 21.455 38.7074 21.1803 38.5668C21.1572 38.555 21.1338 38.5429 21.1101 38.5306C20.8504 38.396 20.5458 38.238 20.1627 38.239C19.8672 38.2397 19.4454 38.239 19.4454 38.239C19.4454 38.239 19.7482 37.8922 20.1627 37.7861C20.5771 37.6799 21.0225 37.6392 21.5359 37.7847C22.1069 37.9466 22.7459 38.2778 23.6361 38.9053C24.1538 39.2703 24.624 39.848 25.0695 40.4279C25.1761 40.5666 25.2824 40.7072 25.3895 40.8487L25.3898 40.8491L25.3898 40.8491C25.75 41.325 26.1185 41.812 26.5344 42.2818C27.6012 43.4869 28.8707 44.4495 30.7001 44.4495C32.887 44.4495 34.3229 43.44 35.398 42.2512C35.9422 41.6494 36.3865 41.0094 36.7919 40.4229L36.8363 40.3585L36.8364 40.3585C37.2063 39.8227 37.5818 39.2791 37.9656 38.9437C39.3214 37.7586 40.5351 37.7766 41.3079 37.788C41.3791 37.7891 41.4465 37.7901 41.51 37.7901C41.8386 37.7901 42.1049 38.1304 42.1049 38.239C42.1049 38.289 42.0633 38.2799 41.9793 38.2616C41.8811 38.2401 41.725 38.206 41.51 38.239C40.3596 38.4153 39.9771 38.7537 39.0808 39.5469C38.9775 39.6383 38.8675 39.7357 38.7486 39.8396C38.4884 40.067 38.1935 40.4876 37.7707 41.0994C37.6076 41.3355 37.4307 41.5914 37.2377 41.8568C41.2208 43.3174 43.7792 42.1753 45.0044 40.4326C46.2816 38.6158 46.3427 35.8211 44.0464 32.7706L44.0393 32.761L44.0325 32.7512C40.7079 27.9449 38.5453 20.7559 37.0759 15.8709L37.075 15.8677L37.0567 15.8079C36.9708 15.527 36.9143 15.3423 37.2085 15.2538C37.5232 15.1591 37.855 15.3375 37.9496 15.6522C39.4177 20.5326 41.7997 27.4268 45.0044 32.0647C47.487 35.3689 47.7951 38.9696 46.124 41.3466C44.43 43.7562 40.9381 44.593 36.4988 42.8488C36.4885 42.8448 36.4785 42.8405 36.4686 42.836C36.4072 42.9074 36.3445 42.9785 36.2805 43.0493C35.0602 44.3987 33.3269 45.6394 30.7001 45.6394C28.3757 45.6394 26.8084 44.3865 25.6435 43.0706C25.533 42.9457 25.4251 42.8191 25.3198 42.692C25.2598 42.7592 25.1836 42.8137 25.094 42.8488C20.6547 44.593 17.1627 43.7562 15.4688 41.3466C13.7977 38.9696 14.1058 35.3689 16.5884 32.0647C19.7931 27.4268 22.1751 20.5326 23.6432 15.6522C23.7378 15.3375 24.0696 15.1591 24.3843 15.2538Z" fill="black"/>
<path d="M27.4959 41.5501C27.4959 40.7639 29.0795 40.7409 30.5725 40.7409C32.0654 40.7409 34.0957 40.6882 34.0957 41.4743C34.0957 42.2605 32.0654 43.5879 30.5725 43.5879C29.0795 43.5879 27.4959 42.3362 27.4959 41.5501Z" fill="#D9D9D9"/>
<path d="M36.7305 49.4805H24.7718" stroke="black" stroke-miterlimit="10" stroke-linecap="round" stroke-linejoin="round"/>
<path d="M26.2041 52.1385L24.1797 49.4784L26.2041 46.8184" stroke="black" stroke-miterlimit="10" stroke-linecap="round" stroke-linejoin="round"/>
<path d="M35.3892 52.1385L37.4136 49.4784L35.3892 46.8184" stroke="black" stroke-miterlimit="10" stroke-linecap="round" stroke-linejoin="round"/>
<path d="M32.4767 27.0234C32.4767 33.1298 32.4769 38.0788 31.2069 38.0801C28.1889 38.0831 29.332 33.1298 29.332 27.0234C29.332 20.917 28.0522 15.9668 31.2069 15.9668C32.8737 15.9668 32.4767 20.917 32.4767 27.0234Z" fill="#D9D9D9"/>
</svg>
