<svg width="61" height="61" viewBox="0 0 61 61" fill="none" xmlns="http://www.w3.org/2000/svg">
<circle cx="30.796" cy="30.0215" r="29.0001" fill="white" stroke="white" stroke-width="2"/>
<path d="M15.0275 36.6813C14.3239 33.2712 20.6805 29.5344 24.1747 15.1832C27.9783 12.6988 35.9686 13.4924 37.3935 15.1841C40.352 28.3869 47.9085 33.4396 46.0098 38.8878C44.1112 44.336 39.4885 42.6365 38.1677 42.6365C36.847 42.6365 37.0121 42.1897 37.0121 40.3737C36.0215 42.6025 33.7799 44.8501 30.3954 44.7675C27.6878 44.7015 25.953 42.678 25.4498 41.6324C24.9686 41.9413 22.5697 42.4922 19.5384 42.6365C15.7494 42.8169 15.2136 37.5833 15.0275 36.6813Z" fill="white"/>
<path fill-rule="evenodd" clip-rule="evenodd" d="M25.0831 14.7796C25.0211 15.122 24.8879 15.4594 24.7888 15.774C21.1296 29.332 16.5365 35.255 17.9043 33.4595C15.5012 36.51 16.5676 38.5352 17.9043 40.352C20.4636 42.3005 24.0189 39.2642 24.535 40.5195C24.6608 40.8254 25.9893 41.8022 25.6692 41.9224C21.0233 43.6665 17.8391 42.9291 16.0663 40.5195C14.3174 38.1425 14.6399 34.5418 17.238 31.2376C20.5919 26.5997 22.6407 20.3111 24.1771 15.4307C24.2762 15.116 25.145 14.4373 25.0831 14.7796Z" fill="#D9D9D9"/>
<path fill-rule="evenodd" clip-rule="evenodd" d="M24.3843 14.9725C24.6594 15.0553 24.6235 15.166 24.5469 15.4028L24.5469 15.4028C24.5359 15.4369 24.524 15.4736 24.5121 15.5131L24.448 15.7263C22.9801 20.6075 20.8376 27.732 17.5603 32.47L17.5535 32.4798L17.5463 32.4893C15.2501 35.5398 15.3111 38.3874 16.5884 40.2042C17.8377 41.9813 20.4734 43.0816 24.5924 41.486C24.5354 41.4109 24.4793 41.3367 24.4241 41.2638C24.3214 41.128 24.222 40.9966 24.1259 40.8715C23.6691 40.2769 23.2994 39.8426 22.9505 39.5966C22.1517 38.8309 21.455 38.4262 21.1803 38.2856C21.1572 38.2738 21.1338 38.2616 21.1101 38.2493C20.8504 38.1147 20.5458 37.9568 20.1627 37.9577C19.8672 37.9585 19.4454 37.9577 19.4454 37.9577C19.4454 37.9577 19.7482 37.611 20.1627 37.5048C20.5771 37.3987 21.0225 37.3579 21.5359 37.5035C22.1069 37.6654 22.7459 37.9966 23.6361 38.6241C24.1538 38.989 24.624 39.5668 25.0695 40.1466C25.1761 40.2854 25.2824 40.4259 25.3895 40.5674L25.3898 40.5678L25.3898 40.5678C25.75 41.0437 26.1185 41.5308 26.5344 42.0006C27.6012 43.2057 28.8707 44.1683 30.7001 44.1683C32.887 44.1682 34.3229 43.1588 35.398 41.97C35.9422 41.3681 36.3865 40.7282 36.7919 40.1416L36.8363 40.0772L36.8364 40.0772C37.2063 39.5415 37.5818 38.9978 37.9656 38.6624C39.3214 37.4773 40.5351 37.4953 41.3079 37.5068C41.3791 37.5078 41.4465 37.5088 41.51 37.5088C41.8386 37.5088 42.1049 37.8492 42.1049 37.9577C42.1049 38.0078 42.0633 37.9987 41.9793 37.9803C41.8811 37.9589 41.725 37.9248 41.51 37.9577C40.3596 38.1341 39.9771 38.4725 39.0808 39.2657C38.9775 39.357 38.8675 39.4544 38.7486 39.5583C38.4884 39.7858 38.1935 40.2064 37.7707 40.8181C37.6076 41.0543 37.4307 41.3102 37.2377 41.5755C41.2208 43.0362 43.7792 41.894 45.0044 40.1513C46.2816 38.3345 46.3427 35.5398 44.0464 32.4893L44.0393 32.4798L44.0325 32.47C40.7079 27.6636 38.5453 20.4746 37.0759 15.5897L37.075 15.5865L37.0567 15.5266C36.9708 15.2457 36.9143 15.0611 37.2085 14.9725C37.5232 14.8779 37.855 15.0562 37.9496 15.3709C39.4177 20.2513 41.7997 27.1456 45.0044 31.7834C47.487 35.0877 47.7951 38.6884 46.124 41.0654C44.43 43.4749 40.9381 44.3117 36.4988 42.5676C36.4885 42.5636 36.4785 42.5593 36.4686 42.5548C36.4072 42.6261 36.3445 42.6973 36.2805 42.7681C35.0602 44.1175 33.3269 45.3581 30.7001 45.3582C28.3757 45.3582 26.8084 44.1052 25.6435 42.7893C25.533 42.6645 25.4251 42.5379 25.3198 42.4108C25.2598 42.4779 25.1836 42.5324 25.094 42.5676C20.6547 44.3117 17.1627 43.4749 15.4688 41.0654C13.7977 38.6884 14.1058 35.0877 16.5884 31.7834C19.7931 27.1456 22.1751 20.2513 23.6432 15.3709C23.7378 15.0562 24.0696 14.8779 24.3843 14.9725Z" fill="black"/>
<path d="M27.4969 41.2688C27.4969 40.4826 29.0805 40.4596 30.5734 40.4596C32.0664 40.4596 34.0967 40.4069 34.0967 41.1931C34.0967 41.9793 32.0664 43.3066 30.5734 43.3066C29.0805 43.3066 27.4969 42.055 27.4969 41.2688Z" fill="#D9D9D9"/>
<path d="M32.3224 26.7422C32.3224 32.8486 32.3226 37.7975 31.0526 37.7988C28.0346 37.8019 29.1777 32.8486 29.1777 26.7422C29.1777 20.6358 27.8979 15.6855 31.0526 15.6855C32.7194 15.6855 32.3224 20.6358 32.3224 26.7422Z" fill="#D9D9D9"/>
<path d="M23.6101 30.0931L37.7348 30.0892" stroke="black" stroke-miterlimit="10" stroke-linecap="round" stroke-linejoin="round"/>
<path d="M36.3027 27.4318L38.3271 30.0919L36.3027 32.752" stroke="black" stroke-miterlimit="10" stroke-linecap="round" stroke-linejoin="round"/>
<path d="M24.984 27.4318L22.9596 30.0919L24.984 32.752" stroke="black" stroke-miterlimit="10" stroke-linecap="round" stroke-linejoin="round"/>
</svg>
