<svg width="61" height="61" viewBox="0 0 61 61" fill="none" xmlns="http://www.w3.org/2000/svg">
<circle cx="30.796" cy="30.7442" r="29.0001" fill="white" stroke="white" stroke-width="2"/>
<path d="M15.0275 37.404C14.3239 33.9939 20.6805 30.2571 24.1747 15.9059C27.9783 13.4214 35.9686 14.2151 37.3935 15.9068C40.352 29.1096 47.9085 34.1622 46.0098 39.6104C44.1112 45.0587 39.4885 43.3592 38.1677 43.3592C36.847 43.3592 37.0121 42.9124 37.0121 41.0963C36.0215 43.3251 33.7799 45.5728 30.3954 45.4902C27.6878 45.4242 25.953 43.4007 25.4498 42.355C24.9686 42.664 22.5697 43.2148 19.5384 43.3592C15.7494 43.5396 15.2136 38.306 15.0275 37.404Z" fill="white"/>
<path fill-rule="evenodd" clip-rule="evenodd" d="M25.0831 15.5023C25.0211 15.8447 24.8879 16.182 24.7888 16.4967C21.1296 30.0546 16.5365 35.9777 17.9043 34.1822C15.5012 37.2327 16.5676 39.2578 17.9043 41.0746C20.4636 43.0231 24.0189 39.9869 24.535 41.2422C24.6608 41.548 25.9893 42.5249 25.6692 42.6451C21.0233 44.3892 17.8391 43.6517 16.0663 41.2422C14.3174 38.8652 14.6399 35.2645 17.238 31.9602C20.5919 27.3224 22.6407 21.0338 24.1771 16.1533C24.2762 15.8387 25.145 15.1599 25.0831 15.5023Z" fill="#D9D9D9"/>
<path fill-rule="evenodd" clip-rule="evenodd" d="M24.3843 15.6952C24.6594 15.778 24.6235 15.8887 24.5469 16.1255L24.5469 16.1255C24.5359 16.1596 24.524 16.1962 24.5121 16.2358L24.448 16.4489C22.9801 21.3301 20.8376 28.4547 17.5603 33.1926L17.5535 33.2024L17.5463 33.212C15.2501 36.2625 15.3111 39.1101 16.5884 40.9269C17.8377 42.7039 20.4734 43.8042 24.5924 42.2087C24.5354 42.1335 24.4793 42.0594 24.4241 41.9865C24.3214 41.8507 24.222 41.7193 24.1259 41.5941C23.6691 40.9995 23.2994 40.5653 22.9505 40.3193C22.1517 39.5536 21.455 39.1488 21.1803 39.0082C21.1572 38.9964 21.1338 38.9843 21.1101 38.972C20.8504 38.8374 20.5458 38.6794 20.1627 38.6804C19.8672 38.6811 19.4454 38.6804 19.4454 38.6804C19.4454 38.6804 19.7482 38.3336 20.1627 38.2275C20.5771 38.1213 21.0225 38.0806 21.5359 38.2262C22.1069 38.388 22.7459 38.7192 23.6361 39.3467C24.1538 39.7117 24.624 40.2894 25.0695 40.8693C25.1761 41.008 25.2824 41.1486 25.3895 41.2901L25.3898 41.2905L25.3898 41.2905C25.75 41.7664 26.1185 42.2534 26.5344 42.7233C27.6012 43.9283 28.8707 44.8909 30.7001 44.8909C32.887 44.8909 34.3229 43.8814 35.398 42.6926C35.9422 42.0908 36.3865 41.4509 36.7919 40.8643L36.8363 40.7999L36.8364 40.7999C37.2063 40.2641 37.5818 39.7205 37.9656 39.3851C39.3214 38.2 40.5351 38.218 41.3079 38.2294C41.3791 38.2305 41.4465 38.2315 41.51 38.2315C41.8386 38.2315 42.1049 38.5718 42.1049 38.6804C42.1049 38.7304 42.0633 38.7213 41.9793 38.703C41.8811 38.6815 41.725 38.6474 41.51 38.6804C40.3596 38.8567 39.9771 39.1952 39.0808 39.9883C38.9775 40.0797 38.8675 40.1771 38.7486 40.281C38.4884 40.5084 38.1935 40.929 37.7707 41.5408C37.6076 41.7769 37.4307 42.0328 37.2377 42.2982C41.2208 43.7588 43.7792 42.6167 45.0044 40.874C46.2816 39.0572 46.3427 36.2625 44.0464 33.212L44.0393 33.2024L44.0325 33.1926C40.7079 28.3863 38.5453 21.1973 37.0759 16.3123L37.075 16.3091L37.0567 16.2493C36.9708 15.9684 36.9143 15.7837 37.2085 15.6952C37.5232 15.6006 37.855 15.7789 37.9496 16.0936C39.4177 20.974 41.7997 27.8683 45.0044 32.5061C47.487 35.8103 47.7951 39.411 46.124 41.7881C44.43 44.1976 40.9381 45.0344 36.4988 43.2903C36.4885 43.2862 36.4785 43.282 36.4686 43.2774C36.4072 43.3488 36.3445 43.4199 36.2805 43.4907C35.0602 44.8402 33.3269 46.0808 30.7001 46.0808C28.3757 46.0808 26.8084 44.8279 25.6435 43.512C25.533 43.3871 25.4251 43.2605 25.3198 43.1335C25.2598 43.2006 25.1836 43.2551 25.094 43.2903C20.6547 45.0344 17.1627 44.1976 15.4688 41.7881C13.7977 39.411 14.1058 35.8103 16.5884 32.5061C19.7931 27.8683 22.1751 20.974 23.6432 16.0936C23.7378 15.7789 24.0696 15.6006 24.3843 15.6952Z" fill="black"/>
<path d="M27.4959 41.9915C27.4959 41.2053 29.0795 41.1823 30.5725 41.1823C32.0654 41.1823 34.0957 41.1296 34.0957 41.9157C34.0957 42.7019 32.0654 44.0293 30.5725 44.0293C29.0795 44.0293 27.4959 42.7777 27.4959 41.9915Z" fill="#D9D9D9"/>
<path d="M32.3234 27.4648C32.3234 33.5713 32.3236 38.5202 31.0536 38.5215C28.0356 38.5245 29.1787 33.5713 29.1787 27.4648C29.1787 21.3584 27.8989 16.4082 31.0536 16.4082C32.7204 16.4082 32.3234 21.3584 32.3234 27.4648Z" fill="#D9D9D9"/>
<path d="M30.7947 20.3259L30.7985 34.4506" stroke="black" stroke-miterlimit="10" stroke-linecap="round" stroke-linejoin="round"/>
<path d="M33.4559 33.0186L30.7958 35.043L28.1357 33.0186" stroke="black" stroke-miterlimit="10" stroke-linecap="round" stroke-linejoin="round"/>
<path d="M33.4559 21.6998L30.7958 19.6754L28.1357 21.6998" stroke="black" stroke-miterlimit="10" stroke-linecap="round" stroke-linejoin="round"/>
</svg>
