<svg width="60" height="60" viewBox="0 0 60 60" fill="none" xmlns="http://www.w3.org/2000/svg">
<circle cx="30" cy="30" r="29" fill="white" stroke="white" stroke-width="2"/>
<g filter="url(#filter0_d_516_409)">
<rect x="11.668" y="12.3428" width="34.2168" height="34.2168" rx="4" fill="white" stroke="black"/>
<rect x="14.8027" y="14.8057" width="34.2168" height="34.2168" rx="4" fill="white" stroke="black"/>
<rect x="14.8027" y="14.8057" width="34.2168" height="34.2168" rx="4" fill="white" stroke="black"/>
</g>
<rect x="14.8027" y="14.8057" width="34.2168" height="34.2168" rx="4" fill="white" stroke="black"/>
<path d="M20.6317 33.8945C20.2843 33.8945 20.0001 34.1787 20.0001 34.5261C20.0001 34.8735 20.2843 35.1577 20.6317 35.1577C20.9791 35.1577 21.2633 34.8735 21.2633 34.5261C21.2633 34.1787 20.979 33.8945 20.6317 33.8945Z" fill="black"/>
<path d="M20.6317 28.8418C20.2843 28.8418 20.0001 29.126 20.0001 29.4734C20.0001 29.8208 20.2843 30.105 20.6317 30.105C20.9791 30.105 21.2633 29.8208 21.2633 29.4734C21.2633 29.126 20.979 28.8418 20.6317 28.8418Z" fill="black"/>
<path d="M29.4738 42.7373C29.1264 42.7373 28.8422 43.0215 28.8422 43.3689C28.8422 43.7163 29.1264 44.0005 29.4738 44.0005C29.8211 44.0005 30.1054 43.7163 30.1054 43.3689C30.1054 43.0215 29.8211 42.7373 29.4738 42.7373Z" fill="black"/>
<path d="M24.4212 23.1582C23.7265 23.1582 23.1581 23.7266 23.1581 24.4213C23.1581 25.116 23.7264 25.6845 24.4212 25.6845C25.116 25.6845 25.6843 25.1161 25.6843 24.4214C25.6843 23.7267 25.1159 23.1582 24.4212 23.1582Z" fill="black"/>
<path d="M24.4212 28.2109C23.7265 28.2109 23.1581 28.7794 23.1581 29.4741C23.1581 30.1688 23.7265 30.7372 24.4212 30.7372C25.1159 30.7372 25.6843 30.1688 25.6843 29.4741C25.6843 28.7794 25.1159 28.2109 24.4212 28.2109Z" fill="black"/>
<path d="M24.4212 33.2627C23.7265 33.2627 23.1581 33.8311 23.1581 34.5258C23.1581 35.2205 23.7265 35.789 24.4212 35.789C25.1159 35.789 25.6843 35.2206 25.6843 34.5258C25.6843 33.8311 25.1159 33.2627 24.4212 33.2627Z" fill="black"/>
<path d="M43.3684 30.105C43.7158 30.105 44 29.8208 44 29.4734C44 29.126 43.7158 28.8418 43.3684 28.8418C43.021 28.8418 42.7368 29.126 42.7368 29.4734C42.7368 29.8208 43.021 30.105 43.3684 30.105Z" fill="black"/>
<path d="M34.5264 21.2631C34.8738 21.2631 35.158 20.9789 35.158 20.6315C35.158 20.2842 34.8738 20 34.5264 20C34.179 20 33.8948 20.2842 33.8948 20.6316C33.8948 20.9789 34.179 21.2631 34.5264 21.2631Z" fill="black"/>
<path d="M29.4738 25.6845C30.1685 25.6845 30.737 25.116 30.737 24.4213C30.737 23.7266 30.1685 23.1582 29.4738 23.1582C28.7791 23.1582 28.2107 23.7266 28.2107 24.4213C28.2107 25.116 28.7791 25.6845 29.4738 25.6845Z" fill="black"/>
<path d="M29.4738 21.2631C29.8211 21.2631 30.1054 20.9789 30.1054 20.6315C30.1054 20.2842 29.8211 20 29.4738 20C29.1264 20 28.8422 20.2842 28.8422 20.6316C28.8422 20.9789 29.1264 21.2631 29.4738 21.2631Z" fill="black"/>
<path d="M34.5263 25.6845C35.221 25.6845 35.7894 25.116 35.7894 24.4213C35.7894 23.7266 35.221 23.1582 34.5263 23.1582C33.8316 23.1582 33.2632 23.7266 33.2632 24.4213C33.2632 25.116 33.8316 25.6845 34.5263 25.6845Z" fill="black"/>
<path d="M24.4212 38.3154C23.7265 38.3154 23.1581 38.8838 23.1581 39.5786C23.1581 40.2733 23.7265 40.8417 24.4212 40.8417C25.1159 40.8417 25.6843 40.2733 25.6843 39.5786C25.6843 38.8838 25.1159 38.3154 24.4212 38.3154Z" fill="black"/>
<path d="M34.5264 27.5791C33.478 27.5791 32.6317 28.4254 32.6317 29.4738C32.6317 30.5223 33.478 31.3686 34.5264 31.3686C35.5749 31.3686 36.4212 30.5223 36.4212 29.4738C36.4212 28.4254 35.5749 27.5791 34.5264 27.5791Z" fill="black"/>
<path d="M39.579 33.2627C38.8843 33.2627 38.3159 33.8311 38.3159 34.5258C38.3159 35.2205 38.8843 35.789 39.579 35.789C40.2738 35.789 40.8422 35.2205 40.8422 34.5258C40.8422 33.8311 40.2738 33.2627 39.579 33.2627Z" fill="black"/>
<path d="M39.579 38.3154C38.8843 38.3154 38.3159 38.8838 38.3159 39.5786C38.3159 40.2733 38.8843 40.8417 39.579 40.8417C40.2738 40.8417 40.8422 40.2733 40.8422 39.5786C40.8422 38.8838 40.2738 38.3154 39.579 38.3154Z" fill="black"/>
<path d="M39.579 28.2109C38.8843 28.2109 38.3159 28.7794 38.3159 29.4741C38.3159 30.1688 38.8843 30.7372 39.579 30.7372C40.2738 30.7372 40.8422 30.1688 40.8422 29.4741C40.8422 28.7794 40.2738 28.2109 39.579 28.2109Z" fill="black"/>
<path d="M43.3684 33.8945C43.021 33.8945 42.7368 34.1787 42.7368 34.5261C42.7368 34.8735 43.021 35.1577 43.3684 35.1577C43.7158 35.1577 44 34.8735 44 34.5261C43.9999 34.1787 43.7157 33.8945 43.3684 33.8945Z" fill="black"/>
<path d="M39.579 23.1582C38.8843 23.1582 38.3159 23.7266 38.3159 24.4213C38.3159 25.116 38.8843 25.6845 39.579 25.6845C40.2738 25.6845 40.8422 25.1161 40.8422 24.4214C40.8422 23.7267 40.2738 23.1582 39.579 23.1582Z" fill="black"/>
<path d="M29.4737 32.6318C28.4253 32.6318 27.579 33.4781 27.579 34.5266C27.579 35.575 28.4253 36.4213 29.4737 36.4213C30.5221 36.4213 31.3684 35.575 31.3684 34.5266C31.3684 33.4781 30.5221 32.6318 29.4737 32.6318Z" fill="black"/>
<path d="M29.4738 38.3154C28.7791 38.3154 28.2107 38.8838 28.2107 39.5786C28.2107 40.2733 28.7791 40.8417 29.4738 40.8417C30.1685 40.8417 30.737 40.2733 30.737 39.5786C30.737 38.8838 30.1685 38.3154 29.4738 38.3154Z" fill="black"/>
<path d="M29.4737 27.5791C28.4253 27.5791 27.579 28.4254 27.579 29.4738C27.579 30.5223 28.4253 31.3686 29.4737 31.3686C30.5221 31.3686 31.3684 30.5223 31.3684 29.4738C31.3684 28.4254 30.5221 27.5791 29.4737 27.5791Z" fill="black"/>
<path d="M34.5263 38.3154C33.8316 38.3154 33.2632 38.8838 33.2632 39.5786C33.2632 40.2733 33.8316 40.8417 34.5263 40.8417C35.221 40.8417 35.7894 40.2733 35.7894 39.5786C35.7895 38.8838 35.2211 38.3154 34.5263 38.3154Z" fill="black"/>
<path d="M34.5264 42.7373C34.179 42.7373 33.8948 43.0215 33.8948 43.3689C33.8948 43.7163 34.179 44.0005 34.5264 44.0005C34.8738 44.0005 35.158 43.7163 35.158 43.3689C35.158 43.0215 34.8738 42.7373 34.5264 42.7373Z" fill="black"/>
<path d="M34.5264 32.6318C33.478 32.6318 32.6317 33.4781 32.6317 34.5266C32.6317 35.575 33.478 36.4213 34.5264 36.4213C35.5749 36.4213 36.4212 35.575 36.4212 34.5266C36.4212 33.4781 35.5749 32.6318 34.5264 32.6318Z" fill="black"/>
<defs>
<filter id="filter0_d_516_409" x="10.168" y="11.8428" width="39.3516" height="39.1797" filterUnits="userSpaceOnUse" color-interpolation-filters="sRGB">
<feFlood flood-opacity="0" result="BackgroundImageFix"/>
<feColorMatrix in="SourceAlpha" type="matrix" values="0 0 0 0 0 0 0 0 0 0 0 0 0 0 0 0 0 0 127 0" result="hardAlpha"/>
<feOffset dx="-1" dy="1.5"/>
<feComposite in2="hardAlpha" operator="out"/>
<feColorMatrix type="matrix" values="0 0 0 0 0 0 0 0 0 0 0 0 0 0 0 0 0 0 0.25 0"/>
<feBlend mode="normal" in2="BackgroundImageFix" result="effect1_dropShadow_516_409"/>
<feBlend mode="normal" in="SourceGraphic" in2="effect1_dropShadow_516_409" result="shape"/>
</filter>
</defs>
</svg>
