<svg width="60" height="60" viewBox="0 0 60 60" fill="none" xmlns="http://www.w3.org/2000/svg">
<circle cx="30" cy="30" r="29" fill="white" stroke="white" stroke-width="2"/>
<g filter="url(#filter0_d_515_3696)">
<rect x="11.668" y="12.3428" width="34.2168" height="34.2168" rx="4" fill="white" stroke="black"/>
<rect x="14.8027" y="14.8057" width="34.2168" height="34.2168" rx="4" fill="white" stroke="black"/>
</g>
<path d="M25.082 24.5785C26.2559 23.8408 26.5216 23.0522 26.5378 22.5205C26.5773 21.2271 25.2644 20.2805 25.1146 20.1769C24.7434 19.92 24.1747 19.9459 23.8445 20.2348C23.5143 20.5236 23.5476 20.9659 23.9189 21.2228C23.9273 21.2287 24.759 21.8341 24.7391 22.4874C24.7285 22.8354 24.8342 23.1418 24.3147 23.4682C23.1409 24.2059 23.0587 25.0546 23.1574 25.5809C23.295 26.3153 24.7391 28.2117 25.189 27.8335C25.6142 27.6333 24.2715 26.3335 24.2944 25.5809C24.3049 25.2328 24.5626 24.9049 25.082 24.5785Z" fill="black"/>
<path d="M30.1215 24.5785C31.2953 23.8408 31.5611 23.0522 31.5772 22.5205C31.6167 21.2271 30.3039 20.2805 30.154 20.1769C29.7828 19.92 29.2142 19.9459 28.8839 20.2348C28.5538 20.5236 28.5871 20.9659 28.9583 21.2228C28.9667 21.2287 29.7985 21.8341 29.7785 22.4874C29.7679 22.8354 29.8736 23.1418 29.3542 23.4682C28.1803 24.2059 28.0981 25.0546 28.1968 25.5809C28.3345 26.3153 29.7785 28.2117 30.2285 27.8335C30.6536 27.6333 29.3109 26.3335 29.3339 25.5809C29.3444 25.2328 29.602 24.9049 30.1215 24.5785Z" fill="black"/>
<path d="M35.1574 24.5785C36.3312 23.8408 36.597 23.0522 36.6131 22.5205C36.6526 21.2271 35.3397 20.2805 35.1899 20.1769C34.8187 19.92 34.2501 19.9459 33.9198 20.2348C33.5897 20.5236 33.6229 20.9659 33.9942 21.2228C34.0026 21.2287 34.8344 21.8341 34.8144 22.4874C34.8038 22.8354 34.9095 23.1418 34.3901 23.4682C33.2162 24.2059 33.134 25.0546 33.2327 25.5809C33.3704 26.3153 34.8144 28.2117 35.2644 27.8335C35.6895 27.6333 34.3468 26.3335 34.3698 25.5809C34.3803 25.2328 34.6379 24.9049 35.1574 24.5785Z" fill="black"/>
<path d="M21.3184 43.1074H40.3184" stroke="black" stroke-linecap="round" stroke-linejoin="round"/>
<path d="M21.6278 30V29.5C21.3746 29.5 21.1613 29.6894 21.1314 29.9409L21.6278 30ZM39.6746 30L40.1717 29.9461C40.1442 29.6923 39.9299 29.5 39.6746 29.5V30ZM21.998 33.2882C21.998 32.1259 22.0069 31.0458 22.1243 30.0591L21.1314 29.9409C21.0059 30.995 20.998 32.1323 20.998 33.2882H21.998ZM30.6416 41.9318C25.8679 41.9318 21.998 38.0619 21.998 33.2882H20.998C20.998 38.6142 25.3156 42.9318 30.6416 42.9318V41.9318ZM39.2852 33.2882C39.2852 38.0619 35.4153 41.9318 30.6416 41.9318V42.9318C35.9676 42.9318 40.2852 38.6142 40.2852 33.2882H39.2852ZM39.2852 33.2881V33.2882H40.2852V33.2881H39.2852ZM39.1775 30.0539C39.2846 31.0423 39.2852 32.1226 39.2852 33.2881H40.2852C40.2852 32.1354 40.2857 30.9984 40.1717 29.9461L39.1775 30.0539ZM39.6746 29.5H21.6278V30.5H39.6746V29.5Z" fill="black"/>
<path d="M39.1981 36.9943L38.7087 36.892C38.6578 37.1354 38.7935 37.3791 39.0272 37.4641L39.1981 36.9943ZM41.0469 31.0596L41.0589 30.5598L41.0469 31.0596ZM41.0469 31.0596L41.0349 31.5595L41.0469 31.0596ZM39.7629 31.0892L39.6985 30.5934C39.4431 30.6266 39.2548 30.8482 39.2632 31.1056L39.7629 31.0892ZM39.8104 32.5382L39.3107 32.5546L39.8104 32.5382ZM39.5838 35.1485L39.0943 35.0463L39.5838 35.1485ZM40.9117 36.707C40.2632 36.6915 39.7623 36.6675 39.369 36.5244L39.0272 37.4641C39.602 37.6733 40.2741 37.692 40.8878 37.7067L40.9117 36.707ZM43.5471 34.1949C43.5131 35.6163 42.3332 36.741 40.9117 36.707L40.8878 37.7067C42.8613 37.754 44.4996 36.1924 44.5468 34.2188L43.5471 34.1949ZM41.035 31.5595C42.4564 31.5935 43.5811 32.7734 43.5471 34.1949L44.5468 34.2188C44.5941 32.2452 43.0325 30.607 41.0589 30.5598L41.035 31.5595ZM41.0349 31.5595L41.035 31.5595L41.0589 30.5598L41.0589 30.5598L41.0349 31.5595ZM39.8274 31.585C40.1738 31.54 40.5674 31.5483 41.0349 31.5595L41.0589 30.5598C40.6108 30.549 40.1357 30.5365 39.6985 30.5934L39.8274 31.585ZM39.2632 31.1056L39.3107 32.5546L40.3102 32.5218L40.2627 31.0728L39.2632 31.1056ZM39.3107 32.5546C39.3381 33.3908 39.2655 34.2273 39.0943 35.0463L40.0732 35.2508C40.2606 34.3538 40.3402 33.4377 40.3102 32.5218L39.3107 32.5546ZM39.0943 35.0463L38.7087 36.892L39.6875 37.0965L40.0732 35.2508L39.0943 35.0463Z" fill="black"/>
<path d="M23.1313 31.5169C23.127 31.3838 26.4375 31.4562 26.4375 31.4562C26.4375 32.0427 26.4303 33.8013 26.4431 34.3499C26.5306 38.0901 29.4202 40.2093 28.6219 40.6475C27.8236 41.0857 23.1268 38.0971 23.127 34.0535C23.1266 32.2713 23.1356 31.6501 23.1313 31.5169Z" fill="#CAC9C9"/>
<defs>
<filter id="filter0_d_515_3696" x="10.168" y="11.8428" width="39.3516" height="39.1797" filterUnits="userSpaceOnUse" color-interpolation-filters="sRGB">
<feFlood flood-opacity="0" result="BackgroundImageFix"/>
<feColorMatrix in="SourceAlpha" type="matrix" values="0 0 0 0 0 0 0 0 0 0 0 0 0 0 0 0 0 0 127 0" result="hardAlpha"/>
<feOffset dx="-1" dy="1.5"/>
<feComposite in2="hardAlpha" operator="out"/>
<feColorMatrix type="matrix" values="0 0 0 0 0 0 0 0 0 0 0 0 0 0 0 0 0 0 0.25 0"/>
<feBlend mode="normal" in2="BackgroundImageFix" result="effect1_dropShadow_515_3696"/>
<feBlend mode="normal" in="SourceGraphic" in2="effect1_dropShadow_515_3696" result="shape"/>
</filter>
</defs>
</svg>
