<svg width="60" height="60" viewBox="0 0 60 60" fill="none" xmlns="http://www.w3.org/2000/svg">
<circle cx="30.0001" cy="30.0001" r="30.0001" fill="white"/>
<g filter="url(#filter0_d_612_1400)">
<path d="M12.95 31C13.1371 35.5212 14.5869 39.6685 16.9091 43H46.0409C48.3631 39.6685 49.8129 35.5212 50.0001 31H12.95Z" fill="white"/>
<path fill-rule="evenodd" clip-rule="evenodd" d="M17.4392 42C15.5689 39.1632 14.3414 35.7364 14.0159 32H48.9341C48.6086 35.7364 47.3811 39.1632 45.5108 42H17.4392ZM46.0409 43H16.9091C14.7592 39.9157 13.3571 36.1321 13.0123 32C12.9847 31.6688 12.9638 31.3355 12.95 31H50.0001C49.9862 31.3355 49.9653 31.6688 49.9377 32C49.5929 36.1321 48.1908 39.9157 46.0409 43Z" fill="black"/>
<path d="M31.5387 18.8828C37.0452 18.8828 41.5092 15.5307 41.5092 11.3955C41.5092 7.26039 37.0452 3.9082 31.5387 3.9082C26.0321 3.9082 21.5681 7.26039 21.5681 11.3955C21.5681 15.5307 26.0321 18.8828 31.5387 18.8828Z" fill="white"/>
<path fill-rule="evenodd" clip-rule="evenodd" d="M37.9884 15.8902C39.6033 14.6776 40.5092 13.0783 40.5092 11.3955C40.5092 9.71274 39.6033 8.29562 37.9884 7.08297C36.3732 5.87006 34.0962 5.24399 31.5387 5.24399C28.9811 5.24399 26.7041 5.87006 25.0889 7.08297C23.4741 8.29562 22.5681 9.71274 22.5681 11.3955C22.5681 13.0783 23.4741 14.6776 25.0889 15.8902C26.7041 17.1031 28.9811 17.8828 31.5387 17.8828C34.0962 17.8828 36.3732 17.1031 37.9884 15.8902ZM41.5092 11.3955C41.5092 15.5307 37.0452 18.8828 31.5387 18.8828C26.0321 18.8828 21.5681 15.5307 21.5681 11.3955C21.5681 7.26039 26.0321 3.9082 31.5387 3.9082C37.0452 3.9082 41.5092 7.26039 41.5092 11.3955Z" fill="black"/>
<path d="M17.0436 42.5481L17.0433 42.5479C16.4573 42.0056 16.0638 41.2606 15.9692 40.4231C15.9554 40.2895 15.947 40.1628 15.947 40.0378C15.947 38.7342 16.6772 37.5978 17.7532 37.0192L17.7543 37.0186C18.2341 36.7591 18.7846 36.6123 19.3725 36.6123L19.3731 36.6123C21.2663 36.6101 22.8006 38.1444 22.8006 40.0353C22.8006 41.9264 21.2661 43.4608 19.375 43.4608H19.3749H19.3747H19.3746H19.3745H19.3743H19.3742H19.374H19.3739H19.3737H19.3736H19.3734H19.3733H19.3731H19.373H19.3728H19.3727H19.3726H19.3724H19.3723H19.3721H19.372H19.3718H19.3717H19.3715H19.3714H19.3712H19.3711H19.3709H19.3708H19.3707H19.3705H19.3704H19.3702H19.3701H19.3699H19.3698H19.3696H19.3695H19.3694H19.3692H19.3691H19.3689H19.3688H19.3686H19.3685H19.3683H19.3682H19.368H19.3679H19.3678H19.3676H19.3675H19.3673H19.3672H19.367H19.3669H19.3668H19.3666H19.3665H19.3663H19.3662H19.366H19.3659H19.3657H19.3656H19.3655H19.3653H19.3652H19.365H19.3649H19.3647H19.3646H19.3645H19.3643H19.3642H19.364H19.3639H19.3637H19.3636H19.3634H19.3633H19.3632H19.363H19.3629H19.3627H19.3626H19.3624H19.3623H19.3622H19.362H19.3619H19.3617H19.3616H19.3614H19.3613H19.3612H19.361H19.3609H19.3607H19.3606H19.3605H19.3603H19.3602H19.36H19.3599H19.3597H19.3596H19.3595H19.3593H19.3592H19.359H19.3589H19.3587H19.3586H19.3585H19.3583H19.3582H19.358H19.3579H19.3578H19.3576H19.3575H19.3573H19.3572H19.357H19.3569H19.3568H19.3566H19.3565H19.3563H19.3562H19.3561H19.3559H19.3558H19.3556H19.3555H19.3553H19.3552H19.3551H19.3549H19.3548H19.3546H19.3545H19.3544H19.3542H19.3541H19.3539H19.3538H19.3537H19.3535H19.3534H19.3532H19.3531H19.353H19.3528H19.3527H19.3525H19.3524H19.3522H19.3521H19.352H19.3518H19.3517H19.3515H19.3514H19.3513H19.3511H19.351H19.3508H19.3507H19.3506H19.3504H19.3503H19.3501H19.35H19.3499H19.3497H19.3496H19.3494H19.3493H19.3492H19.349H19.3489H19.3487H19.3486H19.3485H19.3483H19.3482H19.348H19.3479H19.3478H19.3476H19.3475H19.3473H19.3472H19.3471H19.3469H19.3468H19.3466H19.3465H19.3464H19.3462H19.3461H19.3459H19.3458H19.3457H19.3455H19.3454H19.3452H19.3451H19.345H19.3448H19.3447H19.3445H19.3444H19.3443H19.3441H19.344H19.3438H19.3437H19.3436H19.3434H19.3433H19.3431H19.343H19.3429H19.3427H19.3426H19.3424H19.3423H19.3422H19.342H19.3419H19.3417H19.3416H19.3415H19.3413H19.3412H19.341H19.3409H19.3408H19.3406H19.3405H19.3403H19.3402H19.3401H19.3399H19.3398H19.3396H19.3395H19.3394H19.3392H19.3391H19.3389H19.3388H19.3387H19.3385H19.3384H19.3383H19.3381H19.338H19.3378H19.3377H19.3376H19.3374H19.3373H19.3371H19.337H19.3369H19.3367H19.3366H19.3364H19.3363H19.3362H19.336H19.3359H19.3357H19.3356H19.3355H19.3353H19.3352H19.335H19.3349H19.3348H19.3346H19.3345H19.3343H19.3342H19.3341H19.3339H19.3338H19.3336H19.3335H19.3334H19.3332H19.3331H19.3329H19.3328H19.3327H19.3325H19.3324H19.3322H19.3321H19.332H19.3318H19.3317H19.3315H19.3314H19.3313H19.3311H19.331H19.3308H19.3307H19.3306H19.3304H19.3303H19.3301H19.33H19.3299H19.3297H19.3296H19.3294H19.3293H19.3292H19.329H19.3289H19.3287H19.3286H19.3285H19.3283H19.3282H19.328H19.3279H19.3278H19.3276H19.3275H19.3273H19.3272H19.3271H19.3269H19.3268H19.3266H19.3265H19.3264H19.3262H19.3261H19.3259H19.3258H19.3257H19.3255H19.3254H19.3252H19.3251H19.325H19.3248H19.3247H19.3245H19.3244H19.3242H19.3241H19.324H19.3238H19.3237H19.3235H19.3234H19.3233H19.3231H19.323H19.3228H19.3227H19.3226H19.3224H19.3223H19.3221H19.322H19.3219H19.3217H19.3216H19.3214H19.3213H19.3211H19.321H19.3209H19.3207H19.3206H19.3204H19.3203H19.3202H19.32H19.3199H19.3197H19.3196H19.3194H19.3193H19.3192H19.319H19.3189H19.3187H19.3186H19.3185H19.3183H19.3182H19.318H19.3179H19.3177H19.3176H19.3175H19.3173H19.3172H19.317H19.3169H19.3167H19.3166H19.3165H19.3163H19.3162H19.316H19.3159H19.3158H19.3156H19.3155H19.3153H19.3152H19.315H19.3149H19.3148H19.3146H19.3145H19.3143H19.3142H19.314H19.3139H19.3138H19.3136H19.3135H19.3133H19.3132H19.313H19.3129H19.3127H19.3126H19.3125H19.3123H19.3122H19.312H19.3119H19.3117H19.3116H19.3115H19.3113H19.3112H19.311H19.3109H19.3107H19.3106H19.3104H19.3103H19.3102H19.31H19.3099H19.3097H19.3096H19.3094H19.3093H19.3091H19.309H19.3089H19.3087H19.3086H19.3084H19.3083H19.3081H19.308H19.3078H19.3077H19.3076H19.3074H19.3073H19.3071H19.307H19.3068H19.3068C18.433 43.4445 17.6408 43.1016 17.0436 42.5481Z" fill="white" stroke="black"/>
<path d="M43.7419 39.1081C43.4 36.8668 42.7163 31.86 42.7166 29.7629C44.312 28.7753 47.7535 27.3925 48.7564 29.7629C49.7593 32.1333 47.9586 36.9807 46.933 39.1081H43.7419Z" fill="#CAC9C9"/>
<path d="M41.5965 42.5481L41.5963 42.5479C41.0103 42.0056 40.6167 41.2606 40.5222 40.4231C40.5084 40.2895 40.5 40.1628 40.5 40.0378C40.5 38.7342 41.2301 37.5978 42.3061 37.0192L42.3072 37.0186C42.7871 36.7591 43.3376 36.6123 43.9255 36.6123L43.9261 36.6123C45.8193 36.6101 47.3535 38.1444 47.3535 40.0353C47.3535 41.9264 45.8191 43.4608 43.928 43.4608H43.9279H43.9277H43.9276H43.9274H43.9273H43.9271H43.927H43.9268H43.9267H43.9266H43.9264H43.9263H43.9261H43.926H43.9258H43.9257H43.9255H43.9254H43.9252H43.9251H43.9249H43.9248H43.9247H43.9245H43.9244H43.9242H43.9241H43.9239H43.9238H43.9236H43.9235H43.9233H43.9232H43.9231H43.9229H43.9228H43.9226H43.9225H43.9223H43.9222H43.922H43.9219H43.9217H43.9216H43.9215H43.9213H43.9212H43.921H43.9209H43.9207H43.9206H43.9204H43.9203H43.9202H43.92H43.9199H43.9197H43.9196H43.9194H43.9193H43.9192H43.919H43.9189H43.9187H43.9186H43.9184H43.9183H43.9181H43.918H43.9179H43.9177H43.9176H43.9174H43.9173H43.9171H43.917H43.9169H43.9167H43.9166H43.9164H43.9163H43.9161H43.916H43.9159H43.9157H43.9156H43.9154H43.9153H43.9151H43.915H43.9149H43.9147H43.9146H43.9144H43.9143H43.9141H43.914H43.9139H43.9137H43.9136H43.9134H43.9133H43.9131H43.913H43.9129H43.9127H43.9126H43.9124H43.9123H43.9122H43.912H43.9119H43.9117H43.9116H43.9114H43.9113H43.9112H43.911H43.9109H43.9107H43.9106H43.9104H43.9103H43.9102H43.91H43.9099H43.9097H43.9096H43.9095H43.9093H43.9092H43.909H43.9089H43.9088H43.9086H43.9085H43.9083H43.9082H43.908H43.9079H43.9078H43.9076H43.9075H43.9073H43.9072H43.9071H43.9069H43.9068H43.9066H43.9065H43.9064H43.9062H43.9061H43.9059H43.9058H43.9056H43.9055H43.9054H43.9052H43.9051H43.9049H43.9048H43.9047H43.9045H43.9044H43.9042H43.9041H43.904H43.9038H43.9037H43.9035H43.9034H43.9033H43.9031H43.903H43.9028H43.9027H43.9026H43.9024H43.9023H43.9021H43.902H43.9019H43.9017H43.9016H43.9014H43.9013H43.9012H43.901H43.9009H43.9007H43.9006H43.9005H43.9003H43.9002H43.9H43.8999H43.8998H43.8996H43.8995H43.8993H43.8992H43.8991H43.8989H43.8988H43.8986H43.8985H43.8984H43.8982H43.8981H43.8979H43.8978H43.8977H43.8975H43.8974H43.8972H43.8971H43.897H43.8968H43.8967H43.8965H43.8964H43.8963H43.8961H43.896H43.8958H43.8957H43.8956H43.8954H43.8953H43.8951H43.895H43.8949H43.8947H43.8946H43.8944H43.8943H43.8942H43.894H43.8939H43.8937H43.8936H43.8935H43.8933H43.8932H43.893H43.8929H43.8928H43.8926H43.8925H43.8923H43.8922H43.8921H43.8919H43.8918H43.8916H43.8915H43.8914H43.8912H43.8911H43.891H43.8908H43.8907H43.8905H43.8904H43.8903H43.8901H43.89H43.8898H43.8897H43.8896H43.8894H43.8893H43.8891H43.889H43.8889H43.8887H43.8886H43.8884H43.8883H43.8882H43.888H43.8879H43.8877H43.8876H43.8875H43.8873H43.8872H43.887H43.8869H43.8868H43.8866H43.8865H43.8863H43.8862H43.8861H43.8859H43.8858H43.8856H43.8855H43.8854H43.8852H43.8851H43.8849H43.8848H43.8847H43.8845H43.8844H43.8842H43.8841H43.884H43.8838H43.8837H43.8835H43.8834H43.8833H43.8831H43.883H43.8828H43.8827H43.8826H43.8824H43.8823H43.8821H43.882H43.8819H43.8817H43.8816H43.8814H43.8813H43.8812H43.881H43.8809H43.8807H43.8806H43.8805H43.8803H43.8802H43.88H43.8799H43.8798H43.8796H43.8795H43.8793H43.8792H43.8791H43.8789H43.8788H43.8786H43.8785H43.8784H43.8782H43.8781H43.8779H43.8778H43.8776H43.8775H43.8774H43.8772H43.8771H43.8769H43.8768H43.8767H43.8765H43.8764H43.8762H43.8761H43.876H43.8758H43.8757H43.8755H43.8754H43.8753H43.8751H43.875H43.8748H43.8747H43.8745H43.8744H43.8743H43.8741H43.874H43.8738H43.8737H43.8736H43.8734H43.8733H43.8731H43.873H43.8728H43.8727H43.8726H43.8724H43.8723H43.8721H43.872H43.8719H43.8717H43.8716H43.8714H43.8713H43.8711H43.871H43.8709H43.8707H43.8706H43.8704H43.8703H43.8702H43.87H43.8699H43.8697H43.8696H43.8694H43.8693H43.8692H43.869H43.8689H43.8687H43.8686H43.8684H43.8683H43.8682H43.868H43.8679H43.8677H43.8676H43.8674H43.8673H43.8672H43.867H43.8669H43.8667H43.8666H43.8664H43.8663H43.8662H43.866H43.8659H43.8657H43.8656H43.8654H43.8653H43.8652H43.865H43.8649H43.8647H43.8646H43.8644H43.8643H43.8641H43.864H43.8639H43.8637H43.8636H43.8634H43.8633H43.8631H43.863H43.8628H43.8627H43.8626H43.8624H43.8623H43.8621H43.862H43.8618H43.8617H43.8615H43.8614H43.8613H43.8611H43.861H43.8608H43.8607H43.8605H43.8604H43.8602H43.8601H43.86H43.8598H43.8598C42.986 43.4445 42.1937 43.1016 41.5965 42.5481Z" fill="white" stroke="black"/>
<path d="M45.25 33.3C45.25 38.8161 43.6906 43.7885 41.1953 47.3684C38.6988 50.9499 35.2985 53.1 31.6 53.1C27.9014 53.1 24.5011 50.9499 22.0046 47.3684C19.5093 43.7885 17.95 38.8161 17.95 33.3C17.95 27.7839 19.5093 22.8115 22.0046 19.2316C24.5011 15.6501 27.9014 13.5 31.6 13.5C35.2985 13.5 38.6988 15.6501 41.1953 19.2316C43.6906 22.8115 45.25 27.7839 45.25 33.3Z" fill="white" stroke="black"/>
<path d="M31.0283 22.2282L31.0282 22.2284C27.9399 27.758 22.0307 31.4963 15.2485 31.4963C14.6508 31.4963 14.058 31.4672 13.4741 31.4104C13.4352 30.9257 13.4158 30.435 13.4158 29.9395C13.4158 20.7089 20.34 13.0958 29.2776 12.0097L29.2779 12.0097C29.9971 11.9219 30.7319 11.8779 31.4773 11.8779C32.075 11.8779 32.6678 11.907 33.2517 11.9638C33.2906 12.4485 33.31 12.9392 33.31 13.4347C33.31 16.6282 32.4826 19.6272 31.0283 22.2282Z" fill="white" stroke="black"/>
<path d="M50.0382 29.9395C50.0382 30.5866 50.0056 31.2287 49.9404 31.8608C49.2005 31.9511 48.4455 31.9963 47.6804 31.9963C40.7098 31.9963 34.6372 28.1535 31.4642 22.4722C29.9692 19.7983 29.1189 16.7156 29.1189 13.4347C29.1189 12.7851 29.1515 12.1455 29.2167 11.5134C29.9567 11.4231 30.7117 11.3779 31.4767 11.3779C32.2317 11.3779 32.9792 11.4231 33.7116 11.5109C42.9096 12.6145 50.0382 20.4455 50.0382 29.9395Z" fill="#CAC9C9"/>
<path fill-rule="evenodd" clip-rule="evenodd" d="M31.3199 23.1715C34.4929 28.8529 40.7098 31.9963 47.6804 31.9963C48.4455 31.9963 49.2005 31.9511 49.9404 31.8608C50.0056 31.2287 50.0382 30.5866 50.0382 29.9395C50.0382 20.4455 42.9096 12.6145 33.7116 11.5109C32.9792 11.4231 32.2317 11.3779 31.4767 11.3779C30.7117 11.3779 29.9567 11.4231 29.2167 11.5134C29.1515 12.1455 29.1189 12.7851 29.1189 13.4347C29.1189 16.7156 29.8249 20.4977 31.3199 23.1715ZM30.147 12.4268C30.5852 12.3942 31.0288 12.3779 31.4767 12.3779C32.1919 12.3779 32.8997 12.4207 33.5926 12.5038C42.294 13.5478 49.0382 20.9577 49.0382 29.9395C49.0382 30.2775 49.0289 30.6137 49.0101 30.9474C48.5719 30.98 48.1283 30.9963 47.6804 30.9963C41.0867 30.9963 35.3408 27.3625 32.3372 21.9846C30.9237 19.4564 30.1189 16.5408 30.1189 13.4347C30.1189 13.0957 30.1283 12.7598 30.147 12.4268Z" fill="black"/>
<circle cx="24.7275" cy="36.6758" r="1.71484" fill="black"/>
<circle cx="38.2275" cy="36.6758" r="1.71484" fill="black"/>
<circle cx="26.0215" cy="35.8242" r="0.763672" fill="white"/>
<circle cx="39.4648" cy="35.8242" r="0.763672" fill="white"/>
<path fill-rule="evenodd" clip-rule="evenodd" d="M41.6796 36.9421C39.3212 34.5836 36.0202 35.4045 34.8098 36.9028C34.6363 37.1176 34.3104 37.1093 34.2016 37.022C34.1086 36.9472 34.2031 36.5636 34.3767 36.3488C35.9291 34.4271 39.5737 33.422 42.3867 36.235C42.582 36.4303 42.582 36.7469 42.3867 36.9421C42.1915 37.1374 41.8749 37.1374 41.6796 36.9421Z" fill="black"/>
<path fill-rule="evenodd" clip-rule="evenodd" d="M21.1009 36.9421C23.4594 34.5836 26.7603 35.4045 27.9707 36.9028C28.1442 37.1176 28.4701 37.1093 28.5789 37.022C28.6719 36.9472 28.5774 36.5636 28.4039 36.3488C26.8514 34.4271 23.2068 33.422 20.3938 36.235C20.1985 36.4303 20.1985 36.7469 20.3938 36.9421C20.589 37.1374 20.9056 37.1374 21.1009 36.9421Z" fill="black"/>
<path d="M31.6576 43.5217C31.433 43.4129 32.3066 42.0717 33.1505 42.4585C33.7558 42.7359 32.4826 42.7436 31.6576 43.5217Z" fill="#CAC9C9"/>
<path d="M31.2408 43.5217C31.4687 43.4129 30.5825 42.0717 29.7263 42.4585C29.1122 42.7359 30.4039 42.7436 31.2408 43.5217Z" fill="#CAC9C9"/>
<path fill-rule="evenodd" clip-rule="evenodd" d="M28.6342 46.6208C28.2988 46.2916 29.4352 45.4868 29.7744 45.3844C29.884 45.3514 30.0482 45.3088 30.2047 45.3189C30.6012 45.3446 30.9269 45.6169 31.2821 45.766C31.3275 45.7851 31.3551 45.7935 31.3683 45.797C31.3817 45.7933 31.4108 45.7844 31.4595 45.7638C31.5446 45.7278 31.6413 45.6778 31.763 45.6149C31.876 45.5565 32.0131 45.4856 32.1462 45.4308C32.2711 45.3794 32.4474 45.3179 32.6346 45.3179C32.7854 45.3179 32.9344 45.3585 33.0479 45.3968C33.415 45.5206 34.442 46.126 34.1612 46.5674C33.9027 46.9737 33.0693 46.348 32.7239 46.2315C32.6703 46.2135 32.6408 46.2077 32.631 46.2059C32.6214 46.2081 32.5879 46.2157 32.5226 46.2426C32.1445 46.3984 31.7899 46.6867 31.3648 46.6867C30.9058 46.6867 30.5562 46.3464 30.1405 46.2077C30.1261 46.2107 30.0996 46.2167 30.0591 46.229C29.9789 46.2532 29.8794 46.2906 29.7744 46.3361C29.4305 46.4854 29.0064 46.8466 28.6342 46.6208Z" fill="#CAC9C9"/>
<path fill-rule="evenodd" clip-rule="evenodd" d="M33.3213 47.3421C33.4769 47.5702 33.4182 47.8813 33.1901 48.0369C32.6131 48.4307 31.9133 48.5576 31.2875 48.5326C30.6664 48.5077 30.0498 48.3305 29.6212 48.036C29.3936 47.8796 29.3333 47.5695 29.4897 47.3419C29.6186 47.1541 29.8744 47.819 31.2875 47.8755C32.7007 47.9319 33.2178 47.1905 33.3213 47.3421Z" fill="#CAC9C9"/>
<path d="M23.2714 12.5307C22.5824 11.3287 24.3487 6.4348 30.6013 5.77018C30.7063 5.75902 30.7534 5.89526 30.6629 5.94967C27.6922 7.73602 24.7118 9.8365 23.5338 12.4857C23.4817 12.6029 23.3352 12.642 23.2714 12.5307Z" fill="#CAC9C9"/>
<path d="M14.7063 29.816C16.6053 23.6275 22.7848 16.904 27.9847 13.409C28.0804 13.3447 28.0101 13.1952 27.9 13.2295C20.2518 15.6095 15.3836 20.9065 14.4782 29.7747C14.4657 29.8977 14.67 29.9342 14.7063 29.816Z" fill="#CAC9C9"/>
<path d="M15.7748 37.8403C15.4023 37.3552 14.4645 33.9938 14.3086 32.1911C14.3058 32.159 14.3188 32.1252 14.3506 32.1196C14.5085 32.0917 14.8047 32.3972 14.9424 32.6488C15.0929 32.9239 15.7566 35.5157 16.1203 37.1268C16.1291 37.166 16.1164 37.2101 16.1025 37.2479C16.0876 37.288 16.0725 37.3447 16.0557 37.4078C16.0083 37.5861 15.9473 37.815 15.841 37.8619C15.8167 37.8725 15.7909 37.8613 15.7748 37.8403Z" fill="#CAC9C9"/>
</g>
<path d="M49.8001 59.4002C55.102 59.4002 59.4001 55.1021 59.4001 49.8002C59.4001 44.4983 55.102 40.2002 49.8001 40.2002C44.4981 40.2002 40.2001 44.4983 40.2001 49.8002C40.2001 55.1021 44.4981 59.4002 49.8001 59.4002Z" fill="#CAC9C9" stroke="white" stroke-width="1.2"/>
<path d="M49.8 58.1994C54.4392 58.1994 58.2 54.4386 58.2 49.7994C58.2 45.1602 54.4392 41.3994 49.8 41.3994C45.1608 41.3994 41.4 45.1602 41.4 49.7994C41.4 54.4386 45.1608 58.1994 49.8 58.1994Z" fill="#27AEFB" stroke="black" stroke-width="1.2"/>
<defs>
<filter id="filter0_d_612_1400" x="11.9158" y="3.9082" width="38.1224" height="51.1914" filterUnits="userSpaceOnUse" color-interpolation-filters="sRGB">
<feFlood flood-opacity="0" result="BackgroundImageFix"/>
<feColorMatrix in="SourceAlpha" type="matrix" values="0 0 0 0 0 0 0 0 0 0 0 0 0 0 0 0 0 0 127 0" result="hardAlpha"/>
<feOffset dx="-1" dy="1.5"/>
<feComposite in2="hardAlpha" operator="out"/>
<feColorMatrix type="matrix" values="0 0 0 0 0 0 0 0 0 0 0 0 0 0 0 0 0 0 0.25 0"/>
<feBlend mode="normal" in2="BackgroundImageFix" result="effect1_dropShadow_612_1400"/>
<feBlend mode="normal" in="SourceGraphic" in2="effect1_dropShadow_612_1400" result="shape"/>
</filter>
</defs>
</svg>
