<svg width="60" height="60" viewBox="0 0 60 60" fill="none" xmlns="http://www.w3.org/2000/svg">
<circle cx="30.0001" cy="30.0001" r="30.0001" fill="white"/>
<g filter="url(#filter0_d_617_942)">
<path d="M12.0391 29.5H48.0391V49.5H12.0391V29.5Z" fill="white" stroke="black"/>
<mask id="mask0_617_942" style="mask-type:alpha" maskUnits="userSpaceOnUse" x="11" y="29" width="38" height="21">
<path d="M11.5391 29H48.5391V50H11.5391V29Z" fill="#E2E2E2"/>
</mask>
<g mask="url(#mask0_617_942)">
<rect width="16.9149" height="58.0345" transform="matrix(-0.645659 -0.763626 -0.759926 0.650009 55.8369 11.8877)" fill="black"/>
</g>
<mask id="mask1_617_942" style="mask-type:alpha" maskUnits="userSpaceOnUse" x="11" y="29" width="13" height="21">
<path d="M12.0377 29.7939H22.5473V49.4858H12.0377V29.7939Z" fill="white" stroke="black"/>
</mask>
<g mask="url(#mask1_617_942)">
<rect width="17.1398" height="58.0345" transform="matrix(-0.645659 -0.763626 -0.759926 0.650009 51.4376 16.7363)" fill="black"/>
</g>
<path d="M43.669 32.5C43.669 38.0724 42.1092 43.0954 39.6131 46.7117C37.1156 50.3299 33.7153 52.5 30.019 52.5C26.3227 52.5 22.9224 50.3299 20.425 46.7117C17.9289 43.0954 16.369 38.0724 16.369 32.5C16.369 26.9276 17.9289 21.9046 20.425 18.2883C22.9224 14.6701 26.3227 12.5 30.019 12.5C33.7153 12.5 37.1156 14.6701 39.6131 18.2883C42.1092 21.9046 43.669 26.9276 43.669 32.5Z" fill="white" stroke="black"/>
<circle cx="23.2512" cy="35.7676" r="1.71484" fill="black"/>
<circle cx="36.7512" cy="35.7676" r="1.71484" fill="black"/>
<circle cx="24.5452" cy="34.916" r="0.763672" fill="white"/>
<circle cx="37.9885" cy="34.916" r="0.763672" fill="white"/>
<path fill-rule="evenodd" clip-rule="evenodd" d="M40.2033 36.0339C37.8448 33.6754 34.5439 34.4963 33.3335 35.9946C33.16 36.2094 32.8341 36.2011 32.7253 36.1138C32.6323 36.039 32.7268 35.6554 32.9003 35.4406C34.4528 33.5189 38.0974 32.5138 40.9104 35.3268C41.1057 35.5221 41.1057 35.8387 40.9104 36.0339C40.7152 36.2292 40.3986 36.2292 40.2033 36.0339Z" fill="black"/>
<path fill-rule="evenodd" clip-rule="evenodd" d="M19.6246 36.0339C21.983 33.6754 25.284 34.4963 26.4944 35.9946C26.6679 36.2094 26.9938 36.2011 27.1026 36.1138C27.1956 36.039 27.1011 35.6554 26.9275 35.4406C25.3751 33.5189 21.7305 32.5138 18.9175 35.3268C18.7222 35.5221 18.7222 35.8387 18.9175 36.0339C19.1127 36.2292 19.4293 36.2292 19.6246 36.0339Z" fill="black"/>
<path fill-rule="evenodd" clip-rule="evenodd" d="M27.1584 45.7116C26.823 45.3824 27.9594 44.5777 28.2986 44.4753C28.4082 44.4422 28.5724 44.3996 28.7289 44.4097C29.1254 44.4354 29.4511 44.7077 29.8062 44.8568C29.8517 44.8759 29.8793 44.8843 29.8925 44.8879C29.9059 44.8841 29.9349 44.8752 29.9837 44.8546C30.0688 44.8186 30.1654 44.7686 30.2872 44.7057C30.4001 44.6473 30.5373 44.5764 30.6704 44.5216C30.7952 44.4702 30.9716 44.4087 31.1588 44.4087C31.3096 44.4087 31.4586 44.4493 31.572 44.4876C31.9391 44.6114 32.9662 45.2169 32.6854 45.6582C32.4269 46.0645 31.5935 45.4388 31.2481 45.3223C31.1945 45.3043 31.165 45.2985 31.1551 45.2967C31.1456 45.2989 31.1121 45.3066 31.0468 45.3335C30.6686 45.4892 30.3141 45.7776 29.889 45.7776C29.43 45.7776 29.0804 45.4372 28.6647 45.2986C28.6502 45.3015 28.6238 45.3075 28.5832 45.3198C28.503 45.344 28.4036 45.3814 28.2986 45.427C27.9547 45.5762 27.5305 45.9374 27.1584 45.7116Z" fill="#CAC9C9"/>
<path fill-rule="evenodd" clip-rule="evenodd" d="M31.8455 46.4329C32.0011 46.661 31.9424 46.9721 31.7143 47.1277C31.1372 47.5215 30.4375 47.6484 29.8117 47.6234C29.1906 47.5985 28.574 47.4213 28.1454 47.1268C27.9178 46.9704 27.8575 46.6603 28.0139 46.4327C28.1428 46.245 28.3986 46.9099 29.8117 46.9663C31.2248 47.0227 31.742 46.2813 31.8455 46.4329Z" fill="#CAC9C9"/>
<mask id="mask2_617_942" style="mask-type:alpha" maskUnits="userSpaceOnUse" x="11" y="3" width="38" height="29">
<path d="M39.4376 13.0436C39.8234 12.2459 40.0338 11.3851 40.0338 10.4873C40.0338 6.35219 35.5698 3 30.0632 3C24.5566 3 20.0927 6.35219 20.0927 10.4873C20.0927 11.3638 20.2932 12.2051 20.6617 12.9867C15.146 16.2046 11.4399 22.1855 11.4399 29.031C11.4399 29.6782 11.4725 30.3203 11.5378 30.9524C12.2777 31.0427 13.0327 31.0878 13.7978 31.0878C20.7591 31.0878 26.8249 27.2553 30.0014 21.5863C33.1778 27.2554 39.2436 31.088 46.2051 31.088C46.9701 31.088 47.7251 31.0428 48.4651 30.9525C48.5303 30.3204 48.5629 29.6783 48.5629 29.0312C48.5629 22.2257 44.9 16.2747 39.4376 13.0436Z" fill="#CAC9C9"/>
</mask>
<g mask="url(#mask2_617_942)">
<rect width="16.9149" height="58.0345" transform="matrix(-0.645659 -0.763626 -0.759926 0.650009 64.8369 21.917)" fill="white"/>
<rect width="16.9149" height="58.0345" transform="matrix(-0.645659 -0.763626 -0.759926 0.650009 55.8369 11.8877)" fill="black"/>
<rect width="15.4466" height="57.857" transform="matrix(-0.645659 -0.763626 -0.759926 0.650009 46.7094 0.795898)" fill="#CAC9C9"/>
</g>
<path d="M38.9875 12.8259L38.7873 13.2398L39.183 13.4739C44.4996 16.6188 48.0629 22.4096 48.0629 29.0312C48.0629 29.525 48.0434 30.0155 48.0045 30.5004C47.4135 30.5587 46.8128 30.588 46.2051 30.588C39.4318 30.588 33.5292 26.8595 30.4376 21.3419L30.0014 20.5635L29.5652 21.3419C26.4735 26.8595 20.5709 30.5878 13.7978 30.5878C13.19 30.5878 12.5893 30.5586 11.9984 30.5002C11.9594 30.0154 11.9399 29.5248 11.9399 29.031C11.9399 22.3706 15.5453 16.5506 20.9137 13.4186L21.3093 13.1878L21.114 12.7735C20.7751 12.0547 20.5927 11.2859 20.5927 10.4873C20.5927 8.61214 21.6037 6.8766 23.3132 5.5928C25.023 4.30888 27.4078 3.5 30.0632 3.5C32.7186 3.5 35.1035 4.30888 36.8132 5.5928C38.5228 6.8766 39.5338 8.61214 39.5338 10.4873C39.5338 11.3052 39.3424 12.092 38.9875 12.8259Z" stroke="black"/>
</g>
<defs>
<filter id="filter0_d_617_942" x="10.4399" y="3" width="38.1229" height="51.5" filterUnits="userSpaceOnUse" color-interpolation-filters="sRGB">
<feFlood flood-opacity="0" result="BackgroundImageFix"/>
<feColorMatrix in="SourceAlpha" type="matrix" values="0 0 0 0 0 0 0 0 0 0 0 0 0 0 0 0 0 0 127 0" result="hardAlpha"/>
<feOffset dx="-1" dy="1.5"/>
<feComposite in2="hardAlpha" operator="out"/>
<feColorMatrix type="matrix" values="0 0 0 0 0 0 0 0 0 0 0 0 0 0 0 0 0 0 0.25 0"/>
<feBlend mode="normal" in2="BackgroundImageFix" result="effect1_dropShadow_617_942"/>
<feBlend mode="normal" in="SourceGraphic" in2="effect1_dropShadow_617_942" result="shape"/>
</filter>
</defs>
</svg>
