<svg width="61" height="61" viewBox="0 0 61 61" fill="none" xmlns="http://www.w3.org/2000/svg">
<circle cx="30.0001" cy="30.0001" r="29.0001" fill="white" stroke="white" stroke-width="2"/>
<g filter="url(#filter0_d_515_3642)">
<path d="M30.0623 20.9453C35.5689 20.9453 40.0329 17.5932 40.0329 13.458C40.0329 9.32289 35.5689 5.9707 30.0623 5.9707C24.5558 5.9707 20.0918 9.32289 20.0918 13.458C20.0918 17.5932 24.5558 20.9453 30.0623 20.9453Z" fill="white"/>
<path fill-rule="evenodd" clip-rule="evenodd" d="M36.5121 17.9527C38.1269 16.7401 39.0329 15.1408 39.0329 13.458C39.0329 11.7752 38.1269 10.176 36.5121 8.96333C34.8969 7.75042 32.6199 7.2991 30.0623 7.2991C27.5048 7.2991 25.2278 7.75042 23.6126 8.96333C21.9978 10.176 21.0918 11.7752 21.0918 13.458C21.0918 15.1408 21.9978 16.7401 23.6126 17.9527C25.2278 19.1656 27.5048 19.9453 30.0623 19.9453C32.6199 19.9453 34.8969 19.1656 36.5121 17.9527ZM40.0329 13.458C40.0329 17.5932 35.5689 20.9453 30.0623 20.9453C24.5558 20.9453 20.0918 17.5932 20.0918 13.458C20.0918 9.32289 24.5558 5.9707 30.0623 5.9707C35.5689 5.9707 40.0329 9.32289 40.0329 13.458Z" fill="black"/>
<path d="M29.2236 7.80962C22.971 8.47424 21.2047 13.3682 21.8938 14.5701C21.9575 14.6814 22.104 14.6423 22.1561 14.5251C23.3341 11.8759 26.3145 9.77546 29.2853 7.98911C29.3757 7.93471 29.3286 7.79846 29.2236 7.80962Z" fill="#CAC9C9"/>
<mask id="path-5-inside-1_515_3642" fill="white">
<path d="M48.5624 29.9629C48.5624 30.6101 48.5298 31.2522 48.4646 31.8843C48.2212 34.2521 47.534 36.8407 46.4855 39.3892C45.8383 40.9619 45.0558 42.5195 44.1553 43.9994C43.7013 44.1825 43.2021 44.2854 42.6804 44.2854C42.5148 44.2854 42.3493 44.2754 42.1888 44.2553C39.9639 49.5328 36.1086 53.2401 31.6262 53.9449C31.102 54.0227 30.5702 54.0653 30.036 54.0678C24.8262 54.0528 20.2761 50.0043 17.8255 43.9844C16.8222 43.9668 15.9117 43.573 15.2269 42.9384C14.7804 42.1408 14.369 41.3256 13.9953 40.5003C12.6784 37.6007 11.8156 34.5983 11.5372 31.8868C11.4719 31.2547 11.4393 30.6126 11.4393 29.9629C11.4393 29.9077 11.4393 29.8551 11.4393 29.7999V29.7848C11.4393 29.7447 11.4393 29.7046 11.4418 29.6644C11.4418 29.6519 11.4418 29.6418 11.4418 29.6293C11.4418 29.6017 11.4418 29.5741 11.4443 29.5465C11.4443 29.5315 11.4443 29.5164 11.4443 29.5014C11.4443 29.4788 11.4443 29.4562 11.4469 29.4337C11.4494 29.3885 11.4494 29.3434 11.4519 29.3007C11.4519 29.2932 11.4519 29.2857 11.4519 29.2781C11.4569 29.1678 11.4619 29.0574 11.4669 28.9496C11.4694 28.9019 11.4719 28.8517 11.4744 28.8041C11.4744 28.7865 11.477 28.769 11.477 28.7514C11.4795 28.7062 11.482 28.6611 11.487 28.6159C11.4895 28.5708 11.4945 28.5256 11.497 28.4805C11.4995 28.4604 11.4995 28.4429 11.502 28.4253C11.5045 28.3802 11.5096 28.3375 11.5121 28.2949C11.5121 28.2823 11.5146 28.2698 11.5146 28.2573C11.5221 28.1594 11.5321 28.0616 11.5422 27.9663C11.5547 27.8459 11.5698 27.723 11.5848 27.6026C11.5898 27.5549 11.5974 27.5048 11.6049 27.4571C11.6049 27.4546 11.6049 27.4546 11.6049 27.4521C11.6124 27.4044 11.6174 27.3568 11.6249 27.3091C11.635 27.2364 11.6475 27.1611 11.6576 27.0884C11.6626 27.0483 11.6701 27.0106 11.6751 26.9705C11.6751 26.968 11.6751 26.963 11.6776 26.9605C11.6851 26.9103 11.6927 26.8601 11.7027 26.8125C11.7027 26.8075 11.7052 26.8049 11.7052 26.7999C11.7152 26.7473 11.7228 26.6946 11.7328 26.6419C11.7428 26.5867 11.7529 26.534 11.7629 26.4814C11.7729 26.4337 11.7805 26.3861 11.7905 26.3384C11.793 26.3284 11.793 26.3183 11.7955 26.3108C11.8156 26.213 11.8356 26.1126 11.8557 26.0148C11.8582 25.9998 11.8607 25.9872 11.8657 25.9722C11.8758 25.927 11.8858 25.8844 11.8958 25.8392C11.9084 25.7866 11.9209 25.7339 11.9335 25.6812C11.946 25.6285 11.9586 25.5759 11.9711 25.5232C11.9811 25.478 11.9937 25.4329 12.0037 25.3903C12.0188 25.3275 12.0363 25.2623 12.0539 25.1996C12.0815 25.0993 12.1065 25.0015 12.1341 24.9011C12.1366 24.8961 12.1366 24.8936 12.1366 24.8911C12.1517 24.8409 12.1642 24.7908 12.1793 24.7406C12.1918 24.7005 12.2044 24.6603 12.2144 24.6202C12.2219 24.5976 12.2269 24.5776 12.2345 24.555C12.247 24.5149 12.2595 24.4722 12.2721 24.4321C12.2871 24.3844 12.3022 24.3393 12.3172 24.2916C12.3524 24.1838 12.3875 24.0734 12.4251 23.9655C12.4376 23.9279 12.4502 23.8903 12.4627 23.8527C12.4702 23.8326 12.4778 23.8125 12.4828 23.7925C12.4978 23.7523 12.5104 23.7122 12.5254 23.6746C12.5455 23.6219 12.5631 23.5692 12.5831 23.5165C12.6007 23.4689 12.6182 23.4212 12.6358 23.3736C12.6759 23.2707 12.7136 23.1679 12.7562 23.0676C12.7763 23.0174 12.7963 22.9697 12.8164 22.9196V22.9171C12.834 22.8719 12.8515 22.8293 12.8716 22.7866C12.8766 22.7766 12.8791 22.7691 12.8841 22.759C12.9042 22.7139 12.9217 22.6687 12.9418 22.6236C12.9619 22.5759 12.9845 22.5258 13.007 22.4781C13.007 22.4756 13.0095 22.4756 13.0095 22.4731C13.0296 22.4254 13.0522 22.3778 13.0722 22.3326C13.1149 22.2398 13.1575 22.1495 13.2002 22.0567C13.2052 22.0492 13.2077 22.0391 13.2127 22.0316C13.2554 21.9388 13.3005 21.846 13.3456 21.7557C13.3682 21.708 13.3933 21.6604 13.4159 21.6127C13.466 21.5149 13.5162 21.4171 13.5664 21.3218C13.589 21.2766 13.614 21.234 13.6366 21.1913C13.6617 21.1437 13.6868 21.0985 13.7119 21.0509C13.7369 21.0057 13.762 20.9581 13.7896 20.9129C13.7921 20.9054 13.7971 20.9004 13.7997 20.8928C13.8222 20.8527 13.8448 20.8126 13.8674 20.775C13.8925 20.7298 13.9201 20.6821 13.9476 20.637C13.9677 20.6019 13.9878 20.5668 14.0078 20.5342C14.0179 20.5141 14.0304 20.4965 14.0405 20.479C14.063 20.4439 14.0831 20.4062 14.1057 20.3711C14.1333 20.3235 14.1634 20.2783 14.191 20.2307C14.2185 20.188 14.2436 20.1454 14.2712 20.1027C14.2737 20.1002 14.2737 20.0977 14.2762 20.0952C14.3013 20.0526 14.3289 20.0124 14.354 19.9723C14.3891 19.9171 14.4242 19.8619 14.4618 19.8067C14.4844 19.7741 14.5045 19.7415 14.5271 19.7064C14.6174 19.5735 14.7077 19.4405 14.8005 19.3076C14.8306 19.265 14.8607 19.2223 14.8933 19.1797C14.9209 19.142 14.946 19.1069 14.9735 19.0693C14.9786 19.0643 14.9836 19.0568 14.9861 19.0517C15.0162 19.0116 15.0463 18.969 15.0764 18.9288C15.109 18.8837 15.1416 18.8385 15.1767 18.7959C15.2043 18.7608 15.2319 18.7257 15.2595 18.688C15.2971 18.6404 15.3347 18.5927 15.3724 18.5426C15.405 18.5024 15.4351 18.4623 15.4677 18.4222C15.4702 18.4197 15.4727 18.4146 15.4752 18.4121C15.5053 18.3745 15.5329 18.3394 15.563 18.3018C15.5655 18.2992 15.568 18.2967 15.5705 18.2942C15.6006 18.2591 15.6282 18.2215 15.6583 18.1864C15.6884 18.1513 15.7185 18.1136 15.7461 18.0785C15.7637 18.0585 15.7787 18.0384 15.7963 18.0183C15.7963 18.0158 15.7988 18.0133 15.8013 18.0133C15.8464 17.9606 15.8891 17.908 15.9342 17.8578C15.9468 17.8427 15.9593 17.8277 15.9719 17.8151C16.0045 17.7775 16.0371 17.7399 16.0697 17.7023C16.0722 17.6998 16.0722 17.6998 16.0722 17.6973C16.1023 17.6621 16.1349 17.627 16.1675 17.5919C16.18 17.5769 16.1926 17.5618 16.2076 17.5493C16.2327 17.5217 16.2603 17.4916 16.2854 17.464C16.323 17.4238 16.3606 17.3837 16.3983 17.3436C16.4208 17.321 16.4409 17.2959 16.4635 17.2733C16.4836 17.2508 16.5061 17.2282 16.5287 17.2056C16.5463 17.1881 16.5638 17.1705 16.5814 17.1504C16.609 17.1203 16.6391 17.0902 16.6692 17.0601C16.6867 17.0426 16.7043 17.025 16.7218 17.005C16.7595 16.9673 16.7971 16.9297 16.8322 16.8921C16.8523 16.872 16.8723 16.8494 16.8949 16.8294C16.9225 16.8018 16.9501 16.7742 16.9777 16.7491C16.9902 16.7366 17.0028 16.724 17.0128 16.714C17.0404 16.6864 17.068 16.6613 17.0931 16.6337C17.1182 16.6086 17.1432 16.5861 17.1683 16.561C17.2135 16.5183 17.2586 16.4757 17.3038 16.4331C17.3464 16.3929 17.3891 16.3528 17.4317 16.3127C17.4392 16.3076 17.4442 16.3001 17.4518 16.2951C17.4894 16.26 17.527 16.2249 17.5646 16.1923C17.5822 16.1747 17.6023 16.1597 17.6198 16.1421C17.7026 16.0669 17.7879 15.9941 17.8732 15.9214C17.8957 15.9013 17.9208 15.8812 17.9434 15.8612C17.9685 15.8386 17.9936 15.816 18.0211 15.796C18.0462 15.7734 18.0738 15.7508 18.0989 15.7282C18.1967 15.6455 18.2946 15.5652 18.3949 15.4874C18.4375 15.4548 18.4802 15.4197 18.5203 15.3871C18.5328 15.3771 18.5429 15.3695 18.5554 15.3595C18.6031 15.3219 18.6532 15.2843 18.7034 15.2466C18.7385 15.219 18.7736 15.1914 18.8088 15.1664C18.8213 15.1563 18.8363 15.1463 18.8489 15.1363C18.874 15.1162 18.8991 15.0986 18.9241 15.0786C18.9542 15.056 18.9843 15.0334 19.0144 15.0109C19.0245 15.0033 19.0345 14.9958 19.047 14.9883C19.0922 14.9532 19.1399 14.9206 19.185 14.8879C19.1925 14.8829 19.1975 14.8779 19.2051 14.8729C19.2552 14.8353 19.3079 14.8002 19.3581 14.7625C19.4057 14.7299 19.4509 14.6973 19.4985 14.6647C19.5312 14.6421 19.5638 14.6196 19.5964 14.597C19.6114 14.5869 19.6265 14.5769 19.6415 14.5669C19.6766 14.5443 19.7092 14.5217 19.7444 14.4966C19.7895 14.4665 19.8372 14.4364 19.8823 14.4063C19.935 14.3712 19.9877 14.3386 20.0403 14.3035C20.0554 14.2935 20.0704 14.2834 20.0855 14.2759C20.1206 14.2533 20.1582 14.2308 20.1959 14.2057C20.2134 14.1956 20.2335 14.1831 20.251 14.1731C20.2937 14.1455 20.3388 14.1179 20.3815 14.0928C20.394 14.0853 20.4091 14.0778 20.4216 14.0677C20.4768 14.0351 20.532 14.0025 20.5872 13.9699C20.6423 13.9373 20.7 13.9047 20.7552 13.8721C20.7602 13.8696 20.7678 13.8646 20.7728 13.862C20.8204 13.8345 20.8681 13.8069 20.9132 13.7818C20.996 13.7341 21.0813 13.689 21.1641 13.6438C21.2067 13.6212 21.2468 13.5987 21.2895 13.5761C21.3572 13.541 21.4249 13.5059 21.4927 13.4707C21.5228 13.4557 21.5554 13.4381 21.5855 13.4231C21.6131 13.408 21.6432 13.393 21.6733 13.3779C21.7184 13.3554 21.761 13.3328 21.8062 13.3102C21.8263 13.3002 21.8463 13.2901 21.8664 13.2801C21.899 13.2651 21.9316 13.2475 21.9642 13.2325C21.9943 13.2174 22.0244 13.2049 22.0545 13.1898C22.1047 13.1647 22.1574 13.1422 22.2075 13.1196C22.2502 13.0995 22.2953 13.0794 22.338 13.0594C22.358 13.0493 22.3806 13.0393 22.4032 13.0293C22.4383 13.0142 22.4709 12.9992 22.506 12.9841C22.5135 12.9816 22.5211 12.9766 22.5286 12.9741C22.5512 12.9641 22.5737 12.954 22.5963 12.944C22.6364 12.9264 22.6791 12.9089 22.7217 12.8913C22.7318 12.8863 22.7393 12.8838 22.7493 12.8788C22.7995 12.8587 22.8497 12.8361 22.8998 12.8161C23.0328 12.7609 23.1682 12.7057 23.3037 12.6555C23.3513 12.638 23.399 12.6204 23.4441 12.6004C23.5169 12.5728 23.5896 12.5452 23.6649 12.5201C23.7175 12.5 23.7702 12.4825 23.8254 12.4624C23.8806 12.4423 23.9383 12.4223 23.9934 12.4047C24.016 12.3972 24.0386 12.3897 24.0612 12.3821C24.1038 12.3671 24.1465 12.3545 24.1866 12.3395C24.2041 12.3345 24.2242 12.327 24.2418 12.3219C24.2919 12.3069 24.3421 12.2893 24.3923 12.2743C24.3948 12.2743 24.3973 12.2718 24.4023 12.2718C24.46 12.2542 24.5177 12.2341 24.5779 12.2166C24.5829 12.2141 24.5904 12.2141 24.5954 12.2116C24.628 12.2015 24.6632 12.1915 24.6958 12.1815C24.7284 12.1714 24.7635 12.1614 24.7961 12.1514C24.8287 12.1413 24.8638 12.1313 24.8989 12.1213C24.9341 12.1112 24.9667 12.1012 25.0018 12.0937C25.0695 12.0736 25.1372 12.0561 25.2075 12.0385C25.23 12.0335 25.2501 12.026 25.2727 12.0209C25.3003 12.0134 25.3279 12.0059 25.3555 11.9984C25.4081 11.9833 25.4633 11.9708 25.516 11.9582C25.5486 11.9507 25.5812 11.9432 25.6138 11.9357C25.7894 11.893 25.9625 11.8529 26.1406 11.8153C26.1757 11.8077 26.2108 11.8002 26.2459 11.7927C26.2885 11.7827 26.3337 11.7751 26.3763 11.7676C26.4014 11.7626 26.429 11.7576 26.4541 11.7526C26.567 11.73 26.6798 11.7099 26.7927 11.6898C26.8178 11.6848 26.8454 11.6798 26.8705 11.6773C26.9232 11.6673 26.9758 11.6597 27.0285 11.6522C27.0611 11.6472 27.0962 11.6422 27.1288 11.6372C27.1514 11.6347 27.174 11.6296 27.1966 11.6271C27.2267 11.6221 27.2593 11.6171 27.2894 11.6146C27.4348 11.592 27.5828 11.5745 27.7308 11.5544C28.4708 11.4641 29.2258 11.4189 29.9908 11.4189C30.7458 11.4189 31.4933 11.4641 32.2257 11.5519C32.3336 11.5644 32.4414 11.5795 32.5493 11.5945C32.5844 11.5995 32.6195 11.6046 32.6572 11.6096C32.6898 11.6146 32.7224 11.6196 32.7575 11.6246C32.7926 11.6296 32.8277 11.6347 32.8628 11.6397C32.8879 11.6422 32.913 11.6472 32.9406 11.6522C32.9958 11.6597 33.051 11.6698 33.1036 11.6798C33.1337 11.6848 33.1613 11.6898 33.1914 11.6949C33.2265 11.6999 33.2617 11.7074 33.2968 11.7124C33.362 11.725 33.4247 11.735 33.4899 11.7475C33.525 11.7551 33.5602 11.7601 33.5928 11.7676C33.7433 11.7977 33.8938 11.8278 34.0417 11.8629C34.2123 11.9005 34.3804 11.9407 34.5484 11.9833C34.5835 11.9908 34.6162 12.0009 34.6513 12.0109C34.6864 12.0184 34.719 12.0285 34.7541 12.0385C34.7942 12.0485 34.8319 12.0586 34.8695 12.0686C34.8996 12.0761 34.9297 12.0862 34.9573 12.0937C35.0927 12.1313 35.2282 12.1714 35.3636 12.2116C35.3937 12.2216 35.4263 12.2316 35.4589 12.2392C35.4815 12.2467 35.5041 12.2542 35.5267 12.2592C35.5568 12.2693 35.5894 12.2793 35.622 12.2893C35.7625 12.3345 35.9029 12.3796 36.0409 12.4273C36.066 12.4348 36.091 12.4448 36.1161 12.4524C36.1337 12.4574 36.1512 12.4649 36.1688 12.4724C36.2014 12.485 36.234 12.495 36.2691 12.5076C36.2892 12.5151 36.3093 12.5226 36.3293 12.5301C36.3544 12.5402 36.382 12.5502 36.4071 12.5577C36.4397 12.5703 36.4723 12.5828 36.5049 12.5928C36.525 12.6004 36.545 12.6079 36.5626 12.6154C36.5927 12.628 36.6253 12.638 36.6554 12.6505C36.8536 12.7258 37.0492 12.806 37.2424 12.8888C37.2649 12.8988 37.2875 12.9089 37.3101 12.9189C37.3527 12.9365 37.3929 12.954 37.4355 12.9741C37.4631 12.9866 37.4907 12.9992 37.5158 13.0092C37.5534 13.0243 37.5885 13.0418 37.6261 13.0594C37.6562 13.0719 37.6863 13.087 37.7164 13.102C37.749 13.1171 37.7816 13.1321 37.8143 13.1472C37.8444 13.1622 37.8745 13.1748 37.9071 13.1898C37.9397 13.2049 37.9723 13.2199 38.0049 13.235C38.035 13.25 38.0676 13.2651 38.0977 13.2801C38.1604 13.3102 38.2231 13.3403 38.2858 13.3729C38.3811 13.4206 38.4764 13.4707 38.5718 13.5184C38.6044 13.536 38.6345 13.551 38.6671 13.5686C38.7248 13.5987 38.7825 13.6288 38.8402 13.6614C38.9004 13.694 38.9631 13.7291 39.0233 13.7617C39.0784 13.7918 39.1311 13.8219 39.1863 13.852C39.1988 13.8595 39.2114 13.8671 39.2239 13.8746C39.397 13.9749 39.5676 14.0752 39.7381 14.1806C39.7406 14.1806 39.7406 14.1831 39.7431 14.1831C39.8585 14.2558 39.9739 14.3286 40.0893 14.4038C40.0893 14.4038 40.0918 14.4063 40.0943 14.4063C40.1445 14.439 40.1946 14.4716 40.2448 14.5042C40.2574 14.5117 40.2674 14.5192 40.2799 14.5267C40.3326 14.5619 40.3853 14.597 40.4354 14.6321C40.4931 14.6697 40.5483 14.7099 40.606 14.75C40.6562 14.7851 40.7038 14.8202 40.754 14.8528C40.769 14.8629 40.7866 14.8754 40.8017 14.8879C40.8343 14.913 40.8694 14.9356 40.902 14.9607C40.9221 14.9757 40.9396 14.9883 40.9597 15.0033C41.0098 15.0409 41.0575 15.0761 41.1077 15.1137C41.1553 15.1488 41.2005 15.1839 41.2456 15.219C41.2607 15.2291 41.2732 15.2416 41.2883 15.2516C41.4413 15.3695 41.5918 15.4874 41.7423 15.6103C41.7523 15.6204 41.7648 15.6279 41.7749 15.6379C41.8225 15.6781 41.8702 15.7157 41.9153 15.7558C42.0207 15.8436 42.1235 15.9314 42.2264 16.0217C42.2289 16.0242 42.2289 16.0242 42.2314 16.0267C42.2816 16.0719 42.3317 16.117 42.3844 16.1622C42.4346 16.2073 42.4872 16.255 42.5374 16.3001C42.5851 16.3453 42.6352 16.3879 42.6829 16.4331C42.6879 16.4381 42.6929 16.4406 42.6979 16.4456C42.7406 16.4857 42.7832 16.5259 42.8284 16.5685C42.8359 16.5735 42.8409 16.5811 42.8484 16.5886C42.8961 16.6337 42.9438 16.6789 42.9889 16.7265C43.0391 16.7742 43.0867 16.8219 43.1344 16.872C43.182 16.9197 43.2322 16.9698 43.2799 17.0175C43.3275 17.0677 43.3752 17.1153 43.4228 17.1655C43.4705 17.2157 43.5182 17.2658 43.5658 17.316C43.611 17.3636 43.6561 17.4113 43.6988 17.4615C43.7013 17.464 43.7038 17.469 43.7088 17.4715C43.7514 17.5192 43.7941 17.5668 43.8367 17.612C43.8618 17.6396 43.8869 17.6697 43.912 17.6973C43.9345 17.7223 43.9571 17.7474 43.9772 17.7725C43.9797 17.775 43.9822 17.7775 43.9847 17.78C44.0499 17.8553 44.1151 17.933 44.1804 18.0083C44.2255 18.061 44.2681 18.1136 44.3133 18.1663C44.3334 18.1914 44.3534 18.214 44.3735 18.239C44.3785 18.2441 44.3835 18.2491 44.386 18.2541C44.4237 18.2993 44.4613 18.3469 44.4964 18.3921C44.5215 18.4222 44.5466 18.4548 44.5717 18.4874C44.6143 18.5426 44.6569 18.5952 44.6996 18.6504C44.7849 18.7583 44.8676 18.8686 44.9479 18.9815C44.988 19.0342 45.0257 19.0869 45.0633 19.1395C45.0658 19.1446 45.0708 19.1496 45.0733 19.1521C45.0934 19.1772 45.1109 19.2048 45.131 19.2323C45.1686 19.2825 45.2037 19.3352 45.2389 19.3853C45.3016 19.4756 45.3643 19.5659 45.427 19.6588C45.4471 19.6863 45.4646 19.7164 45.4847 19.744C45.5424 19.8293 45.5975 19.9171 45.6552 20.0049C45.6753 20.035 45.6929 20.0651 45.7129 20.0952C45.7581 20.1654 45.8007 20.2357 45.8434 20.3084C45.8659 20.3435 45.886 20.3786 45.9086 20.4163C45.9688 20.5166 46.029 20.6169 46.0867 20.7173C46.1042 20.7449 46.1193 20.775 46.1368 20.8025C46.1619 20.8477 46.187 20.8903 46.2121 20.9355C46.2322 20.9706 46.2522 21.0057 46.2698 21.0408C46.2949 21.0835 46.3174 21.1261 46.34 21.1688C46.3425 21.1713 46.3425 21.1738 46.345 21.1763C46.3676 21.2164 46.3877 21.2566 46.4102 21.2967C46.4905 21.4472 46.5658 21.5977 46.641 21.7482C46.6586 21.7833 46.6761 21.8209 46.6937 21.856C46.6987 21.8661 46.7012 21.8736 46.7062 21.8836C46.7288 21.9288 46.7489 21.9714 46.7689 22.0141C46.7915 22.0617 46.8141 22.1094 46.8367 22.157C46.8517 22.1871 46.8668 22.2197 46.8793 22.2498C46.8843 22.2624 46.8893 22.2724 46.8969 22.285C46.9069 22.3075 46.9169 22.3301 46.927 22.3527C46.9395 22.3828 46.9545 22.4129 46.9671 22.443C46.9897 22.4906 47.0097 22.5383 47.0298 22.586C47.0499 22.6336 47.0699 22.6813 47.09 22.7264C47.1126 22.7791 47.1351 22.8318 47.1577 22.887C47.1753 22.9321 47.1953 22.9773 47.2129 23.0224C47.2305 23.065 47.248 23.1077 47.2631 23.1503C47.2656 23.1604 47.2706 23.1679 47.2731 23.1779C47.2907 23.2231 47.3107 23.2707 47.3283 23.3159C47.3433 23.3585 47.3609 23.4012 47.3759 23.4438C47.381 23.4563 47.386 23.4689 47.391 23.4814C47.406 23.5241 47.4236 23.5692 47.4387 23.6119C47.4562 23.662 47.4738 23.7122 47.4913 23.7598C47.5239 23.8527 47.5565 23.943 47.5866 24.0358C47.6067 24.0935 47.6243 24.1511 47.6443 24.2113C47.6569 24.254 47.6719 24.2966 47.6845 24.3368C47.687 24.3443 47.6895 24.3543 47.692 24.3618C47.7221 24.4547 47.7497 24.545 47.7773 24.6378C47.7823 24.6503 47.7848 24.6654 47.7898 24.6779L47.8224 24.7908C47.8425 24.8585 47.8601 24.9237 47.8801 24.9914C47.8927 25.0366 47.9052 25.0817 47.9177 25.1269C47.9328 25.1796 47.9453 25.2297 47.9579 25.2824C47.9704 25.3351 47.9855 25.3852 47.998 25.4379C48.008 25.4806 48.0181 25.5207 48.0281 25.5608C48.0432 25.6235 48.0582 25.6862 48.0733 25.7489C48.0833 25.7891 48.0933 25.8317 48.1008 25.8719C48.1034 25.8819 48.1059 25.8944 48.1084 25.9045C48.1184 25.9496 48.1284 25.9973 48.1385 26.0424C48.1535 26.1101 48.1661 26.1754 48.1811 26.2431C48.1911 26.2882 48.1987 26.3334 48.2087 26.3785C48.2212 26.4362 48.2313 26.4914 48.2413 26.5491C48.2513 26.5993 48.2589 26.6469 48.2689 26.6971C48.2789 26.7498 48.2865 26.8024 48.2965 26.8551C48.2965 26.8576 48.2965 26.8601 48.2965 26.8601C48.3065 26.9128 48.3141 26.9655 48.3216 27.0156C48.3216 27.0207 48.3241 27.0257 48.3241 27.0282C48.3316 27.0783 48.3391 27.126 48.3467 27.1762C48.3542 27.2288 48.3617 27.284 48.3692 27.3367C48.3793 27.3994 48.3868 27.4621 48.3943 27.5248C48.3993 27.5599 48.4044 27.5976 48.4094 27.6327C48.4194 27.7054 48.4269 27.7757 48.4345 27.8484C48.4395 27.8935 48.4445 27.9412 48.4495 27.9864C48.4495 27.9889 48.4495 27.9914 48.4495 27.9964C48.4545 28.0441 48.4595 28.0892 48.4646 28.1369C48.4646 28.1469 48.4671 28.1569 48.4671 28.1695C48.4696 28.1996 48.4721 28.2322 48.4746 28.2623C48.4771 28.2823 48.4771 28.3024 48.4796 28.3225C48.4821 28.3601 48.4846 28.3952 48.4896 28.4303C48.4921 28.4579 48.4947 28.483 48.4947 28.5081C48.4972 28.5532 48.5022 28.5959 48.5047 28.641C48.5072 28.6812 48.5097 28.7213 48.5122 28.7639C48.5147 28.7915 48.5147 28.8166 48.5172 28.8442C48.5222 28.9245 48.5273 29.0047 48.5298 29.0875C48.5298 29.0925 48.5298 29.095 48.5298 29.0975C48.5323 29.1201 48.5323 29.1427 48.5323 29.1653C48.5348 29.1979 48.5348 29.2305 48.5373 29.2656C48.5373 29.2932 48.5398 29.3208 48.5398 29.3484C48.5398 29.381 48.5423 29.4136 48.5423 29.4437C48.5423 29.4688 48.5423 29.4939 48.5448 29.5164C48.5448 29.5591 48.5473 29.6042 48.5473 29.6469C48.5473 29.6995 48.5498 29.7497 48.5498 29.8024V29.8049C48.5624 29.8525 48.5624 29.9077 48.5624 29.9629Z"/>
</mask>
<path d="M48.5624 29.9629C48.5624 30.6101 48.5298 31.2522 48.4646 31.8843C48.2212 34.2521 47.534 36.8407 46.4855 39.3892C45.8383 40.9619 45.0558 42.5195 44.1553 43.9994C43.7013 44.1825 43.2021 44.2854 42.6804 44.2854C42.5148 44.2854 42.3493 44.2754 42.1888 44.2553C39.9639 49.5328 36.1086 53.2401 31.6262 53.9449C31.102 54.0227 30.5702 54.0653 30.036 54.0678C24.8262 54.0528 20.2761 50.0043 17.8255 43.9844C16.8222 43.9668 15.9117 43.573 15.2269 42.9384C14.7804 42.1408 14.369 41.3256 13.9953 40.5003C12.6784 37.6007 11.8156 34.5983 11.5372 31.8868C11.4719 31.2547 11.4393 30.6126 11.4393 29.9629C11.4393 29.9077 11.4393 29.8551 11.4393 29.7999V29.7848C11.4393 29.7447 11.4393 29.7046 11.4418 29.6644C11.4418 29.6519 11.4418 29.6418 11.4418 29.6293C11.4418 29.6017 11.4418 29.5741 11.4443 29.5465C11.4443 29.5315 11.4443 29.5164 11.4443 29.5014C11.4443 29.4788 11.4443 29.4562 11.4469 29.4337C11.4494 29.3885 11.4494 29.3434 11.4519 29.3007C11.4519 29.2932 11.4519 29.2857 11.4519 29.2781C11.4569 29.1678 11.4619 29.0574 11.4669 28.9496C11.4694 28.9019 11.4719 28.8517 11.4744 28.8041C11.4744 28.7865 11.477 28.769 11.477 28.7514C11.4795 28.7062 11.482 28.6611 11.487 28.6159C11.4895 28.5708 11.4945 28.5256 11.497 28.4805C11.4995 28.4604 11.4995 28.4429 11.502 28.4253C11.5045 28.3802 11.5096 28.3375 11.5121 28.2949C11.5121 28.2823 11.5146 28.2698 11.5146 28.2573C11.5221 28.1594 11.5321 28.0616 11.5422 27.9663C11.5547 27.8459 11.5698 27.723 11.5848 27.6026C11.5898 27.5549 11.5974 27.5048 11.6049 27.4571C11.6049 27.4546 11.6049 27.4546 11.6049 27.4521C11.6124 27.4044 11.6174 27.3568 11.6249 27.3091C11.635 27.2364 11.6475 27.1611 11.6576 27.0884C11.6626 27.0483 11.6701 27.0106 11.6751 26.9705C11.6751 26.968 11.6751 26.963 11.6776 26.9605C11.6851 26.9103 11.6927 26.8601 11.7027 26.8125C11.7027 26.8075 11.7052 26.8049 11.7052 26.7999C11.7152 26.7473 11.7228 26.6946 11.7328 26.6419C11.7428 26.5867 11.7529 26.534 11.7629 26.4814C11.7729 26.4337 11.7805 26.3861 11.7905 26.3384C11.793 26.3284 11.793 26.3183 11.7955 26.3108C11.8156 26.213 11.8356 26.1126 11.8557 26.0148C11.8582 25.9998 11.8607 25.9872 11.8657 25.9722C11.8758 25.927 11.8858 25.8844 11.8958 25.8392C11.9084 25.7866 11.9209 25.7339 11.9335 25.6812C11.946 25.6285 11.9586 25.5759 11.9711 25.5232C11.9811 25.478 11.9937 25.4329 12.0037 25.3903C12.0188 25.3275 12.0363 25.2623 12.0539 25.1996C12.0815 25.0993 12.1065 25.0015 12.1341 24.9011C12.1366 24.8961 12.1366 24.8936 12.1366 24.8911C12.1517 24.8409 12.1642 24.7908 12.1793 24.7406C12.1918 24.7005 12.2044 24.6603 12.2144 24.6202C12.2219 24.5976 12.2269 24.5776 12.2345 24.555C12.247 24.5149 12.2595 24.4722 12.2721 24.4321C12.2871 24.3844 12.3022 24.3393 12.3172 24.2916C12.3524 24.1838 12.3875 24.0734 12.4251 23.9655C12.4376 23.9279 12.4502 23.8903 12.4627 23.8527C12.4702 23.8326 12.4778 23.8125 12.4828 23.7925C12.4978 23.7523 12.5104 23.7122 12.5254 23.6746C12.5455 23.6219 12.5631 23.5692 12.5831 23.5165C12.6007 23.4689 12.6182 23.4212 12.6358 23.3736C12.6759 23.2707 12.7136 23.1679 12.7562 23.0676C12.7763 23.0174 12.7963 22.9697 12.8164 22.9196V22.9171C12.834 22.8719 12.8515 22.8293 12.8716 22.7866C12.8766 22.7766 12.8791 22.7691 12.8841 22.759C12.9042 22.7139 12.9217 22.6687 12.9418 22.6236C12.9619 22.5759 12.9845 22.5258 13.007 22.4781C13.007 22.4756 13.0095 22.4756 13.0095 22.4731C13.0296 22.4254 13.0522 22.3778 13.0722 22.3326C13.1149 22.2398 13.1575 22.1495 13.2002 22.0567C13.2052 22.0492 13.2077 22.0391 13.2127 22.0316C13.2554 21.9388 13.3005 21.846 13.3456 21.7557C13.3682 21.708 13.3933 21.6604 13.4159 21.6127C13.466 21.5149 13.5162 21.4171 13.5664 21.3218C13.589 21.2766 13.614 21.234 13.6366 21.1913C13.6617 21.1437 13.6868 21.0985 13.7119 21.0509C13.7369 21.0057 13.762 20.9581 13.7896 20.9129C13.7921 20.9054 13.7971 20.9004 13.7997 20.8928C13.8222 20.8527 13.8448 20.8126 13.8674 20.775C13.8925 20.7298 13.9201 20.6821 13.9476 20.637C13.9677 20.6019 13.9878 20.5668 14.0078 20.5342C14.0179 20.5141 14.0304 20.4965 14.0405 20.479C14.063 20.4439 14.0831 20.4062 14.1057 20.3711C14.1333 20.3235 14.1634 20.2783 14.191 20.2307C14.2185 20.188 14.2436 20.1454 14.2712 20.1027C14.2737 20.1002 14.2737 20.0977 14.2762 20.0952C14.3013 20.0526 14.3289 20.0124 14.354 19.9723C14.3891 19.9171 14.4242 19.8619 14.4618 19.8067C14.4844 19.7741 14.5045 19.7415 14.5271 19.7064C14.6174 19.5735 14.7077 19.4405 14.8005 19.3076C14.8306 19.265 14.8607 19.2223 14.8933 19.1797C14.9209 19.142 14.946 19.1069 14.9735 19.0693C14.9786 19.0643 14.9836 19.0568 14.9861 19.0517C15.0162 19.0116 15.0463 18.969 15.0764 18.9288C15.109 18.8837 15.1416 18.8385 15.1767 18.7959C15.2043 18.7608 15.2319 18.7257 15.2595 18.688C15.2971 18.6404 15.3347 18.5927 15.3724 18.5426C15.405 18.5024 15.4351 18.4623 15.4677 18.4222C15.4702 18.4197 15.4727 18.4146 15.4752 18.4121C15.5053 18.3745 15.5329 18.3394 15.563 18.3018C15.5655 18.2992 15.568 18.2967 15.5705 18.2942C15.6006 18.2591 15.6282 18.2215 15.6583 18.1864C15.6884 18.1513 15.7185 18.1136 15.7461 18.0785C15.7637 18.0585 15.7787 18.0384 15.7963 18.0183C15.7963 18.0158 15.7988 18.0133 15.8013 18.0133C15.8464 17.9606 15.8891 17.908 15.9342 17.8578C15.9468 17.8427 15.9593 17.8277 15.9719 17.8151C16.0045 17.7775 16.0371 17.7399 16.0697 17.7023C16.0722 17.6998 16.0722 17.6998 16.0722 17.6973C16.1023 17.6621 16.1349 17.627 16.1675 17.5919C16.18 17.5769 16.1926 17.5618 16.2076 17.5493C16.2327 17.5217 16.2603 17.4916 16.2854 17.464C16.323 17.4238 16.3606 17.3837 16.3983 17.3436C16.4208 17.321 16.4409 17.2959 16.4635 17.2733C16.4836 17.2508 16.5061 17.2282 16.5287 17.2056C16.5463 17.1881 16.5638 17.1705 16.5814 17.1504C16.609 17.1203 16.6391 17.0902 16.6692 17.0601C16.6867 17.0426 16.7043 17.025 16.7218 17.005C16.7595 16.9673 16.7971 16.9297 16.8322 16.8921C16.8523 16.872 16.8723 16.8494 16.8949 16.8294C16.9225 16.8018 16.9501 16.7742 16.9777 16.7491C16.9902 16.7366 17.0028 16.724 17.0128 16.714C17.0404 16.6864 17.068 16.6613 17.0931 16.6337C17.1182 16.6086 17.1432 16.5861 17.1683 16.561C17.2135 16.5183 17.2586 16.4757 17.3038 16.4331C17.3464 16.3929 17.3891 16.3528 17.4317 16.3127C17.4392 16.3076 17.4442 16.3001 17.4518 16.2951C17.4894 16.26 17.527 16.2249 17.5646 16.1923C17.5822 16.1747 17.6023 16.1597 17.6198 16.1421C17.7026 16.0669 17.7879 15.9941 17.8732 15.9214C17.8957 15.9013 17.9208 15.8812 17.9434 15.8612C17.9685 15.8386 17.9936 15.816 18.0211 15.796C18.0462 15.7734 18.0738 15.7508 18.0989 15.7282C18.1967 15.6455 18.2946 15.5652 18.3949 15.4874C18.4375 15.4548 18.4802 15.4197 18.5203 15.3871C18.5328 15.3771 18.5429 15.3695 18.5554 15.3595C18.6031 15.3219 18.6532 15.2843 18.7034 15.2466C18.7385 15.219 18.7736 15.1914 18.8088 15.1664C18.8213 15.1563 18.8363 15.1463 18.8489 15.1363C18.874 15.1162 18.8991 15.0986 18.9241 15.0786C18.9542 15.056 18.9843 15.0334 19.0144 15.0109C19.0245 15.0033 19.0345 14.9958 19.047 14.9883C19.0922 14.9532 19.1399 14.9206 19.185 14.8879C19.1925 14.8829 19.1975 14.8779 19.2051 14.8729C19.2552 14.8353 19.3079 14.8002 19.3581 14.7625C19.4057 14.7299 19.4509 14.6973 19.4985 14.6647C19.5312 14.6421 19.5638 14.6196 19.5964 14.597C19.6114 14.5869 19.6265 14.5769 19.6415 14.5669C19.6766 14.5443 19.7092 14.5217 19.7444 14.4966C19.7895 14.4665 19.8372 14.4364 19.8823 14.4063C19.935 14.3712 19.9877 14.3386 20.0403 14.3035C20.0554 14.2935 20.0704 14.2834 20.0855 14.2759C20.1206 14.2533 20.1582 14.2308 20.1959 14.2057C20.2134 14.1956 20.2335 14.1831 20.251 14.1731C20.2937 14.1455 20.3388 14.1179 20.3815 14.0928C20.394 14.0853 20.4091 14.0778 20.4216 14.0677C20.4768 14.0351 20.532 14.0025 20.5872 13.9699C20.6423 13.9373 20.7 13.9047 20.7552 13.8721C20.7602 13.8696 20.7678 13.8646 20.7728 13.862C20.8204 13.8345 20.8681 13.8069 20.9132 13.7818C20.996 13.7341 21.0813 13.689 21.1641 13.6438C21.2067 13.6212 21.2468 13.5987 21.2895 13.5761C21.3572 13.541 21.4249 13.5059 21.4927 13.4707C21.5228 13.4557 21.5554 13.4381 21.5855 13.4231C21.6131 13.408 21.6432 13.393 21.6733 13.3779C21.7184 13.3554 21.761 13.3328 21.8062 13.3102C21.8263 13.3002 21.8463 13.2901 21.8664 13.2801C21.899 13.2651 21.9316 13.2475 21.9642 13.2325C21.9943 13.2174 22.0244 13.2049 22.0545 13.1898C22.1047 13.1647 22.1574 13.1422 22.2075 13.1196C22.2502 13.0995 22.2953 13.0794 22.338 13.0594C22.358 13.0493 22.3806 13.0393 22.4032 13.0293C22.4383 13.0142 22.4709 12.9992 22.506 12.9841C22.5135 12.9816 22.5211 12.9766 22.5286 12.9741C22.5512 12.9641 22.5737 12.954 22.5963 12.944C22.6364 12.9264 22.6791 12.9089 22.7217 12.8913C22.7318 12.8863 22.7393 12.8838 22.7493 12.8788C22.7995 12.8587 22.8497 12.8361 22.8998 12.8161C23.0328 12.7609 23.1682 12.7057 23.3037 12.6555C23.3513 12.638 23.399 12.6204 23.4441 12.6004C23.5169 12.5728 23.5896 12.5452 23.6649 12.5201C23.7175 12.5 23.7702 12.4825 23.8254 12.4624C23.8806 12.4423 23.9383 12.4223 23.9934 12.4047C24.016 12.3972 24.0386 12.3897 24.0612 12.3821C24.1038 12.3671 24.1465 12.3545 24.1866 12.3395C24.2041 12.3345 24.2242 12.327 24.2418 12.3219C24.2919 12.3069 24.3421 12.2893 24.3923 12.2743C24.3948 12.2743 24.3973 12.2718 24.4023 12.2718C24.46 12.2542 24.5177 12.2341 24.5779 12.2166C24.5829 12.2141 24.5904 12.2141 24.5954 12.2116C24.628 12.2015 24.6632 12.1915 24.6958 12.1815C24.7284 12.1714 24.7635 12.1614 24.7961 12.1514C24.8287 12.1413 24.8638 12.1313 24.8989 12.1213C24.9341 12.1112 24.9667 12.1012 25.0018 12.0937C25.0695 12.0736 25.1372 12.0561 25.2075 12.0385C25.23 12.0335 25.2501 12.026 25.2727 12.0209C25.3003 12.0134 25.3279 12.0059 25.3555 11.9984C25.4081 11.9833 25.4633 11.9708 25.516 11.9582C25.5486 11.9507 25.5812 11.9432 25.6138 11.9357C25.7894 11.893 25.9625 11.8529 26.1406 11.8153C26.1757 11.8077 26.2108 11.8002 26.2459 11.7927C26.2885 11.7827 26.3337 11.7751 26.3763 11.7676C26.4014 11.7626 26.429 11.7576 26.4541 11.7526C26.567 11.73 26.6798 11.7099 26.7927 11.6898C26.8178 11.6848 26.8454 11.6798 26.8705 11.6773C26.9232 11.6673 26.9758 11.6597 27.0285 11.6522C27.0611 11.6472 27.0962 11.6422 27.1288 11.6372C27.1514 11.6347 27.174 11.6296 27.1966 11.6271C27.2267 11.6221 27.2593 11.6171 27.2894 11.6146C27.4348 11.592 27.5828 11.5745 27.7308 11.5544C28.4708 11.4641 29.2258 11.4189 29.9908 11.4189C30.7458 11.4189 31.4933 11.4641 32.2257 11.5519C32.3336 11.5644 32.4414 11.5795 32.5493 11.5945C32.5844 11.5995 32.6195 11.6046 32.6572 11.6096C32.6898 11.6146 32.7224 11.6196 32.7575 11.6246C32.7926 11.6296 32.8277 11.6347 32.8628 11.6397C32.8879 11.6422 32.913 11.6472 32.9406 11.6522C32.9958 11.6597 33.051 11.6698 33.1036 11.6798C33.1337 11.6848 33.1613 11.6898 33.1914 11.6949C33.2265 11.6999 33.2617 11.7074 33.2968 11.7124C33.362 11.725 33.4247 11.735 33.4899 11.7475C33.525 11.7551 33.5602 11.7601 33.5928 11.7676C33.7433 11.7977 33.8938 11.8278 34.0417 11.8629C34.2123 11.9005 34.3804 11.9407 34.5484 11.9833C34.5835 11.9908 34.6162 12.0009 34.6513 12.0109C34.6864 12.0184 34.719 12.0285 34.7541 12.0385C34.7942 12.0485 34.8319 12.0586 34.8695 12.0686C34.8996 12.0761 34.9297 12.0862 34.9573 12.0937C35.0927 12.1313 35.2282 12.1714 35.3636 12.2116C35.3937 12.2216 35.4263 12.2316 35.4589 12.2392C35.4815 12.2467 35.5041 12.2542 35.5267 12.2592C35.5568 12.2693 35.5894 12.2793 35.622 12.2893C35.7625 12.3345 35.9029 12.3796 36.0409 12.4273C36.066 12.4348 36.091 12.4448 36.1161 12.4524C36.1337 12.4574 36.1512 12.4649 36.1688 12.4724C36.2014 12.485 36.234 12.495 36.2691 12.5076C36.2892 12.5151 36.3093 12.5226 36.3293 12.5301C36.3544 12.5402 36.382 12.5502 36.4071 12.5577C36.4397 12.5703 36.4723 12.5828 36.5049 12.5928C36.525 12.6004 36.545 12.6079 36.5626 12.6154C36.5927 12.628 36.6253 12.638 36.6554 12.6505C36.8536 12.7258 37.0492 12.806 37.2424 12.8888C37.2649 12.8988 37.2875 12.9089 37.3101 12.9189C37.3527 12.9365 37.3929 12.954 37.4355 12.9741C37.4631 12.9866 37.4907 12.9992 37.5158 13.0092C37.5534 13.0243 37.5885 13.0418 37.6261 13.0594C37.6562 13.0719 37.6863 13.087 37.7164 13.102C37.749 13.1171 37.7816 13.1321 37.8143 13.1472C37.8444 13.1622 37.8745 13.1748 37.9071 13.1898C37.9397 13.2049 37.9723 13.2199 38.0049 13.235C38.035 13.25 38.0676 13.2651 38.0977 13.2801C38.1604 13.3102 38.2231 13.3403 38.2858 13.3729C38.3811 13.4206 38.4764 13.4707 38.5718 13.5184C38.6044 13.536 38.6345 13.551 38.6671 13.5686C38.7248 13.5987 38.7825 13.6288 38.8402 13.6614C38.9004 13.694 38.9631 13.7291 39.0233 13.7617C39.0784 13.7918 39.1311 13.8219 39.1863 13.852C39.1988 13.8595 39.2114 13.8671 39.2239 13.8746C39.397 13.9749 39.5676 14.0752 39.7381 14.1806C39.7406 14.1806 39.7406 14.1831 39.7431 14.1831C39.8585 14.2558 39.9739 14.3286 40.0893 14.4038C40.0893 14.4038 40.0918 14.4063 40.0943 14.4063C40.1445 14.439 40.1946 14.4716 40.2448 14.5042C40.2574 14.5117 40.2674 14.5192 40.2799 14.5267C40.3326 14.5619 40.3853 14.597 40.4354 14.6321C40.4931 14.6697 40.5483 14.7099 40.606 14.75C40.6562 14.7851 40.7038 14.8202 40.754 14.8528C40.769 14.8629 40.7866 14.8754 40.8017 14.8879C40.8343 14.913 40.8694 14.9356 40.902 14.9607C40.9221 14.9757 40.9396 14.9883 40.9597 15.0033C41.0098 15.0409 41.0575 15.0761 41.1077 15.1137C41.1553 15.1488 41.2005 15.1839 41.2456 15.219C41.2607 15.2291 41.2732 15.2416 41.2883 15.2516C41.4413 15.3695 41.5918 15.4874 41.7423 15.6103C41.7523 15.6204 41.7648 15.6279 41.7749 15.6379C41.8225 15.6781 41.8702 15.7157 41.9153 15.7558C42.0207 15.8436 42.1235 15.9314 42.2264 16.0217C42.2289 16.0242 42.2289 16.0242 42.2314 16.0267C42.2816 16.0719 42.3317 16.117 42.3844 16.1622C42.4346 16.2073 42.4872 16.255 42.5374 16.3001C42.5851 16.3453 42.6352 16.3879 42.6829 16.4331C42.6879 16.4381 42.6929 16.4406 42.6979 16.4456C42.7406 16.4857 42.7832 16.5259 42.8284 16.5685C42.8359 16.5735 42.8409 16.5811 42.8484 16.5886C42.8961 16.6337 42.9438 16.6789 42.9889 16.7265C43.0391 16.7742 43.0867 16.8219 43.1344 16.872C43.182 16.9197 43.2322 16.9698 43.2799 17.0175C43.3275 17.0677 43.3752 17.1153 43.4228 17.1655C43.4705 17.2157 43.5182 17.2658 43.5658 17.316C43.611 17.3636 43.6561 17.4113 43.6988 17.4615C43.7013 17.464 43.7038 17.469 43.7088 17.4715C43.7514 17.5192 43.7941 17.5668 43.8367 17.612C43.8618 17.6396 43.8869 17.6697 43.912 17.6973C43.9345 17.7223 43.9571 17.7474 43.9772 17.7725C43.9797 17.775 43.9822 17.7775 43.9847 17.78C44.0499 17.8553 44.1151 17.933 44.1804 18.0083C44.2255 18.061 44.2681 18.1136 44.3133 18.1663C44.3334 18.1914 44.3534 18.214 44.3735 18.239C44.3785 18.2441 44.3835 18.2491 44.386 18.2541C44.4237 18.2993 44.4613 18.3469 44.4964 18.3921C44.5215 18.4222 44.5466 18.4548 44.5717 18.4874C44.6143 18.5426 44.6569 18.5952 44.6996 18.6504C44.7849 18.7583 44.8676 18.8686 44.9479 18.9815C44.988 19.0342 45.0257 19.0869 45.0633 19.1395C45.0658 19.1446 45.0708 19.1496 45.0733 19.1521C45.0934 19.1772 45.1109 19.2048 45.131 19.2323C45.1686 19.2825 45.2037 19.3352 45.2389 19.3853C45.3016 19.4756 45.3643 19.5659 45.427 19.6588C45.4471 19.6863 45.4646 19.7164 45.4847 19.744C45.5424 19.8293 45.5975 19.9171 45.6552 20.0049C45.6753 20.035 45.6929 20.0651 45.7129 20.0952C45.7581 20.1654 45.8007 20.2357 45.8434 20.3084C45.8659 20.3435 45.886 20.3786 45.9086 20.4163C45.9688 20.5166 46.029 20.6169 46.0867 20.7173C46.1042 20.7449 46.1193 20.775 46.1368 20.8025C46.1619 20.8477 46.187 20.8903 46.2121 20.9355C46.2322 20.9706 46.2522 21.0057 46.2698 21.0408C46.2949 21.0835 46.3174 21.1261 46.34 21.1688C46.3425 21.1713 46.3425 21.1738 46.345 21.1763C46.3676 21.2164 46.3877 21.2566 46.4102 21.2967C46.4905 21.4472 46.5658 21.5977 46.641 21.7482C46.6586 21.7833 46.6761 21.8209 46.6937 21.856C46.6987 21.8661 46.7012 21.8736 46.7062 21.8836C46.7288 21.9288 46.7489 21.9714 46.7689 22.0141C46.7915 22.0617 46.8141 22.1094 46.8367 22.157C46.8517 22.1871 46.8668 22.2197 46.8793 22.2498C46.8843 22.2624 46.8893 22.2724 46.8969 22.285C46.9069 22.3075 46.9169 22.3301 46.927 22.3527C46.9395 22.3828 46.9545 22.4129 46.9671 22.443C46.9897 22.4906 47.0097 22.5383 47.0298 22.586C47.0499 22.6336 47.0699 22.6813 47.09 22.7264C47.1126 22.7791 47.1351 22.8318 47.1577 22.887C47.1753 22.9321 47.1953 22.9773 47.2129 23.0224C47.2305 23.065 47.248 23.1077 47.2631 23.1503C47.2656 23.1604 47.2706 23.1679 47.2731 23.1779C47.2907 23.2231 47.3107 23.2707 47.3283 23.3159C47.3433 23.3585 47.3609 23.4012 47.3759 23.4438C47.381 23.4563 47.386 23.4689 47.391 23.4814C47.406 23.5241 47.4236 23.5692 47.4387 23.6119C47.4562 23.662 47.4738 23.7122 47.4913 23.7598C47.5239 23.8527 47.5565 23.943 47.5866 24.0358C47.6067 24.0935 47.6243 24.1511 47.6443 24.2113C47.6569 24.254 47.6719 24.2966 47.6845 24.3368C47.687 24.3443 47.6895 24.3543 47.692 24.3618C47.7221 24.4547 47.7497 24.545 47.7773 24.6378C47.7823 24.6503 47.7848 24.6654 47.7898 24.6779L47.8224 24.7908C47.8425 24.8585 47.8601 24.9237 47.8801 24.9914C47.8927 25.0366 47.9052 25.0817 47.9177 25.1269C47.9328 25.1796 47.9453 25.2297 47.9579 25.2824C47.9704 25.3351 47.9855 25.3852 47.998 25.4379C48.008 25.4806 48.0181 25.5207 48.0281 25.5608C48.0432 25.6235 48.0582 25.6862 48.0733 25.7489C48.0833 25.7891 48.0933 25.8317 48.1008 25.8719C48.1034 25.8819 48.1059 25.8944 48.1084 25.9045C48.1184 25.9496 48.1284 25.9973 48.1385 26.0424C48.1535 26.1101 48.1661 26.1754 48.1811 26.2431C48.1911 26.2882 48.1987 26.3334 48.2087 26.3785C48.2212 26.4362 48.2313 26.4914 48.2413 26.5491C48.2513 26.5993 48.2589 26.6469 48.2689 26.6971C48.2789 26.7498 48.2865 26.8024 48.2965 26.8551C48.2965 26.8576 48.2965 26.8601 48.2965 26.8601C48.3065 26.9128 48.3141 26.9655 48.3216 27.0156C48.3216 27.0207 48.3241 27.0257 48.3241 27.0282C48.3316 27.0783 48.3391 27.126 48.3467 27.1762C48.3542 27.2288 48.3617 27.284 48.3692 27.3367C48.3793 27.3994 48.3868 27.4621 48.3943 27.5248C48.3993 27.5599 48.4044 27.5976 48.4094 27.6327C48.4194 27.7054 48.4269 27.7757 48.4345 27.8484C48.4395 27.8935 48.4445 27.9412 48.4495 27.9864C48.4495 27.9889 48.4495 27.9914 48.4495 27.9964C48.4545 28.0441 48.4595 28.0892 48.4646 28.1369C48.4646 28.1469 48.4671 28.1569 48.4671 28.1695C48.4696 28.1996 48.4721 28.2322 48.4746 28.2623C48.4771 28.2823 48.4771 28.3024 48.4796 28.3225C48.4821 28.3601 48.4846 28.3952 48.4896 28.4303C48.4921 28.4579 48.4947 28.483 48.4947 28.5081C48.4972 28.5532 48.5022 28.5959 48.5047 28.641C48.5072 28.6812 48.5097 28.7213 48.5122 28.7639C48.5147 28.7915 48.5147 28.8166 48.5172 28.8442C48.5222 28.9245 48.5273 29.0047 48.5298 29.0875C48.5298 29.0925 48.5298 29.095 48.5298 29.0975C48.5323 29.1201 48.5323 29.1427 48.5323 29.1653C48.5348 29.1979 48.5348 29.2305 48.5373 29.2656C48.5373 29.2932 48.5398 29.3208 48.5398 29.3484C48.5398 29.381 48.5423 29.4136 48.5423 29.4437C48.5423 29.4688 48.5423 29.4939 48.5448 29.5164C48.5448 29.5591 48.5473 29.6042 48.5473 29.6469C48.5473 29.6995 48.5498 29.7497 48.5498 29.8024V29.8049C48.5624 29.8525 48.5624 29.9077 48.5624 29.9629Z" fill="white" stroke="black" stroke-width="2" mask="url(#path-5-inside-1_515_3642)"/>
<path d="M15.5671 42.5716L15.5668 42.5713C14.9808 42.029 14.5873 41.284 14.4928 40.4466C14.479 40.3129 14.4706 40.1862 14.4706 40.0613C14.4706 38.7577 15.2007 37.6212 16.2767 37.0427L16.2778 37.0421C16.7577 36.7825 17.3082 36.6357 17.8961 36.6357L17.8967 36.6357C19.7899 36.6336 21.3241 38.1678 21.3241 40.0587C21.3241 41.9498 19.7896 43.4843 17.8986 43.4843H17.8985H17.8983H17.8982H17.898H17.8979H17.8977H17.8976H17.8974H17.8973H17.8971H17.897H17.8968H17.8967H17.8965H17.8964H17.8963H17.8961H17.896H17.8958H17.8957H17.8955H17.8954H17.8952H17.8951H17.8949H17.8948H17.8947H17.8945H17.8944H17.8942H17.8941H17.8939H17.8938H17.8936H17.8935H17.8933H17.8932H17.8931H17.8929H17.8928H17.8926H17.8925H17.8923H17.8922H17.892H17.8919H17.8918H17.8916H17.8915H17.8913H17.8912H17.891H17.8909H17.8907H17.8906H17.8905H17.8903H17.8902H17.89H17.8899H17.8897H17.8896H17.8894H17.8893H17.8892H17.889H17.8889H17.8887H17.8886H17.8884H17.8883H17.8882H17.888H17.8879H17.8877H17.8876H17.8874H17.8873H17.8872H17.887H17.8869H17.8867H17.8866H17.8864H17.8863H17.8861H17.886H17.8859H17.8857H17.8856H17.8854H17.8853H17.8852H17.885H17.8849H17.8847H17.8846H17.8844H17.8843H17.8842H17.884H17.8839H17.8837H17.8836H17.8834H17.8833H17.8832H17.883H17.8829H17.8827H17.8826H17.8824H17.8823H17.8822H17.882H17.8819H17.8817H17.8816H17.8815H17.8813H17.8812H17.881H17.8809H17.8807H17.8806H17.8805H17.8803H17.8802H17.88H17.8799H17.8798H17.8796H17.8795H17.8793H17.8792H17.879H17.8789H17.8788H17.8786H17.8785H17.8783H17.8782H17.8781H17.8779H17.8778H17.8776H17.8775H17.8774H17.8772H17.8771H17.8769H17.8768H17.8767H17.8765H17.8764H17.8762H17.8761H17.8759H17.8758H17.8757H17.8755H17.8754H17.8752H17.8751H17.875H17.8748H17.8747H17.8745H17.8744H17.8743H17.8741H17.874H17.8738H17.8737H17.8736H17.8734H17.8733H17.8731H17.873H17.8729H17.8727H17.8726H17.8724H17.8723H17.8722H17.872H17.8719H17.8717H17.8716H17.8715H17.8713H17.8712H17.871H17.8709H17.8708H17.8706H17.8705H17.8703H17.8702H17.8701H17.8699H17.8698H17.8696H17.8695H17.8694H17.8692H17.8691H17.8689H17.8688H17.8687H17.8685H17.8684H17.8682H17.8681H17.868H17.8678H17.8677H17.8675H17.8674H17.8673H17.8671H17.867H17.8668H17.8667H17.8666H17.8664H17.8663H17.8661H17.866H17.8659H17.8657H17.8656H17.8654H17.8653H17.8652H17.865H17.8649H17.8647H17.8646H17.8645H17.8643H17.8642H17.864H17.8639H17.8638H17.8636H17.8635H17.8633H17.8632H17.8631H17.8629H17.8628H17.8626H17.8625H17.8624H17.8622H17.8621H17.862H17.8618H17.8617H17.8615H17.8614H17.8613H17.8611H17.861H17.8608H17.8607H17.8606H17.8604H17.8603H17.8601H17.86H17.8599H17.8597H17.8596H17.8594H17.8593H17.8592H17.859H17.8589H17.8587H17.8586H17.8585H17.8583H17.8582H17.858H17.8579H17.8578H17.8576H17.8575H17.8573H17.8572H17.8571H17.8569H17.8568H17.8566H17.8565H17.8564H17.8562H17.8561H17.8559H17.8558H17.8557H17.8555H17.8554H17.8552H17.8551H17.855H17.8548H17.8547H17.8545H17.8544H17.8543H17.8541H17.854H17.8538H17.8537H17.8536H17.8534H17.8533H17.8531H17.853H17.8529H17.8527H17.8526H17.8524H17.8523H17.8522H17.852H17.8519H17.8517H17.8516H17.8515H17.8513H17.8512H17.851H17.8509H17.8508H17.8506H17.8505H17.8503H17.8502H17.8501H17.8499H17.8498H17.8496H17.8495H17.8494H17.8492H17.8491H17.8489H17.8488H17.8487H17.8485H17.8484H17.8482H17.8481H17.8479H17.8478H17.8477H17.8475H17.8474H17.8472H17.8471H17.847H17.8468H17.8467H17.8465H17.8464H17.8463H17.8461H17.846H17.8458H17.8457H17.8456H17.8454H17.8453H17.8451H17.845H17.8448H17.8447H17.8446H17.8444H17.8443H17.8441H17.844H17.8439H17.8437H17.8436H17.8434H17.8433H17.8431H17.843H17.8429H17.8427H17.8426H17.8424H17.8423H17.8422H17.842H17.8419H17.8417H17.8416H17.8414H17.8413H17.8412H17.841H17.8409H17.8407H17.8406H17.8404H17.8403H17.8402H17.84H17.8399H17.8397H17.8396H17.8395H17.8393H17.8392H17.839H17.8389H17.8387H17.8386H17.8385H17.8383H17.8382H17.838H17.8379H17.8377H17.8376H17.8375H17.8373H17.8372H17.837H17.8369H17.8367H17.8366H17.8365H17.8363H17.8362H17.836H17.8359H17.8357H17.8356H17.8354H17.8353H17.8352H17.835H17.8349H17.8347H17.8346H17.8344H17.8343H17.8342H17.834H17.8339H17.8337H17.8336H17.8334H17.8333H17.8331H17.833H17.8329H17.8327H17.8326H17.8324H17.8323H17.8321H17.832H17.8318H17.8317H17.8316H17.8314H17.8313H17.8311H17.831H17.8308H17.8307H17.8305H17.8304H17.8304C16.9566 43.4679 16.1643 43.125 15.5671 42.5716Z" fill="white" stroke="black"/>
<path d="M43.8972 37.157L43.8962 37.1566C43.5186 37.0125 43.1074 36.9336 42.6773 36.9336C40.7863 36.9336 39.2518 38.4681 39.2518 40.3591C39.2518 42.1051 40.5581 43.5459 42.2477 43.7584L43.8972 37.157ZM43.8972 37.157C44.9294 37.5484 45.7222 38.4288 45.9979 39.5117L45.9983 39.5133M43.8972 37.157L45.9983 39.5133M45.9983 39.5133C46.0682 39.7842 46.1054 40.0658 46.1054 40.3591C46.1054 41.7942 45.2219 43.0269 43.9652 43.535M45.9983 39.5133L43.9652 43.535M43.9652 43.535C43.5689 43.6948 43.1331 43.7846 42.6773 43.7846C42.5318 43.7846 42.387 43.7758 42.2478 43.7584L43.9652 43.535Z" fill="white" stroke="black"/>
<path d="M41.7276 44.0609L41.7277 44.0606C42.6655 41.839 43.3085 39.3294 43.5796 36.64C43.6733 35.7007 43.7226 34.7392 43.7226 33.7628C43.7226 33.1489 43.7029 32.5403 43.6635 31.9394L43.6634 31.9381C43.2111 24.7685 40.1219 18.7614 35.8927 15.8541L35.8926 15.8541C34.7429 15.0635 33.5084 14.5016 32.2181 14.2035L32.218 14.2035C31.5173 14.0414 30.7976 13.958 30.0632 13.958C29.2799 13.958 28.5124 14.0556 27.7649 14.2394C26.5675 14.5352 25.4192 15.059 24.3419 15.782C20.0589 18.6567 16.9226 24.6964 16.4604 31.9235L16.4604 31.9241C16.421 32.5301 16.4012 33.1413 16.4012 33.7628C16.4012 34.7094 16.4481 35.6387 16.5368 36.5509L41.7276 44.0609ZM41.7276 44.0609C39.5431 49.2428 35.801 52.7818 31.5488 53.4507M41.7276 44.0609L31.5488 53.4507M31.5488 53.4507C31.0588 53.5272 30.5653 53.5676 30.0632 53.5676H30.0631H30.0631H30.063H30.063H30.0629H30.0628H30.0628H30.0627H30.0627H30.0626H30.0625H30.0625H30.0624H30.0624H30.0623H30.0622H30.0622H30.0621H30.0621H30.062H30.062H30.0619H30.0618H30.0618H30.0617H30.0617H30.0616H30.0615H30.0615H30.0614H30.0614H30.0613H30.0612H30.0612H30.0611H30.0611H30.061H30.061H30.0609H30.0608H30.0608H30.0607H30.0607H30.0606H30.0605H30.0605H30.0604H30.0604H30.0603H30.0602H30.0602H30.0601H30.0601H30.06H30.06H30.0599H30.0598H30.0598H30.0597H30.0597H30.0596H30.0595H30.0595H30.0594H30.0594H30.0593H30.0593H30.0592H30.0591H30.0591H30.059H30.059H30.0589H30.0588H30.0588H30.0587H30.0587H30.0586H30.0586H30.0585H30.0584H30.0584H30.0583H30.0583H30.0582H30.0581H30.0581H30.058H30.058H30.0579H30.0578H30.0578H30.0577H30.0577H30.0576H30.0576H30.0575H30.0574H30.0574H30.0573H30.0573H30.0572H30.0572H30.0571H30.057H30.057H30.0569H30.0569H30.0568H30.0567H30.0567H30.0566H30.0566H30.0565H30.0565H30.0564H30.0563H30.0563H30.0562H30.0562H30.0561H30.056H30.056H30.0559H30.0559H30.0558H30.0558H30.0557H30.0556H30.0556H30.0555H30.0555H30.0554H30.0554H30.0553H30.0552H30.0552H30.0551H30.0551H30.055H30.0549H30.0549H30.0548H30.0548H30.0547H30.0547H30.0546H30.0545H30.0545H30.0544H30.0544H30.0543H30.0543H30.0542H30.0541H30.0541H30.054H30.054H30.0539H30.0539H30.0538H30.0537H30.0537H30.0536H30.0536H30.0535H30.0535H30.0534H30.0533H30.0533H30.0532H30.0532H30.0531H30.0531H30.053H30.0529H30.0529H30.0528H30.0528H30.0527H30.0527H30.0526H30.0525H30.0525H30.0524H30.0524H30.0523H30.0523H30.0522H30.0521H30.0521H30.052H30.052H30.0519H30.0519H30.0518H30.0517H30.0517H30.0516H30.0516H30.0515H30.0515H30.0514H30.0514H30.0513H30.0512H30.0512H30.0511H30.0511H30.051H30.051H30.0509H30.0508H30.0508H30.0507H30.0507H30.0506H30.0506H30.0505H30.0505H30.0504H30.0503H30.0503H30.0502H30.0502H30.0501H30.0501H30.05H30.0499H30.0499H30.0498H30.0498H30.0497H30.0497H30.0496H30.0496H30.0495H30.0494H30.0494H30.0493H30.0493H30.0492H30.0492H30.0491H30.0491H30.049H30.0489H30.0489H30.0488H30.0488H30.0487H30.0487H30.0486H30.0486H30.0485H30.0485H30.0484H30.0483H30.0483H30.0482H30.0482H30.0481H30.0481H30.048H30.048H30.0479H30.0478H30.0478H30.0477H30.0477H30.0476H30.0476H30.0475H30.0475H30.0474H30.0474H30.0473H30.0472H30.0472H30.0471H30.0471H30.047H30.047H30.0469H30.0469H30.0468H30.0468H30.0467H30.0466H30.0466H30.0465H30.0465H30.0464H30.0464H30.0463H30.0463H30.0462H30.0462H30.0461H30.0461H30.046H30.0459H30.0459H30.0458H30.0458H30.0457H30.0457H30.0456H30.0456H30.0455H30.0455H30.0454H30.0454H30.0453H30.0453H30.0452H30.0451H30.0451H30.045H30.045H30.0449H30.0449H30.0448H30.0448H30.0447H30.0447H30.0446H30.0446H30.0445H30.0445H30.0444H30.0444H30.0443H30.0442H30.0442H30.0441H30.0441H30.044H30.044H30.0439H30.0439H30.0438H30.0438H30.0437H30.0437H30.0436H30.0436H30.0435H30.0435H30.0434H30.0434H30.0433H30.0433H30.0432H30.0432H30.0431H30.043H30.043H30.0429H30.0429H30.0428H30.0428H30.0427H30.0427H30.0426H30.0426H30.0425H30.0425H30.0424H30.0424H30.0423H30.0423H30.0422H30.0422H30.0421H30.0421H30.042H30.042H30.0419H30.0419H30.0418H30.0418H30.0417H30.0417H30.0416H30.0416H30.0415H30.0415H30.0414H30.0414H30.0413H30.0413H30.0412H30.0412H30.0411H30.0411H30.041H30.041H30.0409H30.0409H30.0408H30.0408H30.0407H30.0407H30.0406H30.0406H30.0405H30.0405H30.0404H30.0404H30.0403H30.0403H30.0402H30.0402H30.0401H30.0401H30.04H30.04H30.0399H30.0399H30.0398H30.0398H30.0397H30.0397H30.0396H30.0396H30.0395H30.0395H30.0394H30.0394H30.0393H30.0393H30.0392H30.0392H30.0392H30.0391H30.0391H30.039H30.039H30.0389H30.0389H30.0388H30.0388H30.0387H30.0387H30.0386H30.0386H30.0385H30.0385H30.0384H30.0384H30.0383H30.0383H30.0382H30.0382H30.0382H30.0381H30.0381H30.038H30.038H30.0379H30.0379H30.0378H30.0378H30.0377H30.0377H30.0376H30.0376H30.0375H30.0375H30.0374H30.0374H30.0374H30.0373H30.0373H30.0372H30.0372H30.0371H30.0371H30.037H30.037H30.0369H30.0369H30.0369H30.0368H30.0368H30.0367H30.0367H30.0366H30.0366H30.0365H30.0365H30.0364H30.0364H30.0364H30.0363H30.0363H30.0362H30.0362H30.0361H30.0361H30.036H30.036H30.0359H30.0359H30.0359H30.0358L31.5488 53.4507ZM30.0358 53.5676C25.1083 53.5527 20.6972 49.7131 18.2883 43.7959L30.0358 53.5676ZM18.2882 43.7957C17.4017 41.6149 16.7932 39.1664 16.5368 36.5511L18.2882 43.7957Z" fill="white" stroke="black"/>
<circle cx="23.3492" cy="36.6748" r="1.71484" fill="black"/>
<circle cx="36.8492" cy="36.6748" r="1.71484" fill="black"/>
<circle cx="24.6432" cy="35.8242" r="0.763672" fill="white"/>
<circle cx="38.0865" cy="35.8242" r="0.763672" fill="white"/>
<path fill-rule="evenodd" clip-rule="evenodd" d="M40.3012 36.9411C37.9427 34.5827 34.6418 35.4035 33.4314 36.9018C33.2579 37.1166 32.932 37.1083 32.8232 37.021C32.7302 36.9463 32.8247 36.5626 32.9982 36.3478C34.5507 34.4262 38.1953 33.421 41.0083 36.234C41.2036 36.4293 41.2036 36.7459 41.0083 36.9411C40.8131 37.1364 40.4965 37.1364 40.3012 36.9411Z" fill="black"/>
<path fill-rule="evenodd" clip-rule="evenodd" d="M19.7225 36.9411C22.0809 34.5827 25.3819 35.4035 26.5923 36.9018C26.7658 37.1166 27.0917 37.1083 27.2005 37.021C27.2935 36.9463 27.199 36.5626 27.0254 36.3478C25.473 34.4262 21.8284 33.421 19.0154 36.234C18.8201 36.4293 18.8201 36.7459 19.0154 36.9411C19.2106 37.1364 19.5272 37.1364 19.7225 36.9411Z" fill="black"/>
<path d="M30.2798 43.5207C30.0552 43.4119 30.9288 42.0707 31.7727 42.4575C32.378 42.735 31.1048 42.7426 30.2798 43.5207Z" fill="black"/>
<path d="M29.863 43.5207C30.0909 43.4119 29.2046 42.0707 28.3485 42.4575C27.7344 42.735 29.0261 42.7426 29.863 43.5207Z" fill="black"/>
<path fill-rule="evenodd" clip-rule="evenodd" d="M27.2564 46.6198C26.921 46.2906 28.0574 45.4859 28.3966 45.3835C28.5062 45.3504 28.6704 45.3078 28.8269 45.3179C29.2234 45.3436 29.5491 45.6159 29.9043 45.7651C29.9497 45.7841 29.9773 45.7925 29.9905 45.7961C30.0039 45.7923 30.033 45.7834 30.0817 45.7628C30.1668 45.7268 30.2635 45.6768 30.3852 45.6139C30.4982 45.5555 30.6353 45.4846 30.7684 45.4298C30.8933 45.3784 31.0696 45.3169 31.2568 45.3169C31.4076 45.3169 31.5566 45.3575 31.6701 45.3958C32.0372 45.5196 33.0642 46.1251 32.7834 46.5664C32.5249 46.9727 31.6915 46.347 31.3461 46.2305C31.2925 46.2125 31.263 46.2067 31.2531 46.2049C31.2436 46.2071 31.2101 46.2148 31.1448 46.2417C30.7666 46.3974 30.4121 46.6858 29.987 46.6858C29.528 46.6858 29.1784 46.3454 28.7627 46.2068C28.7483 46.2097 28.7218 46.2157 28.6812 46.228C28.601 46.2522 28.5016 46.2896 28.3966 46.3352C28.0527 46.4844 27.6285 46.8456 27.2564 46.6198Z" fill="black"/>
<path fill-rule="evenodd" clip-rule="evenodd" d="M31.943 47.3411C32.0986 47.5692 32.0399 47.8803 31.8118 48.0359C31.2348 48.4297 30.5351 48.5566 29.9092 48.5316C29.2882 48.5067 28.6715 48.3295 28.2429 48.035C28.0153 47.8786 27.955 47.5685 28.1114 47.3409C28.2403 47.1532 28.4961 47.8181 29.9092 47.8745C31.3224 47.9309 31.8395 47.1895 31.943 47.3411Z" fill="black"/>
<path fill-rule="evenodd" clip-rule="evenodd" d="M32.2358 11.5344C41.4335 12.6383 48.5618 20.4691 48.5618 29.9629C48.5618 30.583 48.5319 31.1985 48.472 31.8049C48.4674 31.8513 48.4311 31.8883 48.3848 31.8937C47.6702 31.9777 46.9417 32.0197 46.204 32.0197C39.2976 32.0197 33.2727 28.2474 30.0761 22.6521C30.0373 22.5842 29.9387 22.5842 29.8999 22.6521C26.7034 28.2474 20.6785 32.0197 13.7721 32.0197C13.0443 32.0197 12.3236 31.9778 11.6165 31.8961C11.5701 31.8907 11.5337 31.8538 11.5291 31.8072C11.4693 31.2008 11.4393 30.5853 11.4393 29.9629C11.4393 20.4767 18.5551 12.6534 27.7402 11.5369C27.7403 11.5369 27.7403 11.5369 27.7403 11.5369C27.7403 11.5368 27.7403 11.5368 27.7403 11.5368C28.4803 11.4465 29.2352 11.4014 30.0003 11.4014C30.7553 11.4014 31.5028 11.4465 32.2352 11.5343C32.2354 11.5343 32.2356 11.5344 32.2358 11.5344Z" fill="white"/>
<path fill-rule="evenodd" clip-rule="evenodd" d="M30.5762 23.4769C33.8769 28.6149 39.6032 32.2668 46.1646 32.2668C46.4031 32.2668 48.4151 32.4182 48.4438 32.1276C48.5037 31.5211 48.5618 30.583 48.5618 29.9629C48.5618 20.4691 41.4335 12.6383 32.2358 11.5344C31.5033 11.4466 30.7553 11.4014 30.0003 11.4014C29.2352 11.4014 28.4803 11.4465 27.7403 11.5368C18.5552 12.6533 11.4393 20.4767 11.4393 29.9629C11.4393 30.5853 11.4693 31.2008 11.5291 31.8072C11.5575 32.0943 13.5079 32.2668 13.7721 32.2668C20.3334 32.2668 26.0992 28.6149 29.3999 23.4769C29.413 23.4565 29.426 23.4361 29.4391 23.4156C30.0338 22.4819 30.225 22.9258 30.537 23.4156C30.55 23.4361 30.5631 23.4565 30.5762 23.4769ZM32.1165 12.5272C31.4236 12.4442 30.7155 12.4014 30.0003 12.4014C29.2786 12.4014 28.5681 12.4437 27.8732 12.528C27.8691 12.5286 27.865 12.5291 27.8609 12.5296C19.1715 13.5858 12.4393 20.9885 12.4393 29.9629C12.4393 30.3019 12.4487 30.6385 12.4674 30.9721C12.8983 31.0036 13.3338 31.0197 13.7721 31.0197C20.3051 31.0197 26.0058 27.4526 29.0316 22.1561C29.4543 21.4162 30.5217 21.4162 30.9444 22.1561C33.9703 27.4526 39.671 31.0197 46.204 31.0197C46.6519 31.0197 47.0955 31.0034 47.5337 30.9709C47.5524 30.6372 47.5618 30.3009 47.5618 29.9629C47.5618 20.9814 40.8174 13.5717 32.1165 12.5272Z" fill="black"/>
<path d="M13.3293 29.8154C15.2284 23.6269 21.4079 16.9034 26.6078 13.4084C26.7035 13.3441 26.6332 13.1947 26.523 13.2289C18.8749 15.6089 14.0067 20.9059 13.1013 29.7741C13.0887 29.8971 13.2931 29.9336 13.3293 29.8154Z" fill="#CAC9C9"/>
<path d="M14.3983 37.8436C14.0268 37.4113 13.0912 34.4047 12.9325 32.7849C12.9292 32.7506 12.9443 32.7149 12.9785 32.7109C13.1376 32.6921 13.4292 32.9629 13.5654 33.1863C13.7156 33.4324 14.3761 35.7454 14.7404 37.1914C14.7509 37.2331 14.7371 37.2814 14.7216 37.3215C14.6656 37.4666 14.6039 37.8112 14.4613 37.8634C14.4383 37.8719 14.4144 37.8623 14.3983 37.8436Z" fill="#CAC9C9"/>
<path d="M45.6063 9.64592C45.0926 8.4175 43.3522 8.41751 42.8385 9.64592L41.0265 13.9791C40.9758 14.1003 40.8794 14.1968 40.7581 14.2475L36.425 16.0595C35.1966 16.5731 35.1966 18.3135 36.425 18.8272L40.7581 20.6392C40.8794 20.6899 40.9758 20.7863 41.0265 20.9076L42.8385 25.2408C43.3522 26.4692 45.0926 26.4692 45.6063 25.2408L47.4182 20.9076C47.469 20.7863 47.5654 20.6899 47.6866 20.6392L52.0198 18.8272C53.2482 18.3135 53.2482 16.5731 52.0198 16.0595L47.6866 14.2475C47.5654 14.1968 47.469 14.1003 47.4182 13.9791L45.6063 9.64592Z" fill="#CAC9C9" stroke="white" stroke-linejoin="round"/>
<path d="M43.7643 13.0854C43.7672 13.0781 43.7699 13.0707 43.7725 13.0633L44.2673 11.6281L45.5731 14.7507C45.8266 15.357 46.3087 15.8391 46.9151 16.0927L50.1451 17.4433L46.9151 18.794C46.3087 19.0476 45.8266 19.5297 45.5731 20.136L44.2224 23.366L42.8717 20.136C42.6182 19.5297 42.1361 19.0476 41.5297 18.794L38.424 17.4953L41.6465 16.417C41.6581 16.4131 41.6695 16.4088 41.6807 16.4041C41.9167 16.3054 42.1612 16.1999 42.3691 16.0319C42.5947 15.8497 42.7475 15.6214 42.8717 15.3244L42.8718 15.3244L42.8749 15.3166L43.7643 13.0854ZM45.6063 9.64592C45.0926 8.4175 43.3522 8.41751 42.8385 9.64592L41.0265 13.9791C40.9758 14.1003 40.8794 14.1968 40.7581 14.2475L36.425 16.0595C35.1966 16.5731 35.1966 18.3135 36.425 18.8272L40.7581 20.6392C40.8794 20.6899 40.9758 20.7863 41.0265 20.9076L42.8385 25.2408C43.3522 26.4692 45.0926 26.4692 45.6063 25.2408L47.4182 20.9076C47.469 20.7863 47.5654 20.6899 47.6866 20.6392L52.0198 18.8272C53.2482 18.3135 53.2482 16.5731 52.0198 16.0595L47.6866 14.2475C47.5654 14.1968 47.469 14.1003 47.4182 13.9791L45.6063 9.64592Z" fill="black" stroke="white" stroke-linejoin="round"/>
<path d="M43.2998 9.83882C43.6423 9.01987 44.8025 9.01987 45.145 9.83882L46.957 14.172C47.0584 14.4145 47.2512 14.6074 47.4937 14.7088L51.8269 16.5207C52.6459 16.8632 52.6459 18.0235 51.8269 18.3659L47.4937 20.1779C47.2512 20.2793 47.0584 20.4722 46.957 20.7147L45.145 25.0479C44.8025 25.8668 43.6423 25.8668 43.2998 25.0479L41.4878 20.7147C41.3864 20.4722 41.1936 20.2793 40.951 20.1779L36.6179 18.3659C35.7989 18.0235 35.7989 16.8632 36.6179 16.5208L40.951 14.7088C41.1936 14.6074 41.3864 14.4145 41.4878 14.172L43.2998 9.83882Z" fill="#CAC9C9"/>
<path fill-rule="evenodd" clip-rule="evenodd" d="M46.0344 14.5578L44.2224 10.2246L43.2998 12.9003L42.4104 15.1315C42.2076 15.6165 41.9729 15.74 41.4878 15.9428L37.0037 17.4433L41.3368 19.2553C41.8219 19.4582 42.2076 19.8438 42.4104 20.3289L44.2224 24.6621L46.0344 20.3289C46.2372 19.8438 46.6229 19.4582 47.108 19.2553L51.4411 17.4433L47.108 15.6314C46.6229 15.4285 46.2372 15.0428 46.0344 14.5578ZM45.145 9.83882C44.8025 9.01987 43.6423 9.01987 43.2998 9.83882L41.4878 14.172C41.3864 14.4145 41.1936 14.6074 40.951 14.7088L36.6179 16.5208C35.7989 16.8632 35.7989 18.0235 36.6179 18.3659L40.951 20.1779C41.1936 20.2793 41.3864 20.4722 41.4878 20.7147L43.2998 25.0479C43.6423 25.8668 44.8025 25.8668 45.145 25.0479L46.957 20.7147C47.0584 20.4722 47.2512 20.2793 47.4937 20.1779L51.8269 18.3659C52.6459 18.0235 52.6459 16.8632 51.8269 16.5207L47.4937 14.7088C47.2512 14.6074 47.0584 14.4145 46.957 14.172L45.145 9.83882Z" fill="black"/>
<path d="M16.4876 16.8409C15.9805 15.5947 14.2159 15.5947 13.7088 16.8409L12.7667 19.1563C12.7159 19.2812 12.6169 19.3802 12.492 19.431L10.1766 20.3731C8.93038 20.8802 8.93038 22.6448 10.1766 23.1519L12.492 24.094C12.6169 24.1448 12.7159 24.2438 12.7667 24.3687L13.7088 26.6841C14.2159 27.9303 15.9805 27.9303 16.4876 26.6841L17.4297 24.3687C17.4805 24.2438 17.5795 24.1448 17.7044 24.094L20.0198 23.1519C21.266 22.6448 21.266 20.8802 20.0198 20.3731L17.7044 19.431C17.5795 19.3802 17.4805 19.2812 17.4297 19.1563L16.4876 16.8409Z" fill="#CAC9C9" stroke="white" stroke-linejoin="round"/>
<path d="M15.3611 23.4424C15.3547 23.4582 15.3491 23.4744 15.3443 23.4908L15.0204 24.6008L14.6192 23.6149C14.3653 22.9907 13.87 22.4954 13.2458 22.2415L12.0686 21.7625L13.2458 21.2836C13.7752 21.0682 14.3139 20.7794 14.5974 20.0972L15.0906 19.0646L15.566 20.0941C15.8534 20.7879 16.4381 21.075 16.9506 21.2836L18.0345 21.7246L16.6131 22.2162C16.6047 22.2191 16.5963 22.2223 16.5881 22.2256C16.3023 22.3419 16.0513 22.4833 15.8388 22.6922C15.6254 22.902 15.4794 23.1517 15.3611 23.4424ZM12.492 24.094L12.6805 23.6309L12.492 24.094C12.6169 24.1448 12.7159 24.2438 12.7667 24.3687L13.7088 26.6841C14.2159 27.9303 15.9805 27.9303 16.4876 26.6841L17.4297 24.3687C17.4805 24.2438 17.5795 24.1448 17.7044 24.094L20.0198 23.1519C21.266 22.6448 21.266 20.8802 20.0198 20.3731L17.7044 19.431C17.5795 19.3802 17.4805 19.2812 17.4297 19.1563L16.9666 19.3448L17.4297 19.1563L16.4876 16.8409C15.9805 15.5947 14.2159 15.5947 13.7088 16.8409L12.7667 19.1563C12.7159 19.2812 12.6169 19.3802 12.492 19.431L10.1766 20.3731C8.93038 20.8802 8.93038 22.6448 10.1766 23.1519L12.492 24.094Z" fill="black" stroke="white" stroke-linejoin="round"/>
<path d="M14.6351 17.2178C14.8041 16.8024 15.3923 16.8024 15.5613 17.2178L16.5034 19.5332C16.6558 19.9077 16.953 20.2049 17.3275 20.3573L19.6429 21.2994C20.0583 21.4684 20.0583 22.0566 19.6429 22.2256L17.3275 23.1677C16.953 23.3201 16.6558 23.6173 16.5034 23.9918L15.5613 26.3072C15.3923 26.7226 14.8041 26.7226 14.6351 26.3072L13.693 23.9918C13.5406 23.6173 13.2434 23.3201 12.8689 23.1677L10.5535 22.2256C10.1381 22.0566 10.1381 21.4684 10.5535 21.2994L12.8689 20.3573C13.2434 20.2049 13.5406 19.9077 13.693 19.5332L14.6351 17.2178Z" fill="#CAC9C9" stroke="black"/>
<path d="M16.4876 19.7057L16.4832 19.695L16.4784 19.6845L15.6414 17.8721C15.4284 17.4108 14.7742 17.4066 14.5553 17.8651L13.6891 19.6787L13.6827 19.692L13.6772 19.7057C13.5526 20.0118 13.3345 20.1678 12.8689 20.3573C13.2434 20.2049 13.5406 19.9077 13.693 19.5332L14.6351 17.2178C14.8041 16.8024 15.3923 16.8024 15.5613 17.2178L16.5034 19.5332C16.6558 19.9077 16.953 20.2049 17.3275 20.3573C16.8441 20.1606 16.6083 20.0024 16.4876 19.7057ZM19.6179 22.235L19.6305 22.2307L17.3275 23.1677C16.953 23.3201 16.6558 23.6173 16.5034 23.9918L15.571 26.2835L15.5782 26.2588L16.2967 23.7967C16.3782 23.6019 16.4559 23.4878 16.5398 23.4053C16.6262 23.3204 16.7467 23.2418 16.9531 23.1568L19.6179 22.235Z" fill="black" stroke="black"/>
<path d="M17.2903 35.3761C16.7833 34.1298 15.0186 34.1298 14.5115 35.3761L13.5695 37.6915C13.5187 37.8163 13.4196 37.9154 13.2948 37.9662L10.9794 38.9083C9.73312 39.4153 9.73311 41.18 10.9794 41.6871L13.2948 42.6291C13.4196 42.6799 13.5187 42.779 13.5695 42.9038L14.5115 45.2192C15.0186 46.4655 16.7833 46.4655 17.2903 45.2192L18.2324 42.9038C18.2832 42.779 18.3823 42.6799 18.5071 42.6291L20.8225 41.6871C22.0688 41.18 22.0688 39.4153 20.8225 38.9083L18.5071 37.9662C18.3823 37.9154 18.2832 37.8163 18.2324 37.6915L17.2903 35.3761Z" fill="#CAC9C9" stroke="white" stroke-linejoin="round"/>
<path d="M15.5945 38.6624C15.6012 38.646 15.6069 38.6293 15.6118 38.6123L15.9152 37.5585L16.3894 38.4682C16.6461 39.0816 17.1368 39.5678 17.7534 39.8187L18.9305 40.2977L17.7534 40.7766C17.1291 41.0306 16.6339 41.5259 16.3799 42.1501L15.9009 43.3272L15.422 42.1501C15.168 41.5259 14.6727 41.0306 14.0485 40.7766L13.0636 40.3759L14.1725 40.0528C14.1889 40.048 14.2051 40.0423 14.221 40.0359C14.8453 39.7819 15.3405 39.2866 15.5945 38.6624ZM13.2948 42.6291L13.4832 42.166L13.2948 42.6291C13.4196 42.6799 13.5187 42.779 13.5695 42.9038L14.5115 45.2192C15.0186 46.4655 16.7833 46.4655 17.2903 45.2192L18.2324 42.9038C18.2832 42.779 18.3823 42.6799 18.5071 42.6291L20.8225 41.6871C22.0688 41.18 22.0688 39.4153 20.8225 38.9083L18.5071 37.9662C18.3823 37.9154 18.2832 37.8163 18.2324 37.6915L17.7693 37.8799L18.2324 37.6915L17.2903 35.3761C16.7833 34.1298 15.0186 34.1298 14.5115 35.3761L13.5695 37.6915C13.5187 37.8163 13.4196 37.9154 13.2948 37.9662L10.9794 38.9083C9.73312 39.4153 9.73311 41.18 10.9794 41.6871L13.2948 42.6291Z" fill="black" stroke="white" stroke-linejoin="round"/>
<path d="M14.9747 35.5645C15.3127 34.7337 16.4892 34.7337 16.8272 35.5645L17.7693 37.8799C17.8709 38.1296 18.069 38.3277 18.3187 38.4293L20.6341 39.3714C21.4649 39.7094 21.4649 40.8859 20.6341 41.2239L18.3187 42.166C18.069 42.2676 17.8709 42.4657 17.7693 42.7154L16.8272 45.0308C16.4892 45.8616 15.3127 45.8616 14.9747 45.0308L14.0326 42.7154C13.931 42.4657 13.7329 42.2676 13.4832 42.166L11.1678 41.2239C10.337 40.8859 10.337 39.7094 11.1678 39.3714L13.4832 38.4293C13.7329 38.3277 13.931 38.1296 14.0326 37.8799L14.9747 35.5645Z" fill="#CAC9C9"/>
<path fill-rule="evenodd" clip-rule="evenodd" d="M16.843 38.2568L15.7807 36.2185L15.1314 38.474C14.9282 38.9733 14.532 39.3695 14.0326 39.5727L11.5447 40.2977L13.8601 41.2398C14.3595 41.4429 14.7557 41.8391 14.9588 42.3385L15.9009 44.6539L16.843 42.3385C17.0462 41.8391 17.4424 41.4429 17.9418 41.2398L20.2572 40.2977L17.9418 39.3556C17.4424 39.1524 17.0462 38.7562 16.843 38.2568ZM16.8272 35.5645C16.4892 34.7337 15.3127 34.7337 14.9747 35.5645L14.0326 37.8799C13.931 38.1296 13.7329 38.3277 13.4832 38.4293L11.1678 39.3714C10.337 39.7094 10.337 40.8859 11.1678 41.2239L13.4832 42.166C13.7329 42.2676 13.931 42.4657 14.0326 42.7154L14.9747 45.0308C15.3127 45.8616 16.4892 45.8616 16.8272 45.0308L17.7693 42.7154C17.8709 42.4657 18.069 42.2676 18.3187 42.166L20.6341 41.2239C21.4649 40.8859 21.4649 39.7094 20.6341 39.3714L18.3187 38.4293C18.069 38.3277 17.8709 38.1296 17.7693 37.8799L16.8272 35.5645Z" fill="black"/>
</g>
<circle cx="50" cy="50" r="9.6" fill="#CAC9C9" stroke="white" stroke-width="1.2"/>
<circle cx="50" cy="50" r="8.4" fill="black" stroke="black" stroke-width="1.2"/>
<path d="M45.9805 55V44.8182H50.3952C51.1708 44.8182 51.8221 44.9226 52.3491 45.1314C52.8794 45.3402 53.2788 45.6352 53.5472 46.0163C53.819 46.3975 53.9549 46.8466 53.9549 47.3636C53.9549 47.7382 53.872 48.0795 53.7063 48.3878C53.5439 48.696 53.3152 48.9545 53.0202 49.1634C52.7253 49.3688 52.3806 49.5114 51.9862 49.5909V49.6903C52.4237 49.7069 52.8214 49.8179 53.1793 50.0234C53.5373 50.2256 53.8223 50.5057 54.0344 50.8636C54.2466 51.2183 54.3526 51.6359 54.3526 52.1165C54.3526 52.6733 54.2068 53.1688 53.9151 53.603C53.6268 54.0372 53.2158 54.3786 52.6822 54.6271C52.1486 54.8757 51.5122 55 50.7731 55H45.9805ZM48.7447 52.7926H50.0373C50.5013 52.7926 50.8493 52.7064 51.0813 52.5341C51.3133 52.3584 51.4293 52.0999 51.4293 51.7585C51.4293 51.5199 51.3746 51.3177 51.2653 51.152C51.1559 50.9863 51.0001 50.8603 50.7979 50.7741C50.5991 50.688 50.3588 50.6449 50.0771 50.6449H48.7447V52.7926ZM48.7447 48.9347H49.8782C50.1201 48.9347 50.3339 48.8965 50.5195 48.8203C50.7051 48.7441 50.8493 48.6347 50.9521 48.4922C51.0581 48.3464 51.1112 48.169 51.1112 47.9602C51.1112 47.6454 50.9985 47.4051 50.7731 47.2393C50.5477 47.0703 50.2627 46.9858 49.918 46.9858H48.7447V48.9347Z" fill="white"/>
<defs>
<filter id="filter0_d_515_3642" x="7.74194" y="5.9707" width="45.6992" height="49.5967" filterUnits="userSpaceOnUse" color-interpolation-filters="sRGB">
<feFlood flood-opacity="0" result="BackgroundImageFix"/>
<feColorMatrix in="SourceAlpha" type="matrix" values="0 0 0 0 0 0 0 0 0 0 0 0 0 0 0 0 0 0 127 0" result="hardAlpha"/>
<feOffset dx="-1" dy="1.5"/>
<feComposite in2="hardAlpha" operator="out"/>
<feColorMatrix type="matrix" values="0 0 0 0 0 0 0 0 0 0 0 0 0 0 0 0 0 0 0.25 0"/>
<feBlend mode="normal" in2="BackgroundImageFix" result="effect1_dropShadow_515_3642"/>
<feBlend mode="normal" in="SourceGraphic" in2="effect1_dropShadow_515_3642" result="shape"/>
</filter>
</defs>
</svg>
